<svg  viewBox="0 0 1068 1024" xmlns="http://www.w3.org/2000/svg" ><path d="M3.029183 839.572292m80.224494 0l898.885651 0q80.224494 0 80.224494 80.224494l0 23.45174q0 80.224494-80.224494 80.224494l-898.885651 0q-80.224494 0-80.224494-80.224494l0-23.45174q0-80.224494 80.224494-80.224494Z" fill="#F29E8B" p-id="1704"></path><path d="M294.710199 221.91209l754.755166 561.571457c23.45174 17.393374 18.565961 107.487142-5.667504 107.487142H21.595144c-19.543117 0-28.53295-64.101423-13.387035-96.933859l254.549095-554.43822c8.892118-19.347686 20.617988-25.89463 31.952995-17.68652z" fill="#FFF0C0" p-id="1705"></path><path d="M1043.700146 835.370522H247.220426a136.020092 136.020092 0 0 0-55.697883 13.48475 57.163616 57.163616 0 0 1-23.549455 4.983495 55.404736 55.404736 0 0 1-19.543117-3.517761 9.771558 9.771558 0 0 0-11.335008 5.862935 29.314675 29.314675 0 0 1-24.624327 18.077383 26.77407 26.77407 0 0 1-21.399712-12.800741 8.305825 8.305825 0 0 0-9.771559-3.420046 29.314675 29.314675 0 0 1-11.530438 1.856596 39.086233 39.086233 0 0 1-31.464418-19.543116 9.771558 9.771558 0 0 0-7.719531-4.885779H21.497428c-19.543117 0-28.435235-64.101423-13.387035-96.933859l254.646811-554.633651c8.892118-19.543117 20.813419-25.992345 31.85528-17.686521l754.852881 561.571458c23.354024 17.393374 18.565961 107.584857-5.765219 107.584857z" fill="#F45656" p-id="1706"></path><path d="M294.514768 165.334767l754.852881 487.893908c23.354024 15.0482 18.565961 93.416098-5.765219 93.416097H21.399713c-19.543117 0-28.435235-55.795598-13.387035-84.230833l254.64681-481.737825c8.892118-16.80708 20.715704-22.5723 31.85528-15.341347z" fill="#F98C8C" p-id="1707"></path><path d="M297.739382 194.063149l754.755166 403.076781c23.45174 12.409879 18.565961 77.195311-5.667504 77.195311H24.624327c-19.543117 0-28.435235-46.121755-13.387035-69.671211l254.64681-397.897856c8.794403-13.875613 20.715704-18.663676 31.85528-12.703025z" fill="#F45656" p-id="1708"></path><path d="M1043.211568 617.073909H913.640704a21.69286 21.69286 0 0 0-19.543116 25.406051v6.253798c0 24.428896-15.243631 44.362875-34.005023 44.362875s-34.005023-19.543117-34.005023-44.362875v-6.253798a21.69286 21.69286 0 0 0-19.543117-25.406051H21.00885c-19.543117 0-28.435235-40.649683-13.387034-61.365387L342.981698 247.318141a25.210621 25.210621 0 0 1 31.952995-11.139576l674.237525 312.689867c23.158593 11.139577 18.37053 68.205477-5.96065 68.205477z" fill="#FFF0C0" p-id="1709"></path><path d="M1043.60243 548.575285H21.399713c-18.272814 0-27.164932-51.496112-16.025356-82.96053 3.615477 10.748714 9.185265 17.979667 16.025356 17.979667H1043.60243c7.328669 0 12.800741-7.328669 16.318502-18.175099 10.260136 29.412391 3.224614 83.155961-16.318502 83.155962z" fill="#F98C8C" p-id="1710"></path><path d="M1059.920932 465.419323c-3.517761 10.84643-8.989834 18.175099-16.318502 18.175099H21.399713c-6.840091 0-12.409879-7.230953-16.025356-17.979667A63.515129 63.515129 0 0 1 8.012678 459.263242l254.744526-316.793921c8.892118-17.784236 20.813419-23.940318 31.85528-16.318503L1049.367649 449.491683a31.268987 31.268987 0 0 1 10.553283 15.92764z" fill="#F47A7A" p-id="1711"></path><path d="M384.803967 348.551486c-45.046884 10.357852-95.468125 26.676354-165.334767-39.086234a4.494917 4.494917 0 0 1 0.488578-7.035522 48.271498 48.271498 0 0 0 17.784236-13.973328c3.810908-7.5241-40.161105-18.37053-53.841286-37.131922l28.044372-8.598971s-57.163616-18.37053-47.685204-25.699198 47.489774-9.771558 47.489773-9.771559-45.633177-15.536778-63.808276-48.271498a91.36407 91.36407 0 0 1 73.482119 16.025356S205.202725 139.635569 214.974283 131.036597a58.043057 58.043057 0 0 1 38.597656 29.314675 53.352709 53.352709 0 0 1 3.615476-34.395885c8.305825-16.220787 58.62935 62.342542 58.62935 62.342542a59.215644 59.215644 0 0 1 12.019017-39.965673s57.652194 35.17761 86.869154 143.544191a44.069728 44.069728 0 0 1-29.900969 56.675039z" fill="#80E085" p-id="1712"></path><path d="M174.324601 175.88805s250.054178 157.810667 270.183588 185.073315L449.491683 351.7761s57.74991 16.025356-275.167082-175.88805z" fill="#1FAA67" p-id="1713"></path><path d="M294.123906 248.197582s2.833752-49.834948-19.543117-81.006219c0 0 30.389546 39.867958 25.796914 82.374237zM360.375071 290.801576s2.44289-68.400908-30.780408-111.982058c0 0 44.46059 55.893314 39.086233 114.131801zM294.123906 248.197582s-37.034206 28.044372-72.407247 21.790575c0 0 46.02404 9.28298 76.511301-16.611649zM367.801456 297.739382s-37.034206 27.946657-72.407248 21.790576c0 0 46.02404 9.28298 76.511302-16.709365z" fill="#1FAA67" p-id="1714"></path><path d="M426.33309 285.720366c-24.428896-44.46059-56.18646-93.416098-20.715704-179.796674a3.713192 3.713192 0 0 1 6.449229-0.977155 61.463102 61.463102 0 0 0 18.565961 15.439062c8.012678 2.44289 2.833752-45.535462 14.950484-63.710561l17.295658 27.360364s-2.931468-63.221982 6.742376-55.013874 24.526611 47.392058 24.526611 47.392058-1.563449-50.616672 21.595144-76.413586c0 0 22.767731 39.574811 10.455567 79.6382 0 0 26.187776-24.33118 37.229638-15.829924a58.043057 58.043057 0 0 1-13.484751 46.317186 42.506279 42.506279 0 0 1 31.952996-3.517761c17.393374 5.178926-35.861619 74.166128-35.861619 74.166128a51.007535 51.007535 0 0 1 39.867958 4.006339s-11.921301 67.228321-98.985886 120.483314a43.874297 43.874297 0 0 1-60.583662-19.543116z" fill="#80E085" p-id="1715"></path><path d="M509.29362 30.97584s-56.284176 293.14675-73.775265 319.432242l9.771558 2.833752s5.374357 63.612845 64.003707-322.265994z" fill="#1FAA67" p-id="1716"></path><path d="M485.353302 170.513693s45.633177-7.5241 65.762588-37.6205c0 0-25.308336 39.965674-64.980863 44.167444zM469.718809 248.295297s61.95168-11.921301 89.800621-55.502451c0 0-34.982179 57.847625-88.823465 64.883147zM485.353302 170.513693s-37.6205-32.539289-44.069728-70.550651c0 0 7.328669 49.639516 40.94283 75.827292zM466.103333 257.382847s-37.6205-32.637005-44.069729-70.550652c0 0 7.328669 49.737232 40.845114 75.925009z" fill="#1FAA67" p-id="1717"></path></svg>