<svg viewBox="0 0 1024 1024" xmlns="http://www.w3.org/2000/svg"><path d="M982.992414 311.009347a357.196716 357.196716 0 0 0-111.151848-79.425011c-329.894369 154.641358-564.068652 28.59732-622.989923-9.712297a413.851785 413.851785 0 0 0-110.93602 67.770253c54.065122 37.770046 371.441419 234.174282 845.077791 21.367055z" fill="#FCEC77" p-id="1862"></path><path d="M871.840566 231.584336c-85.03656-41.115392-197.915039-66.259451-322.124532-66.259451a775.041335 775.041335 0 0 0-300.865391 56.547154c58.921271 38.309618 293.095553 164.353655 622.989923 9.712297z" fill="#FFF385" p-id="1863"></path><path d="M996.481716 351.261424a187.231512 187.231512 0 0 0-7.446095-33.453469c-1.834545-2.266203-3.992833-4.424491-6.043207-6.690694-473.636371 212.807228-791.012668 16.402991-845.077791-21.582883a258.994598 258.994598 0 0 0-27.518176 28.057748 176.224241 176.224241 0 0 0-8.093581 39.388762 15.431761 15.431761 0 0 0 0 3.129518c0 16.942563 18.885023 32.374325 52.122663 47.050685 2.482032 0.97123 5.071978 2.158288 7.769838 3.129518 77.482551 30.000208 222.519526 50.180203 388.491897 50.180203S860.725381 440.398731 938.855418 410.07478l3.345347-1.294973c33.453469-13.273473 53.417636-28.705235 56.115496-44.892397-0.863315-3.992833-1.079144-7.769838-1.834545-12.625986z" fill="#FFE45F" p-id="1864"></path><path d="M466.729849 460.90247s143.20243 22.554113 252.303904 12.302244 98.094204-60.216244 78.130037-66.043623-53.957208 39.496676-113.957623 32.374325-71.547258-36.259244-117.30297-20.719568a1039.755397 1039.755397 0 0 0-99.173348 42.086622zM120.540403 307.664s11.9785-1.510802 10.791441 16.079248 2.050374 28.59732 12.733901 33.669297 24.388658 2.589946 32.913897 18.56128 30.755609 44.568654 58.381699 47.914 72.626402 15.000104 78.345866 22.338285c15.215933 19.100852-8.30941 48.129829-8.30941 48.129829l-99.820835-37.770046-85.252388-30.216036-28.057748-61.403303z" fill="#AF5D14" p-id="1865"></path><path d="M1028.208554 408.132321c-3.021604 14.136788-24.604487 27.518176-59.8925 39.065018l-3.561176 1.079144c-22.446198 7.014437-49.85646 16.187162-81.583299 26.007375h-0.863315c-85.360303 26.115289-200.936642 55.360095-329.67854 55.360095S307.448171 500.938718 220.792895 474.82343c-33.453469-9.928126-62.158704-19.532509-85.252389-26.762775l-8.30941-2.697861c-35.395928-12.302243-55.575924-26.115289-55.575924-40.791649a24.604487 24.604487 0 0 1 0-2.805775 142.662858 142.662858 0 0 1 11.546843-41.115392 188.634399 188.634399 0 0 1 26.978604-43.165767 176.224241 176.224241 0 0 0-8.093582 39.388762 15.431761 15.431761 0 0 0 0 3.129518c0 16.942563 18.885023 32.374325 52.122663 47.050686 2.482032 0.97123 5.071978 2.158288 7.769838 3.129518 77.482551 30.000208 222.519526 50.180203 388.491897 50.180203S860.725381 440.398731 938.855418 410.07478l3.345347-1.294973c33.453469-13.273473 53.417636-28.705235 56.115496-44.892397 0-4.316577 0-8.525239-1.294973-12.94973a187.231512 187.231512 0 0 0-7.446095-33.453469 188.202741 188.202741 0 0 1 26.87069 42.51828 140.288741 140.288741 0 0 1 10.791442 36.690902 80.288325 80.288325 0 0 1 0.971229 11.438928z" fill="#F4D44E" p-id="1866"></path><path d="M1079.791645 505.255295L884.89821 902.272431a217.663377 217.663377 0 0 1-195.325093 121.727461H582.737846a217.663377 217.663377 0 0 0 195.325092-121.727461l195.325093-397.017136z" fill="#DA8627" p-id="1867"></path><path d="M972.848459 505.255295l-195.325093 397.017136A217.663377 217.663377 0 0 1 582.737846 1023.999892H411.261839A217.339634 217.339634 0 0 1 215.828832 902.272431L20.611653 505.255295z" fill="#EBA744" p-id="1868"></path><path d="M1049.036037 493.384709A146.763606 146.763606 0 0 1 1034.791334 561.154962C1030.043099 630.97559 814.75384 687.199 550.363521 687.199 297.627959 687.199 90.43228 636.695054 67.230681 571.083089c-12.733901-14.136788-21.582883-43.705338-21.582883-77.69838s9.28064-66.151537 22.662027-79.532924A37.87796 37.87796 0 0 0 64.74865 430.146862c0 21.582883 20.28791 42.194537 56.22341 60.216244 2.805775 1.402887 5.61155 2.805775 8.525239 3.992833 83.849501 38.525446 240.649147 64.74865 420.218735 64.74865s336.26132-25.89946 420.002907-64.74865l3.884919 1.834545a23.417428 23.417428 0 0 1 0-2.805775v-0.647486C1012.776793 474.82343 1034.899248 453.240547 1034.899248 430.146862a43.165766 43.165766 0 0 0 0-5.179892 146.87152 146.87152 0 0 1 14.136789 68.417739z" fill="#C98428" p-id="1869"></path><path d="M1079.791645 401.117884c0 22.662027-24.280744 44.029082-66.906938 62.590361l-4.100748 1.618716-7.661923 3.129518c-93.238055 36.798816-260.289571 61.295388-450.758515 61.295388S191.008516 505.039466 98.094204 468.024822l-6.690694-2.697861c-3.237432-1.187059-6.366951-2.589946-9.388554-3.992833-38.84919-18.129622-61.403303-38.525446-61.403303-60.216244a36.151329 36.151329 0 0 1 4.100748-16.402991c9.820212-18.237536 35.288014-35.1801 73.05806-50.180204a195.001349 195.001349 0 0 0-10.791442 47.482343 30.53978 30.53978 0 0 0 0 3.129518C86.331533 401.657456 106.187785 417.628789 140.288741 431.657663l8.093581 3.129518C228.778562 464.895304 378.563771 485.614871 550.363521 485.614871s321.261216-20.179996 401.441627-50.180203l3.453261-1.294973c34.424699-13.273473 55.036352-29.244807 57.842127-45.647798a105.540299 105.540299 0 0 0-1.402887-12.94973 191.008516 191.008516 0 0 0-10.791442-42.086622c46.295284 18.345451 74.460947 39.604591 78.237952 62.374532a43.705338 43.705338 0 0 1 0.647486 5.287807z" fill="#FCCC6B" p-id="1870"></path><path d="M1013.532194 384.714893a17.374221 17.374221 0 0 1 0 3.992833 105.540299 105.540299 0 0 0-1.402888-12.94973 22.23037 22.23037 0 0 1 1.618717 4.964063 24.820316 24.820316 0 0 1-0.215829 3.992834zM1012.992622 467.161506l-4.208663-1.834545 4.100748-1.618716V464.031988a23.417428 23.417428 0 0 0 0.107915 3.129518z" p-id="1871"></path><path d="M1095.115492 464.031988a137.051308 137.051308 0 0 1-15.971333 68.093997C1074.395924 601.946612 839.358327 658.277937 550.363521 658.277937 274.642188 658.277937 48.453573 607.234418 23.093685 542.054111 9.28064 527.917322 0 498.348772 0 464.031988c0-35.719672 10.036041-66.151537 24.712401-79.640839a36.151329 36.151329 0 0 0-4.100748 16.402992c0 21.582883 22.23037 42.086622 61.403303 60.216244 3.021604 1.402887 6.151122 2.805775 9.388554 3.992833 91.511425 38.525446 262.771603 64.74865 458.744182 64.748649s366.909014-25.89946 458.636267-64.748649l4.208663 1.834545a23.417428 23.417428 0 0 1 0-2.805775c43.165766-18.56128 66.906938-39.928334 66.906938-62.590361a43.705338 43.705338 0 0 0 0-5.179892 137.267137 137.267137 0 0 1 15.215932 67.770253z" fill="#FFB345" p-id="1872"></path><path d="M7.877752 451.945574S-6.582779 589.320625 282.627855 612.198481s401.225798 0 401.225798 0-589.212711 1.187059-675.975901-160.252907z" fill="#EF9722" p-id="1873"></path><path d="M329.138968 565.687368s511.73016 73.273888 697.019212-44.244911c0 0 40.252077-24.388658 53.957208-53.957207-0.323743-0.323743-99.497091 148.382322-750.97642 98.202118z" fill="#EF9722" p-id="1874"></path><path d="M950.186432 345.757788m-15.971334 0a15.971334 15.971334 0 1 0 31.942667 0 15.971334 15.971334 0 1 0-31.942667 0Z" fill="#FFFFFF" p-id="1875"></path><path d="M751.623906 239.24626a275.505504 275.505504 0 0 1 114.173452 39.928334 130.2527 130.2527 0 0 1 23.849086 19.208766c2.050374 2.050374 4.100748 4.316577 6.043208 6.474865a14.028874 14.028874 0 0 0 1.618716 1.942459c-3.129518-2.913689-2.158288-2.69786-1.402888-1.72663a13.057644 13.057644 0 0 0 17.482136 4.532405 12.841815 12.841815 0 0 0 4.532405-17.374221 146.439862 146.439862 0 0 0-38.093789-34.316784 288.563148 288.563148 0 0 0-121.403717-43.165766 13.057644 13.057644 0 0 0-15.647591 8.848982 12.841815 12.841815 0 0 0 8.848982 15.64759z" fill="#FFFFFF" p-id="1876"></path><path d="M673.709698 230.613107a15.323847 15.323847 0 0 0-6.259036 0c-14.028874 2.482032-69.928541 13.597216-60.647902 26.223203 10.791442 14.352617 35.9355 43.165766 68.957312 37.87796a317.484211 317.484211 0 0 1 56.007582-3.345347 16.402991 16.402991 0 0 0 14.67636-24.496573c-7.33818-12.194329-26.439032-26.654861-72.734316-36.259243zM495.11134 177.519214a8.741068 8.741068 0 0 0-4.424491 0c-9.820212 2.589946-48.88523 13.597216-42.410366 26.223203 7.446095 14.460532 25.144059 43.165766 48.345659 37.87796a155.396759 155.396759 0 0 1 39.172933-2.805775c8.956897 0 14.676361-13.489302 10.791441-24.496572-5.719464-12.733901-19.100852-27.302347-51.475176-36.798816zM308.851058 233.742625a82.230785 82.230785 0 0 0-26.223203 27.949833 24.280744 24.280744 0 0 0 24.92823 34.316785l45.863627-5.503636a32.374325 32.374325 0 0 0 13.489302-4.856148c16.834649-10.791442 58.813357-42.194537 10.791442-49.640632l-47.1586-7.230265a29.460636 29.460636 0 0 0-21.690798 4.964063z" fill="#AF5D14" p-id="1877"></path><path d="M884.89821 263.527004a80.39624 80.39624 0 0 0-5.61155-17.482136c-1.402887-1.187059-3.129518-2.374117-4.640319-3.561176a290.289779 290.289779 0 0 0-83.633673-41.762879 793.278871 793.278871 0 0 0-243.562836-34.640527 819.070416 819.070416 0 0 0-227.483589 29.56855 354.930514 354.930514 0 0 0-83.957416 35.503843 177.4113 177.4113 0 0 0-20.827482 14.784275 67.662339 67.662339 0 0 0-6.043207 20.503739 10.791442 10.791442 0 0 0 0 1.72663c0 8.848982 14.244703 17.266307 39.280847 24.604487l5.935293 1.618716c57.626298 15.539676 161.871624 45.755712 284.354486 46.834857a44.460739 44.460739 0 0 1 35.395928 33.345554c9.712297 30.971437 29.784379 37.662131 47.806087 22.662028s-5.719464-43.165766 5.39572-60.216244a1281.159945 1281.159945 0 0 0 214.749688-43.165767l2.482032-0.647486c25.359888-6.906523 40.467906-15.000104 42.518279-23.525343a47.590257 47.590257 0 0 0-2.158288-6.151121z" fill="#F29600" opacity=".16" p-id="1878"></path><path d="M390.7581 10.791442S377.700456 95.504258 423.99574 123.130348a247.124012 247.124012 0 0 0 95.288429 31.187267S509.248128 18.885023 390.7581 10.791442zM649.213126 0s13.597216 83.957416-31.403095 112.66265a237.411715 237.411715 0 0 1-91.727254 33.669298S535.039674 10.791442 649.213126 0z" fill="#8DC21F" p-id="1879"></path><path d="M406.189861 143.20243v51.583091a10.791442 10.791442 0 0 0 4.424491 8.633153L464.031988 241.512463a10.791442 10.791442 0 0 0 9.604383 1.510802l57.302555-19.208767a10.791442 10.791442 0 0 0 7.230266-8.741067l5.287806-44.136996a10.791442 10.791442 0 0 0-8.201495-11.654757l-115.468425-26.439032a10.791442 10.791442 0 0 0-13.597217 10.359784z" fill="#F29600" p-id="1880"></path><path d="M410.07478 132.95056l67.986082-6.906522a3.66909 3.66909 0 0 1 1.94246 0l60.971645 37.985874a3.237432 3.237432 0 0 1-0.539572 5.719464L475.902574 194.245949a2.805775 2.805775 0 0 1-2.913689 0l-64.74865-54.604695a3.237432 3.237432 0 0 1 1.834545-6.690694z" fill="#F4C52F" p-id="1881"></path><path d="M561.047048 73.165974l-45.647798 53.417636 18.021708 74.029289 67.338595 27.302347 44.568654-41.223307-84.281159-113.525965z" fill="#F29600" p-id="1882"></path><path d="M561.047048 73.165974l60.324159 42.086622 23.957 71.439343-68.201911-26.223203-16.079248-87.302762z" fill="#F4C52F" p-id="1883"></path><path d="M597.845864 127.770668l-9.28064 69.712713 55.46801 52.230577 71.331429-13.813045 15.000104-58.813357-132.518903-49.316888z" fill="#F29600" p-id="1884"></path><path d="M597.845864 127.770668l73.489717 2.374118 59.029186 46.94277-71.547258 15.215933-60.971645-64.532821z" fill="#F4C52F" p-id="1885"></path></svg>