<?xml version="1.0" encoding="UTF-8"?><svg width="128px" height="128px" viewBox="0 0 128 128" version="1.1" xmlns="http://www.w3.org/2000/svg" xmlns:xlink="http://www.w3.org/1999/xlink"><title>briefcase-2-fill</title><g id="icons" stroke="none" stroke-width="1" fill-rule="evenodd"><g id="briefcase-2-fill" fill-rule="nonzero"><g id="形状"><path d="M37.3333333,26.6666667 L37.3333333,10.6666667 C37.3333333,7.721148 39.721148,5.33333333 42.6666667,5.33333333 L85.3333333,5.33333333 C88.278852,5.33333333 90.6666667,7.721148 90.6666667,10.6666667 L90.6666667,26.6666667 L112,26.6666667 C114.945519,26.6666667 117.333333,29.0544813 117.333333,32 L117.333333,106.666667 C117.333333,109.612185 114.945519,112 112,112 L16,112 C13.0544813,112 10.6666667,109.612185 10.6666667,106.666667 L10.6666667,32 C10.6666667,29.0544813 13.0544813,26.6666667 16,26.6666667 L37.3333333,26.6666667 Z M90.6666667,69.3333333 L90.6666667,53.3333333 L80,53.3333333 L80,69.3333333 L48,69.3333333 L48,53.3333333 L37.3333333,53.3333333 L37.3333333,69.3333333 L21.3333333,69.3333333 L21.3333333,101.333333 L106.666667,101.333333 L106.666667,69.3333333 L90.6666667,69.3333333 Z M48,16 L48,26.6666667 L80,26.6666667 L80,16 L48,16 Z"/></g></g></g></svg>