<?xml version="1.0" encoding="UTF-8"?>
<svg width="128px" height="128px" viewBox="0 0 128 128" version="1.1" xmlns="http://www.w3.org/2000/svg" xmlns:xlink="http://www.w3.org/1999/xlink">
    <title>code-box-fill</title>
    <g id="icons" stroke="none" stroke-width="1" fill="none" fill-rule="evenodd">
        <g id="code-box-fill" fill="#000000" fill-rule="nonzero">
            <g id="file-damage-fill">
                <path d="M16,74.6666667 L37.3333333,88 L53.3333333,69.3333333 L69.3333333,90.6666667 L80,77.3333333 L96,80 L80,64 L69.3333333,77.3333333 L53.3333333,50.6666667 L34.6666667,70.6666667 L16,53.3333333 L16,15.9573333 C16,13.0933333 18.384,10.6666667 21.3226667,10.6666667 L74.6666667,10.6666667 L74.6666667,42.6666667 C74.6666667,45.6121853 77.0544813,48 80,48 L112.000132,48 L112.000132,111.962667 C112.009936,113.377165 111.45754,114.737673 110.46434,115.744876 C109.47114,116.752078 108.118499,117.323466 106.704,117.333333 L21.296,117.333333 C18.3731815,117.333333 16.0029434,114.965484 16,112.042667 L16,74.6666667 Z M112,37.3333333 L85.3333333,37.3333333 L85.3333333,10.6826667 L112,37.3333333 Z" id="形状"></path>
            </g>
        </g>
    </g>
</svg>