<?xml version="1.0" encoding="UTF-8"?>
<svg width="128px" height="128px" viewBox="0 0 128 128" version="1.1" xmlns="http://www.w3.org/2000/svg" xmlns:xlink="http://www.w3.org/1999/xlink">
    <title>code-box-fill</title>
    <g id="icons" stroke="none" stroke-width="1" fill="none" fill-rule="evenodd">
        <g id="code-box-fill" fill="#000000" fill-rule="nonzero">
            <g id="形状">
                <path d="M16,16 L112,16 C114.945519,16 117.333333,18.3878147 117.333333,21.3333333 L117.333333,106.666667 C117.333333,109.612185 114.945519,112 112,112 L16,112 C13.0544813,112 10.6666667,109.612185 10.6666667,106.666667 L10.6666667,21.3333333 C10.6666667,18.3878147 13.0544813,16 16,16 Z M87.808,82.8586667 L106.666667,64 L87.808,45.1413333 L80.2666667,52.6933333 L91.584,64 L80.2666667,75.312 L87.808,82.8586667 L87.808,82.8586667 Z M36.416,64 L47.7333333,52.688 L40.192,45.1413333 L21.3333333,64 L40.192,82.8586667 L47.7333333,75.3066667 L36.416,64 Z M59.968,90.6666667 L79.3813333,37.3333333 L68.032,37.3333333 L48.6186667,90.6666667 L59.968,90.6666667 Z"></path>
            </g>
        </g>
    </g>
</svg>