<?xml version="1.0" encoding="UTF-8"?>
<svg width="128px" height="128px" viewBox="0 0 128 128" version="1.1" xmlns="http://www.w3.org/2000/svg" xmlns:xlink="http://www.w3.org/1999/xlink">
    <title>folder-zip-line</title>
    <g id="icons" stroke="none" stroke-width="1" fill="none" fill-rule="evenodd">
        <g id="folder-zip-line" fill="#000000" fill-rule="nonzero">
            <g id="形状">
                <path d="M55.5413333,16 L66.208,26.6666667 L112,26.6666667 C114.945519,26.6666667 117.333333,29.0544813 117.333333,32 L117.333333,106.666667 C117.333333,109.612185 114.945519,112 112,112 L16,112 C13.0544813,112 10.6666667,109.612185 10.6666667,106.666667 L10.6666667,21.3333333 C10.6666667,18.3878147 13.0544813,16 16,16 L55.5413333,16 Z M96,96 L74.6666667,96 L74.6666667,80 L85.3333333,80 L85.3333333,69.3333333 L74.6666667,69.3333333 L74.6666667,58.6666667 L85.3333333,58.6666667 L85.3333333,48 L74.6666667,48 L74.6666667,37.3333333 L61.792,37.3333333 L51.1253333,26.6666667 L21.3333333,26.6666667 L21.3333333,101.333333 L106.666667,101.333333 L106.666667,37.3333333 L85.3333333,37.3333333 L85.3333333,48 L96,48 L96,58.6666667 L85.3333333,58.6666667 L85.3333333,69.3333333 L96,69.3333333 L96,96 Z"></path>
            </g>
        </g>
    </g>
</svg>