<?xml version="1.0" encoding="UTF-8"?><svg width="128px" height="128px" viewBox="0 0 128 128" version="1.1" xmlns="http://www.w3.org/2000/svg" xmlns:xlink="http://www.w3.org/1999/xlink"><title>headphone-line</title><g id="icons" stroke="none" stroke-width="1" fill-rule="evenodd"><g id="headphone-line" fill-rule="nonzero"><g id="形状"><path d="M64,21.3333333 C40.4358507,21.3333333 21.3333333,40.4358507 21.3333333,64 L37.3333333,64 C43.2243707,64 48,68.7756293 48,74.6666667 L48,101.333333 C48,107.224371 43.2243707,112 37.3333333,112 L21.3333333,112 C15.442296,112 10.6666667,107.224371 10.6666667,101.333333 L10.6666667,64 C10.6666667,34.544 34.544,10.6666667 64,10.6666667 C93.456,10.6666667 117.333333,34.544 117.333333,64 L117.333333,101.333333 C117.333333,107.224371 112.557704,112 106.666667,112 L90.6666667,112 C84.7756293,112 80,107.224371 80,101.333333 L80,74.6666667 C80,68.7756293 84.7756293,64 90.6666667,64 L106.666667,64 C106.666667,40.4358507 87.5641493,21.3333333 64,21.3333333 Z M21.3333333,74.6666667 L21.3333333,101.333333 L37.3333333,101.333333 L37.3333333,74.6666667 L21.3333333,74.6666667 Z M90.6666667,74.6666667 L90.6666667,101.333333 L106.666667,101.333333 L106.666667,74.6666667 L90.6666667,74.6666667 Z"/></g></g></g></svg>