<?xml version="1.0" encoding="UTF-8"?><svg width="128px" height="128px" viewBox="0 0 128 128" version="1.1" xmlns="http://www.w3.org/2000/svg" xmlns:xlink="http://www.w3.org/1999/xlink"><title>list-unordered</title><g id="icons" stroke="none" stroke-width="1" fill-rule="evenodd"><g id="list-unordered" fill-rule="nonzero"><g id="形状"><path d="M42.6666667,21.3333333 L112,21.3333333 L112,32 L42.6666667,32 L42.6666667,21.3333333 Z M24,34.6666667 C19.581722,34.6666667 16,31.0849447 16,26.6666667 C16,22.2483887 19.581722,18.6666667 24,18.6666667 C28.4182779,18.6666667 32,22.2483887 32,26.6666667 C32,31.0849446 28.4182779,34.6666667 24,34.6666667 Z M24,72 C19.581722,72 16,68.418278 16,64 C16,59.581722 19.581722,56 24,56 C28.418278,56 32,59.581722 32,64 C32,68.418278 28.418278,72 24,72 Z M24,108.8 C19.581722,108.8 16,105.218278 16,100.8 C16,96.381722 19.581722,92.8 24,92.8 C28.418278,92.8 32,96.381722 32,100.8 C32,105.218278 28.418278,108.8 24,108.8 Z M42.6666667,58.6666667 L112,58.6666667 L112,69.3333333 L42.6666667,69.3333333 L42.6666667,58.6666667 Z M42.6666667,96 L112,96 L112,106.666667 L42.6666667,106.666667 L42.6666667,96 Z"/></g></g></g></svg>