<?xml version="1.0" encoding="UTF-8"?>
<svg width="128px" height="128px" viewBox="0 0 128 128" version="1.1" xmlns="http://www.w3.org/2000/svg" xmlns:xlink="http://www.w3.org/1999/xlink">
    <title>maximize</title>
    <g id="icons" stroke="none" stroke-width="1" fill="none" fill-rule="evenodd">
        <g id="maximize" fill="#000000" fill-rule="nonzero">
            <g id="形状">
                <path d="M120,80 L120,108 L116,112 L88,112 L88,104 L112,104 L112,80 L120,80 Z M16,80 L16,104 L40,104 L40,112 L12,112 L8,108 L8,80 L16,80 Z M104,32 L104,96 L24,96 L24,32 L104,32 Z M88,48 L40,48 L40,80 L88,80 L88,48 Z M40,16 L40,24 L16,24 L16,48 L8,48 L8,20 L12,16 L40,16 Z M116,16 L120,20 L120,48 L112,48 L112,24 L88,24 L88,16 L116,16 Z"></path>
            </g>
        </g>
    </g>
</svg>