<?xml version="1.0" encoding="UTF-8"?>
<svg width="128px" height="128px" viewBox="0 0 128 128" version="1.1" xmlns="http://www.w3.org/2000/svg" xmlns:xlink="http://www.w3.org/1999/xlink">
    <title>minimize</title>
    <g id="icons" stroke="none" stroke-width="1" fill="none" fill-rule="evenodd">
        <g id="minimize" fill="#000000" fill-rule="nonzero">
            <path d="M112,91.4285714 L112,98.2857143 L98.2857143,98.2857143 L98.2857143,112 L91.4285714,112 L91.4285714,94.8571429 L94.8571429,91.4285714 L112,91.4285714 Z M33.1428571,91.4285714 L36.5714286,94.8571429 L36.5714286,112 L29.7142857,112 L29.7142857,98.2857143 L16,98.2857143 L16,91.4285714 L33.1428571,91.4285714 Z M88,43.4285714 L91.4285714,46.8571429 L91.4285714,81.1428571 L88,84.5714286 L40,84.5714286 L36.5714286,81.1428571 L36.5714286,46.8571429 L40,43.4285714 L88,43.4285714 Z M77.7142857,57.1428571 L50.2857143,57.1428571 L50.2857143,70.8571429 L77.7142857,70.8571429 L77.7142857,57.1428571 Z M36.5714286,16 L36.5714286,33.1428571 L33.1428571,36.5714286 L16,36.5714286 L16,29.7142857 L29.7142857,29.7142857 L29.7142857,16 L36.5714286,16 Z M98.2857143,16 L98.2857143,29.7142857 L112,29.7142857 L112,36.5714286 L94.8571429,36.5714286 L91.4285714,33.1428571 L91.4285714,16 L98.2857143,16 Z" id="形状"></path>
        </g>
    </g>
</svg>