<?xml version="1.0" encoding="UTF-8"?>
<svg width="128px" height="128px" viewBox="0 0 128 128" version="1.1" xmlns="http://www.w3.org/2000/svg" xmlns:xlink="http://www.w3.org/1999/xlink">
    <title>printer-fill</title>
    <g id="icons" stroke="none" stroke-width="1" fill="none" fill-rule="evenodd">
        <g id="printer-fill" fill="#000000" fill-rule="nonzero">
            <g id="形状">
                <path d="M37.3333333,90.6666667 L90.6666667,90.6666667 L90.6666667,117.333333 L37.3333333,117.333333 L37.3333333,90.6666667 Z M101.333333,106.666667 L101.333333,80 L26.6666667,80 L26.6666667,106.666667 L16,106.666667 C13.0544813,106.666667 10.6666667,104.278852 10.6666667,101.333333 L10.6666667,48 C10.6666667,45.0544813 13.0544813,42.6666667 16,42.6666667 L112,42.6666667 C114.945519,42.6666667 117.333333,45.0544813 117.333333,48 L117.333333,101.333333 C117.333333,104.278852 114.945519,106.666667 112,106.666667 L101.333333,106.666667 Z M26.6666667,53.3333333 L26.6666667,64 L42.6666667,64 L42.6666667,53.3333333 L26.6666667,53.3333333 Z M37.3333333,10.6666667 L90.6666667,10.6666667 C93.6121853,10.6666667 96,13.0544813 96,16 L96,32 L32,32 L32,16 C32,13.0544813 34.3878147,10.6666667 37.3333333,10.6666667 Z"></path>
            </g>
        </g>
    </g>
</svg>