<?xml version="1.0" encoding="UTF-8"?>
<svg width="128px" height="128px" viewBox="0 0 128 128" version="1.1" xmlns="http://www.w3.org/2000/svg" xmlns:xlink="http://www.w3.org/1999/xlink">
    <title>refresh-line</title>
    <g id="icons" stroke="none" stroke-width="1" fill="none" fill-rule="evenodd">
        <g id="refresh-line" fill="#000000" fill-rule="nonzero">
            <g id="形状">
                <path d="M29.136,23.6426667 C38.8136485,15.2568554 51.1945952,10.6488023 64,10.6666149 C93.456,10.6666149 117.333333,34.544 117.333333,64 C117.333333,75.392 113.76,85.952 107.68,94.6133333 L90.6666667,64 L106.666667,64 C106.668071,46.9009844 96.4610499,31.4526634 80.7316248,24.7473279 C65.0021996,18.0419925 46.7888688,21.3749316 34.4533333,33.216 L29.136,23.6426667 Z M98.864,104.357333 C89.1863515,112.743145 76.8054048,117.351198 64,117.333385 C34.544,117.333385 10.6666667,93.456 10.6666667,64 C10.6666667,52.608 14.24,42.048 20.32,33.3866667 L37.3333333,64 L21.3333333,64 C21.331929,81.0990156 31.5389501,96.5473366 47.2683752,103.252672 C62.9978004,109.958008 81.2111312,106.625068 93.5466667,94.784 L98.864,104.357333 L98.864,104.357333 Z"></path>
            </g>
        </g>
    </g>
</svg>