<?xml version="1.0" encoding="UTF-8"?>
<svg width="128px" height="128px" viewBox="0 0 128 128" version="1.1" xmlns="http://www.w3.org/2000/svg" xmlns:xlink="http://www.w3.org/1999/xlink">
    <title>shield-keyhole-fill</title>
    <g id="icons" stroke="none" stroke-width="1" fill="none" fill-rule="evenodd">
        <g id="shield-keyhole-fill" fill="#000000" fill-rule="nonzero">
            <g id="形状">
                <path d="M64,5.33333333 L107.824,15.072 C110.263688,15.6143353 112,17.7780923 112,20.2773333 L112,73.5413333 C112,84.2402686 106.651625,94.2309906 97.7493333,100.165333 L64,122.666667 L30.2506667,100.165333 C21.3499472,94.2320389 16.0025601,84.2437122 16,73.5466667 L16,20.2773333 C16,17.7780923 17.7363118,15.6143353 20.176,15.072 L64,5.33333333 Z M64,37.3333322 C59.1723941,37.3333322 54.9467621,40.5761234 53.6972699,45.2392284 C52.4477776,49.9023335 54.4859599,54.823318 58.6666667,57.2373333 L58.6666667,80 L69.3333333,80 L69.3386667,57.2373333 C73.5202331,54.8228227 75.5582898,49.9004025 74.3073749,45.2366518 C73.05646,40.572901 68.8285975,37.3311306 64,37.3333322 Z"></path>
            </g>
        </g>
    </g>
</svg>