<?xml version="1.0" encoding="UTF-8"?>
<svg width="102px" height="102px" viewBox="0 0 102 102" version="1.1" xmlns="http://www.w3.org/2000/svg" xmlns:xlink="http://www.w3.org/1999/xlink">
    <title>alipay-logo</title>
    <g id="icons" stroke="none" stroke-width="1" fill="none" fill-rule="evenodd">
        <g id="alipay-logo" fill="#00A1E9" fill-rule="nonzero">
            <path d="M16.3392778,0 C7.3073368,0 0,7.24569567 0,16.1910697 L0,84.8619816 C0,93.8002816 7.3073368,101.050018 16.3392778,101.050018 L85.663653,101.050018 C94.6885204,101.050018 101.998889,93.8006183 101.998889,84.8619816 L101.998889,84.1593736 C101.695116,84.0338715 75.4905086,73.2054417 62.1713092,66.8604476 C53.1855147,77.8157265 41.5952986,84.4621893 29.5614682,84.4621893 C9.2124856,84.4621893 2.30227929,66.8186797 11.937495,55.2042112 C14.0384133,52.6725462 17.612184,50.2537213 23.1588751,48.8996376 C31.83579,46.7875698 45.6447502,50.2183872 58.587366,54.4496969 C60.9154134,50.200838 62.8739508,45.5215016 64.3327908,40.5393489 L24.4479493,40.5393489 L24.4479493,36.5373914 L45.0141917,36.5373914 L45.0141917,29.3617578 L20.104776,29.3617578 L20.104776,25.3564317 L45.0141917,25.3564317 L45.0141917,15.1202993 C45.0141917,15.1202993 45.0141984,13.3959981 46.7779701,13.3959981 L56.831874,13.3959981 L56.831874,25.356398 L81.4569992,25.356398 L81.4569992,29.361724 L56.831874,29.361724 L56.831874,36.5373576 L76.9322711,36.5373576 C75.0087984,44.3438866 72.0885583,51.5296253 68.422427,57.8375674 C74.5228776,60.0236717 79.9988327,62.0972052 84.0799476,63.451289 C97.6925313,67.9638911 101.507545,68.5152929 102,68.572892 L102,16.1914065 C102,7.24603251 94.6892951,0 85.6647646,0 L16.3403893,0 L16.3392778,0 Z" id="路径"></path>
            <path d="M27.5246163,54.749448 C26.6511649,54.7594722 25.7737726,54.8065889 24.8897781,54.8928662 C22.341709,55.1467368 17.5575155,56.2607941 14.9419779,58.5525977 C7.10243899,65.3260484 11.7945751,77.7088415 27.6616079,77.7088415 C36.8852089,77.7088415 46.1010629,71.8667446 53.3406955,62.5124508 C44.0072856,58.0005223 35.9680024,54.6523648 27.5245152,54.7493738 L27.5246163,54.749448 Z" id="路径"></path>
        </g>
    </g>
</svg>