<?xml version="1.0" standalone="no"?><!DOCTYPE svg PUBLIC "-//W3C//DTD SVG 1.1//EN" "http://www.w3.org/Graphics/SVG/1.1/DTD/svg11.dtd"><svg t="1628156548826" class="icon" viewBox="0 0 1024 1024" version="1.1" xmlns="http://www.w3.org/2000/svg" p-id="6432" xmlns:xlink="http://www.w3.org/1999/xlink" width="200" height="200"><path d="M883.275854 634.880009a113.80005 113.80005 0 0 0-24.002703 99.84103 236.622392 236.622392 0 0 0 16.25715 48.005407 150.825496 150.825496 0 0 0 29.705473 40.855665 221.301518 221.301518 0 0 0 22.215268-29.279894 67.411847 67.411847 0 0 0 10.384148-36.08917 95.84058 95.84058 0 0 0-10.639496-38.472418c-4.936726-10.639496-44.175188-56.431887-43.91984-84.86062z" fill="#3C3C3B" p-id="6433"></path><path d="M917.322242 816.177021a122.141415 122.141415 0 0 0 2.808827-19.321325 24.428283 24.428283 0 1 0-48.686334-4.085566c-6.639046 79.668546-144.101335 77.200183-145.548306 77.200183a24.428283 24.428283 0 0 0-1.191624 48.856566c7.490205 0.42558 166.486834 2.723711 192.617437-102.649858z" fill="#E2E2E2" p-id="6434"></path><path d="M747.856349 694.120723c0 181.041665 0 329.909494-327.866711 327.86671h-6.043234C85.994578 1044.458049 85.994578 875.162387 85.994578 694.120723v-5.362306A327.86671 327.86671 0 0 1 414.03152 360.891706h6.043234a327.86671 327.86671 0 0 1 327.781595 327.866711v5.362306z" fill="#D8D8D8" p-id="6435"></path><path d="M743.004738 766.043716c-8.511597 4.596262-20.68318 9.70322-25.53479 11.916235a226.919172 226.919172 0 0 1-51.750509 16.001803 324.547188 324.547188 0 0 1-103.501018 1.191623 313.141648 313.141648 0 0 0 96.947088-22.811079A198.320206 198.320206 0 0 0 700.361638 749.020522c5.27719-4.000451 37.706374-29.705473 47.494711-39.068229 0 38.557534 0 38.302186-0.766044 54.133756zM732.875938 869.800081c-8.511597 4.085566-21.193876 8.511597-26.215718 10.299033a226.32336 226.32336 0 0 1-52.686785 12.767395 324.29184 324.29184 0 0 1-103.330785-5.106958 313.482112 313.482112 0 0 0 98.138711-17.023194 339.782946 339.782946 0 0 0 42.557984-21.10876 207.682963 207.682963 0 0 0 52.431437-40.600317 165.720791 165.720791 0 0 1-5.787886 38.812882c0.085116 1.702319-4.340914 20.342716-5.106958 21.959919zM90.931304 766.043716c8.511597 4.596262 20.68318 9.70322 25.534791 11.916235a226.834056 226.834056 0 0 0 51.750509 16.001803 324.547188 324.547188 0 0 0 103.501017 1.191623 313.141648 313.141648 0 0 1-96.947088-22.811079A198.320206 198.320206 0 0 1 133.489288 749.020522C128.552562 744.679608 95.782914 719.059701 85.994578 709.696945c0 38.557534 0 38.302186 0.766044 54.133756zM99.953597 871.161937c8.511597 4.085566 21.874804 7.064625 26.896646 9.022293a226.32336 226.32336 0 0 0 52.7719 12.682279 324.29184 324.29184 0 0 0 103.330786-5.106958 313.482112 313.482112 0 0 1-98.138712-17.023194 339.782946 339.782946 0 0 1-42.557984-21.10876 207.682963 207.682963 0 0 1-52.601668-40.430085 346.677339 346.677339 0 0 0 6.553929 46.898898c0.255348 1.532087 3.319523 13.533439 3.745103 15.065527z" fill="#3C3C3B" p-id="6436"></path><path d="M381.9428 118.566544c-33.535692-52.261205 0-110.054947 0-110.054947s7.234857 10.639496 10.469264 9.788336c0 0 7.490205-12.256699 14.725063-14.725062a34.046387 34.046387 0 0 0 0 11.490655 68.688587 68.688587 0 0 1 25.53479-15.065526v15.065526A19.746905 19.746905 0 0 0 446.54582 6.043234v11.40554a27.322226 27.322226 0 0 0 10.894844-10.213917s34.727315 61.453729 0 111.331687M328.404856 166.316602A231.004738 231.004738 0 0 0 185.495145 26.471066s-47.409594 102.139162-3.489755 208.619239" fill="#4D4D4D" p-id="6437"></path><path d="M319.212332 189.893726a178.743534 178.743534 0 0 0-110.650759-108.437744s-36.770098 79.242967-2.723711 161.72034" fill="#F4A3A6" p-id="6438"></path><path d="M499.743301 149.208293a231.004738 231.004738 0 0 1 158.315701-122.226531s35.152895 106.990772-21.023644 207.597847" fill="#4D4D4D" p-id="6439"></path><path d="M506.041882 173.636576A178.743534 178.743534 0 0 1 628.779109 78.902503S656.271566 161.72034 612.521959 239.856799" fill="#F4A3A6" p-id="6440"></path><path d="M134.93626 390.001367c0-169.295661 144.186451-309.056081 282.074319-309.056081 132.355331 0 266.242749 131.844635 284.202219 300.289137s-46.132855 356.976372-284.202219 356.976371c-274.66923 0-282.074319-178.913766-282.074319-348.209427z" fill="#D8D8D8" p-id="6441"></path><path d="M283.548741 385.234873m-33.79104 0a33.791039 33.791039 0 1 0 67.582079 0 33.791039 33.791039 0 1 0-67.582079 0Z" fill="#434849" p-id="6442"></path><path d="M283.548741 378.680944a12.767395 12.767395 0 1 1 12.767395 12.767395 12.767395 12.767395 0 0 1-12.767395-12.767395z" fill="#FFFFFF" p-id="6443"></path><path d="M539.832922 379.021407m-33.705924 0a33.705923 33.705923 0 1 0 67.411847 0 33.705923 33.705923 0 1 0-67.411847 0Z" fill="#434849" p-id="6444"></path><path d="M539.832922 372.467478a12.767395 12.767395 0 1 1 12.767395 12.767395 12.767395 12.767395 0 0 1-12.767395-12.767395z" fill="#FFFFFF" p-id="6445"></path><path d="M655.079943 604.323376c0 73.965777-129.716736 139.930652-211.087602 139.930652h-71.242065c-81.370866 0-197.639279-65.964876-197.639279-139.930652 0-73.965777 65.964876-133.972534 147.335741-133.972534h185.212348c81.370866 0 147.335741 59.581178 147.335741 133.972534z" fill="#4D4D4D" p-id="6446"></path><path d="M362.451243 527.719004m-25.364558 0a25.364559 25.364559 0 1 0 50.729117 0 25.364559 25.364559 0 1 0-50.729117 0Z" fill="#333333" p-id="6447"></path><path d="M461.526231 527.719004m-25.364559 0a25.364559 25.364559 0 1 0 50.729117 0 25.364559 25.364559 0 1 0-50.729117 0Z" fill="#333333" p-id="6448"></path><path d="M151.448758 289.990104l75.838328 38.21707-85.115969-2.213015a142.058551 142.058551 0 0 1 9.277641-36.004055zM135.446956 374.510261l80.094126 4.766494-80.604822 33.450576A372.21213 372.21213 0 0 1 135.446956 374.510261zM135.78742 452.902068l97.372667-9.788336-94.904304 51.665392a269.051576 269.051576 0 0 1-2.468363-41.877056zM679.252878 289.990104l-78.732271 38.21707L690.317954 325.142999a333.56948 333.56948 0 0 0-11.065076-35.152895zM700.10629 372.467478l-87.839679 7.149741 91.074086 28.939429a177.637026 177.637026 0 0 0-3.234407-36.08917zM703.681161 451.79556L605.201985 443.113732l94.904305 49.792841a194.319756 194.319756 0 0 0 3.574871-41.111013z" fill="#333333" p-id="6449"></path><path d="M582.476022 149.378525c-10.809728-9.107409-23.832471-22.300384-36.770099-27.832922l-29.790588 109.714483zM245.842367 151.251076l66.475571 85.115968-28.769197-113.204238c-11.575772 4.511146-13.703671 10.043684-23.321776 16.512498-1.617203 0.766044-12.512047 10.469264-14.384598 11.575772z" fill="#3C3C3B" p-id="6450"></path></svg>