<?xml version="1.0" standalone="no"?><!DOCTYPE svg PUBLIC "-//W3C//DTD SVG 1.1//EN" "http://www.w3.org/Graphics/SVG/1.1/DTD/svg11.dtd"><svg t="1628156523587" class="icon" viewBox="0 0 1024 1024" version="1.1" xmlns="http://www.w3.org/2000/svg" p-id="4548" xmlns:xlink="http://www.w3.org/1999/xlink" width="200" height="200"><path d="M832.308507 169.099913m-81.260615 0a81.260616 81.260616 0 1 0 162.521231 0 81.260616 81.260616 0 1 0-162.521231 0Z" fill="#945328" p-id="4549"></path><path d="M879.159502 169.099913a46.859418 46.859418 0 1 1-93.718836 0.016847 46.859418 46.859418 0 0 1 93.718836-0.016847z" fill="#B57651" p-id="4550"></path><path d="M179.915568 169.099913m-81.260615 0a81.260616 81.260616 0 1 0 162.521231 0 81.260616 81.260616 0 1 0-162.521231 0Z" fill="#945328" p-id="4551"></path><path d="M226.766563 169.099913a46.867841 46.867841 0 0 1-46.850995 46.876265 46.859418 46.859418 0 1 1 46.850995-46.876265z" fill="#B57651" p-id="4552"></path><path d="M6.814537 488.658737l42.437129-16.95632-41.013573-20.165639 43.616406-13.64592-39.345738-23.265453 44.54298-10.23444-37.408354-26.238916 45.20843-6.738726-35.260385-29.069181 45.587483-3.175624-32.868137-31.730978 45.705411 0.37063L57.700344 273.592287l45.528519 3.933732-27.578237-36.439663 45.098926 7.404176-24.722702-38.43601 44.399782 10.824079-21.723968-40.204926 43.464784 14.142902-18.632578-41.729563 42.260237 17.377491-15.465377-43.001497 40.878799 20.468881-12.239212-44.029153 39.236234 23.450767-8.945659-44.820953 37.399931 26.272609-5.60999-45.351628 35.361466 28.959677-2.27432-45.654871 33.14611 31.469852 1.069773-45.688564 30.745439 33.803135 4.397018-45.494826 28.235264 35.934258 7.665301-45.048385 25.573466 37.880065L435.84397 5.222513l22.819011 39.606864L472.654262 1.314052l19.980323 41.114653L509.633022 0l16.745735 42.453976L546.493855 1.490943l13.266868 43.666947L583.034598 5.913232l9.855388 44.559828 26.171528-37.383084 6.528141 45.166313 28.824902-35.386737 3.318822 45.520096 31.21715-33.289307 0.160045 45.6296 33.398812-31.099222-2.880806 45.545366 35.39516-28.799631-5.896385 45.250547 37.223039-26.407384-8.861425 44.770413 38.874027-23.914055-11.784347 44.09654 40.373394-21.285951-14.690424 43.212082 41.704293-18.548344-17.579653 42.125463 42.875146-15.633845-20.460457 40.78614 43.869108-12.567724-23.315993 39.22781 44.669332-9.349982-26.188375 37.37466 45.25897-5.938502-28.9681 35.251962 45.570637-2.375401-31.680437 32.85129 45.60433 1.297205-34.266423 30.13053 45.334781 5.138279-36.717635 27.081256 44.736719 9.004623-38.924567 23.821398 43.77645 12.862543-40.870375 20.31726 42.48767 16.678348-42.437129 17.242716 41.038843 20.325683-43.599559 14.041821 39.387855 23.35811-44.542981 10.689304 37.509435 26.281033-45.225276 7.277824 35.386736 29.069181-45.638024 3.765263 33.053453 31.714131-45.798069 0.269549 30.52643 34.148495-45.680141-3.259859 27.814093 36.389122-45.301087-6.755573 24.933287 38.419163-44.652485-10.200747 21.926131 40.21335-43.734334-13.612228 18.775776 41.77168-42.571903-16.914203 15.515917 43.102578-41.139924-20.131945 12.171824 44.155504-39.480512-23.206488 8.777191 44.947304-37.610516-26.137835 5.34044 45.486403-35.513087-28.909136 1.895266 45.764375-33.255614-31.503545-1.516213 45.781221-30.829673-33.878946-4.885577 45.536943-28.268956-36.035339-8.179129 45.065232-25.598737-37.981146-11.3716 44.366089-22.877976-39.682674-14.412451 43.473208-20.123521-41.156771-17.335374 42.403435-17.175328-42.386588-19.845549 41.207311-14.370334-43.414244-22.532616 39.800602-11.438988-44.273432-25.18599 38.166461-8.33075-44.964151-27.814093 36.304888-5.087738-45.444285-30.366385 34.207459-1.760493-45.705411-32.792326 31.874175 1.642564-45.696987-35.10034 29.305036 5.104585-45.444286-37.22304 26.550582 8.566606-44.922034-39.168846 23.593965 12.037049-44.113387-40.887221 20.477305 15.440106-43.035191-42.361318 17.209022 18.767353-41.704292-43.582712 13.831235 21.985094-40.095421-44.534557 10.369215 25.076485-38.233848-45.20843 6.84823 27.982561-36.170113-45.60433 3.285129 30.737015-33.8621-45.730681-0.269549 33.264037-31.377194-45.562213-3.798957 35.588898-28.723821-45.157889-7.286247 37.661056-25.960943-44.46717-10.647188 39.49736-23.063291-43.557442-13.923893 41.08096-20.098251z" fill="#603813" p-id="4553"></path><path d="M272.564632 919.937219c-56.933814-47.777569-69.097215-165.789514-69.737394-287.954197-0.707566-137.13308 17.394337-279.497096 86.946416-333.651186 131.506244-102.386523 228.038498 25.590313 228.038497 25.590313s96.540677-127.976836 228.046921-25.590313c73.300495 57.077012 87.283352 197.562608 86.415742 333.651186-0.699143 108.038629-3.874768 213.305957-43.127849 271.848641-35.412007 52.79792-309.139068 190.192126-516.582333 16.105556z" fill="#945328" p-id="4554"></path><path d="M649.234161 851.438067c-39.160423 40.095421-58.938585 114.701545-22.229373 150.543145 36.675518 35.858447 115.973479 19.365415 155.125479-20.730007 39.168847-40.095421 59.115476-76.914137 4.464406-137.512133-46.32032-51.332248-98.200089-32.40485-137.360512 7.698995z" fill="#824420" p-id="4555"></path><path d="M641.366698 860.248951c-35.403583 36.254347-50.692069 106.269714-13.982857 142.111314 36.700788 35.8416 111.47538 23.964595 146.887386-12.281328 35.412007-36.245924 52.646299-70.318609-2.32486-130.545975-46.615139-51.054275-95.159239-35.529934-130.579669 0.715989z" fill="#75391B" p-id="4556"></path><path d="M387.973743 851.438067c39.168847 40.095421 58.938585 114.701545 22.237796 150.543145-36.683941 35.858447-115.973479 19.365415-155.133902-20.730007-39.168847-40.095421-59.115476-76.914137-4.455983-137.512133 46.303473-51.332248 98.191665-32.40485 137.352089 7.698995z" fill="#824420" p-id="4557"></path><path d="M395.841206 860.248951c35.412007 36.254347 50.683645 106.269714 13.982857 142.111314-36.692365 35.8416-111.47538 23.964595-146.887387-12.281328-35.412007-36.245924-52.646299-70.318609 2.324861-130.545975 46.615139-51.054275 95.150815-35.529934 130.579669 0.715989z" fill="#75391B" p-id="4558"></path><path d="M386.853429 464.079233m-29.658819 0a29.658819 29.658819 0 1 0 59.317638 0 29.658819 29.658819 0 1 0-59.317638 0Z" fill="#1A1A1A" p-id="4559"></path><path d="M386.853429 458.359739a11.203132 11.203132 0 1 1 22.397842 0 11.203132 11.203132 0 1 1-22.397842 0z" fill="#FFFFFF" p-id="4560"></path><path d="M626.802626 464.079233m-29.658819 0a29.658819 29.658819 0 1 0 59.317638 0 29.658819 29.658819 0 1 0-59.317638 0Z" fill="#1A1A1A" p-id="4561"></path><path d="M626.811049 458.359739a11.203132 11.203132 0 1 1 22.389418 0 11.203132 11.203132 0 1 1-22.389418 0z" fill="#FFFFFF" p-id="4562"></path><path d="M559.364822 434.420414c-34.468585 28.538506-18.952668 140.030732-18.952667 140.030732h-56.832733s9.105704-111.492226-25.362881-140.030732h101.148281z" fill="#A35E37" p-id="4563"></path><path d="M511.991577 604.817531m-41.628482 0a41.628482 41.628482 0 1 0 83.256963 0 41.628482 41.628482 0 1 0-83.256963 0Z" fill="#1A1A1A" p-id="4564"></path></svg>