<?xml version="1.0" standalone="no"?><!DOCTYPE svg PUBLIC "-//W3C//DTD SVG 1.1//EN" "http://www.w3.org/Graphics/SVG/1.1/DTD/svg11.dtd"><svg t="1628156514998" class="icon" viewBox="0 0 1024 1024" version="1.1" xmlns="http://www.w3.org/2000/svg" p-id="3924" xmlns:xlink="http://www.w3.org/1999/xlink" width="200" height="200"><path d="M578.064871 56.839889C660.64471 59.457884 718.452597 0.273999 792.774452 0.273999S1024 283.799446 1024 314.081387c0 107.35579-112.89578 77.147849-165.161677 181.677645-33.031935 66.063871-99.095806 99.095806-115.613775 99.095806L528.516968 314.081387 578.064871 56.839889M445.935129 56.839889C363.35529 59.457884 305.547403 0.273999 231.225548 0.273999S0 283.801446 0 314.081387c0 107.35579 112.89578 77.147849 165.161677 181.677645 33.031935 66.063871 99.095806 99.095806 115.613775 99.095806l214.70958-280.773451L445.935129 56.839889" fill="#937E6D" p-id="3925"></path><path d="M297.289419 248.017516s-16.515968 198.193613 115.613775 264.257483V248.017516h-115.613775zM726.710581 248.017516s16.515968 198.193613-115.613775 264.257483V248.017516h115.613775z" fill="#877364" p-id="3926"></path><path d="M364.105289 721.532591c3.297994-27.217947 16.475968-78.073848 65.315872-143.193721l-49.547903-49.547903c-11.875977 26.123949-42.891916 139.661727-27.591946 193.913621 1.779997 6.319988 11.031978 5.34599 11.823977-1.171997zM645.414739 528.790967l-49.547903 49.547903c48.813905 65.083873 62.005879 115.919774 65.311873 143.149721 0.791998 6.527987 10.05998 7.503985 11.841977 1.173998 15.26997-54.267894-15.733969-167.755672-27.605947-193.871622z" fill="#FFEBD2" p-id="3927"></path><path d="M743.226548 231.501548c0-33.031935 16.515968-181.677645-231.225548-181.677645s-231.225548 148.64571-231.225548 181.677645 82.579839 33.031935 99.095806 74.321855v115.245775c0 18.415964-16.515968 107.72179-16.515968 107.721789l67.399869 67.399869c9.073982 126.345753 16.269968 337.251341 48.211906 395.049228 21.677958 39.225923 77.667848 52.883897 148.645709-16.515968 29.003943-28.357945 46.15191-60.571882 56.935889-81.72984 4.92999-9.673981 0.989998-21.435958-8.719983-26.291949-8.639983-4.317992-19.083963-1.749997-24.659952 6.137988-19.431962 27.489946-62.821877 85.303833-73.101857 68.853866-8.911983-14.259972 9.863981-274.573464 15.16397-345.487325l67.415869-67.415869s-16.515968-89.307826-16.515968-107.721789v-115.245775c16.513968-41.289919 99.095806-41.289919 99.095806-74.321855z" fill="#9F8976" p-id="3928"></path><path d="M355.097306 305.817403m-24.773951 0a24.773952 24.773952 0 1 0 49.547903 0 24.773952 24.773952 0 1 0-49.547903 0Z" fill="#464655" p-id="3929"></path><path d="M668.902694 305.817403m-24.773952 0a24.773952 24.773952 0 1 0 49.547903 0 24.773952 24.773952 0 1 0-49.547903 0Z" fill="#464655" p-id="3930"></path></svg>