
<svg width="128px" height="128px" viewBox="0 0 128 128" version="1.1" xmlns="http://www.w3.org/2000/svg" xmlns:xlink="http://www.w3.org/1999/xlink">

    <g id="icons" stroke="none" stroke-width="1" fill="none" fill-rule="evenodd">
        <g id="file-excel-2-line" fill="#000000" fill-rule="nonzero">
            <g id="形状">
                <path d="M15.248,15.344 L82.288,5.77066667 C83.0535409,5.66084701 83.8290512,5.88878643 84.4134168,6.39537308 C84.9977824,6.90195973 85.3333334,7.63728889 85.3333334,8.41066667 L85.3333334,119.589333 C85.3333334,120.361638 84.9982802,121.095961 84.4151644,121.602351 C83.8320486,122.108741 83.0580322,122.337456 82.2933333,122.229333 L15.2426667,112.656 C12.614213,112.281648 10.6613333,110.030978 10.6613333,107.376 L10.6613333,20.624 C10.6613333,17.969022 12.614213,15.7183519 15.2426667,15.344 L15.248,15.344 Z M21.3333333,25.2533333 L21.3333333,102.746667 L74.6666667,110.368 L74.6666667,17.632 L21.3333333,25.2533333 Z M90.6666667,101.333333 L106.666667,101.333333 L106.666667,26.6666667 L90.6666667,26.6666667 L90.6666667,16 L112,16 C114.945519,16 117.333333,18.3878147 117.333333,21.3333333 L117.333333,106.666667 C117.333333,109.612185 114.945519,112 112,112 L90.6666667,112 L90.6666667,101.333333 Z M54.4,64 L69.3333333,85.3333333 L56.5333333,85.3333333 L48,73.1413333 L39.4666667,85.3333333 L26.6666667,85.3333333 L41.6,64 L26.6666667,42.6666667 L39.4666667,42.6666667 L48,54.8586667 L56.5333333,42.6666667 L69.3333333,42.6666667 L54.4,64 Z"></path>
            </g>
        </g>
    </g>
</svg>
