<?xml version="1.0" encoding="UTF-8"?>
<svg width="116px" height="114px" viewBox="0 0 116 114" version="1.1" xmlns="http://www.w3.org/2000/svg" xmlns:xlink="http://www.w3.org/1999/xlink">
    <title>Octicons-mark-github</title>
    <g id="icons" stroke="none" stroke-width="1" fill="none" fill-rule="evenodd">
        <g id="Octicons-mark-github" fill="#1B1F23">
            <path d="M58,0 C25.955,0 0,25.955 0,58 C0,83.665 16.6025,105.3425 39.6575,113.0275 C42.5575,113.535 43.645,111.795 43.645,110.2725 C43.645,108.895 43.5725,104.3275 43.5725,99.47 C29,102.1525 25.23,95.9175 24.07,92.655 C23.4175,90.9875 20.59,85.84 18.125,84.4625 C16.095,83.375 13.195,80.6925 18.0525,80.62 C22.62,80.5475 25.8825,84.825 26.97,86.565 C32.19,95.3375 40.5275,92.8725 43.8625,91.35 C44.37,87.58 45.8925,85.0425 47.56,83.5925 C34.655,82.1425 21.17,77.14 21.17,54.955 C21.17,48.6475 23.4175,43.4275 27.115,39.3675 C26.535,37.9175 24.505,31.9725 27.695,23.9975 C27.695,23.9975 32.5525,22.475 43.645,29.9425 C48.285,28.6375 53.215,27.985 58.145,27.985 C63.075,27.985 68.005,28.6375 72.645,29.9425 C83.7375,22.4025 88.595,23.9975 88.595,23.9975 C91.785,31.9725 89.755,37.9175 89.175,39.3675 C92.8725,43.4275 95.12,48.575 95.12,54.955 C95.12,77.2125 81.5625,82.1425 68.6575,83.5925 C70.76,85.405 72.5725,88.885 72.5725,94.3225 C72.5725,102.08 72.5,108.315 72.5,110.2725 C72.5,111.795 73.5875,113.6075 76.4875,113.0275 C99.3975,105.3425 116,83.5925 116,58 C116,25.955 90.045,0 58,0 Z" id="路径"></path>
        </g>
    </g>
</svg>