<?xml version="1.0" standalone="no"?><!DOCTYPE svg PUBLIC "-//W3C//DTD SVG 1.1//EN" "http://www.w3.org/Graphics/SVG/1.1/DTD/svg11.dtd"><svg t="1628156510215" class="icon" viewBox="0 0 1024 1024" version="1.1" xmlns="http://www.w3.org/2000/svg" p-id="3613" xmlns:xlink="http://www.w3.org/1999/xlink" width="200" height="200"><path d="M662.52058 983.166h-1.916l-19.214-100.37-21.722 4.158 18.422 96.212a17.34 17.34 0 0 0-17.34 17.34v4.774h87.232c0-12.216-9.9-22.116-22.116-22.116l-23.346 0.002z" fill="#FED159" p-id="3614"></path><path d="M698.10258 232.672c0.27 0.712 0.54 1.426 0.81 2.162l-1.646 0.59a55.664 55.664 0 0 1-16.784 2.58c-30.864 0-55.902-25.014-55.902-55.878 0-26.538 18.504-48.728 43.296-54.452a55.572 55.572 0 0 1-4.374-21.722c0-30.864 25.014-55.878 55.878-55.878a55.61 55.61 0 0 1 34.45 11.894C759.55658 37.198 781.74458 18.72 808.25858 18.72c30.864 0 55.878 25.04 55.878 55.902a55.61 55.61 0 0 1-16.144 39.292c-19.806-13.392-16.71 40.422-41.724 43.616-20.15 2.58-33.616 18.748-47.916 30.716-32.656 27.298 6.144 35.628-60.25 44.426z" fill="#EE4948" p-id="3615"></path><path d="M997.47058 159.986l-80.82 39.882-25.064 12.36c1.942-13.318-56.934-17.372-60.744-31.354-3.71-13.638 47.99-35.9 39.512-46.418 0.002-0.002 68.142-11.33 127.116 25.53z" fill="#FED159" p-id="3616"></path><path d="M989.80258 243.828c20.64 12.384 21.304 42.092 1.204 55.386a44.722 44.722 0 0 1-24.67 7.42c-9.656 0-19.264-3.12-27.152-9.166-4.718-5.308-53.79 33.738-58.826 28.75-13.54-13.514-29.02-12.704-44.6-23.712 5.43-10.174-6.586-109.986-4.914-121.634l85.808 18.994 73.15 43.962z" fill="#EE4948" p-id="3617"></path><path d="M750.41658 853.498s-73.514 36.98-95.39 81.326c-5.134 10.406-19.302 12.274-26.916 3.518-18.144-20.864-38.648-54.846-18.592-87.422v-0.024c40.716-91.34 186.924-80.282 140.898 2.602z" fill="#E6E6E6" p-id="3618"></path><path d="M190.43258 251.838c102.418 2.702 183.262 87.946 180.56 190.364a184.962 184.962 0 0 1-16.07 70.842c-26.146-67.82-91.066-116.744-168.248-118.784-77.182-2.04-144.584 43.396-174.294 109.742-8.552-22.19-12.974-46.368-12.31-71.604 2.702-102.42 87.944-183.262 190.362-180.56z" fill="#EE4948" p-id="3619"></path><path d="M362.29458 504.444c-72.662 1.818-140.556 46.492-168.42 118.514-27.89 71.998-7.764 150.752 44.722 201.028a184.968 184.968 0 0 1-71.556-12.482C71.47858 774.522 24.00458 667.066 61.01058 571.528c36.982-95.562 144.438-143.036 239.976-106.056 23.54 9.116 44.156 22.532 61.308 38.972z" fill="#EE4948" p-id="3620"></path><path d="M347.83258 502.32c0.348-6.216 6.48-10.462 12.432-8.638 32.34 9.922 130.574 32.052 264.118-11.798 135.91-44.624 93.474-195.696 74.528-247.052-0.27-0.738-0.54-1.45-0.81-2.162-14.99-39.832-4.374-85.414 28.284-112.714 14.302-11.966 32.14-20.15 52.29-22.73 25.014-3.194 49.514 3.292 69.32 16.684a101.52 101.52 0 0 1 22.362 20.542 99.75 99.75 0 0 1 18.65 36.466c3.808 13.982 4.522 27.988 2.58 41.306a100.214 100.214 0 0 1-10.788 32.976 337.972 337.972 0 0 1 43.764 36.81l7.864 9.092a44.428 44.428 0 0 0 6.758 6.364c38.358 43.296 66.076 96.988 78.214 157.78 36.662 183.704-82.956 362.322-266.98 398.248-48.064 9.386-95.882 7.962-140.9-2.604-123.796-28.946-226.436-126.818-254.646-258.454-6.494-30.362-8.698-60.594-7.04-90.116z" fill="#F2F2F2" p-id="3621"></path><path d="M1017.39858 455.25c-12.138-60.792-39.856-114.484-78.214-157.78a44.522 44.522 0 0 1-6.758-6.364l-7.864-9.092a337.996 337.996 0 0 0-43.764-36.81 100.322 100.322 0 0 0 10.788-32.976c1.942-13.318 1.228-27.324-2.58-41.306a99.78 99.78 0 0 0-18.65-36.466 101.428 101.428 0 0 0-22.362-20.542c-19.806-13.392-44.304-19.88-69.32-16.684a103.72 103.72 0 0 0-15.088 3.094 102.348 102.348 0 0 1 29.124 13.592 101.52 101.52 0 0 1 22.362 20.542 99.75 99.75 0 0 1 18.65 36.466c3.808 13.982 4.522 27.988 2.58 41.306a98.932 98.932 0 0 1-0.632 3.862c-3.47 18.912 2.942 38.148 17.418 50.798a335.768 335.768 0 0 1 16.19 15.122l7.864 9.092a44.428 44.428 0 0 0 6.758 6.364c38.358 43.296 66.076 96.988 78.214 157.78 36.662 183.704-82.956 362.322-266.98 398.248a337.33 337.33 0 0 1-36.716 5.094 335.146 335.146 0 0 0 92.002-5.094c184.02-35.926 303.638-214.542 266.978-398.246z" fill="#E6E6E6" p-id="3622"></path><path d="M746.74858 541.818c99.22-77.356 225.224 58.562 139.016 150.194a172.788 172.788 0 0 1-3.544 3.654c-58.974 58.974-264.794 91.292-410.362-27.03 0 0 159.722-24.572 216.238-81.09l58.652-45.728z" fill="#EE4948" p-id="3623"></path><path d="M825.88658 183.334m-18.43 0a18.43 18.43 0 1 0 36.86 0 18.43 18.43 0 1 0-36.86 0Z" fill="#4D4D4D" p-id="3624"></path></svg>