<?xml version="1.0" encoding="UTF-8"?>
<svg width="108px" height="110px" viewBox="0 0 108 110" version="1.1" xmlns="http://www.w3.org/2000/svg" xmlns:xlink="http://www.w3.org/1999/xlink">
    <title>google-logo</title>
    <g id="icons" stroke="none" stroke-width="1" fill="none" fill-rule="evenodd">
        <g id="google-logo" fill-rule="nonzero">
            <path d="M107.6625,56.2375 C107.6625,52.6166667 107.341667,49.1791667 106.791667,45.8333333 L55,45.8333333 L55,66.5041667 L84.6541667,66.5041667 C83.325,73.2875 79.4291667,79.0166667 73.6541667,82.9125 L73.6541667,96.6625 L91.3458333,96.6625 C101.704167,87.0833333 107.6625,72.9666667 107.6625,56.2375 Z" id="路径" fill="#4285F4"></path>
            <path d="M55,110 C69.85,110 82.2708333,105.05 91.3458333,96.6625 L73.6541667,82.9125 C68.7041667,86.2125 62.425,88.2291667 55,88.2291667 C40.6541667,88.2291667 28.5083333,78.5583333 24.1541667,65.4958333 L5.9125,65.4958333 L5.9125,79.6583333 C14.9416667,97.625 33.5041667,110 55,110 Z" id="路径" fill="#34A853"></path>
            <path d="M24.1541667,65.4958333 C23.0083333,62.1958333 22.4125,58.6666667 22.4125,55 C22.4125,51.3333333 23.0541667,47.8041667 24.1541667,44.5041667 L24.1541667,30.3416667 L5.9125,30.3416667 C2.15416667,37.7666667 0,46.1083333 0,55 C0,63.8916667 2.15416667,72.2333333 5.9125,79.6583333 L24.1541667,65.4958333 Z" id="路径" fill="#FBBC05"></path>
            <path d="M55,21.7708333 C63.1125,21.7708333 70.3541667,24.5666667 76.0833333,30.0208333 L91.7583333,14.3458333 C82.2708333,5.45416667 69.85,0 55,0 C33.5041667,0 14.9416667,12.375 5.9125,30.3416667 L24.1541667,44.5041667 C28.5083333,31.4416667 40.6541667,21.7708333 55,21.7708333 Z" id="路径" fill="#EA4335"></path>
        </g>
    </g>
</svg>