<?xml version="1.0" standalone="no"?><!DOCTYPE svg PUBLIC "-//W3C//DTD SVG 1.1//EN" "http://www.w3.org/Graphics/SVG/1.1/DTD/svg11.dtd"><svg t="1628156518865" class="icon" viewBox="0 0 1024 1024" version="1.1" xmlns="http://www.w3.org/2000/svg" p-id="4228" xmlns:xlink="http://www.w3.org/1999/xlink" width="200" height="200"><path d="M902.649085 642.369133c0 170.339079 0 310.334067-377.924287 308.43312h-6.902037c-377.906521 21.159141-377.906521-138.094041-377.90652-308.43312v-5.027739c0-170.339079 169.193181-308.424237 377.90652-308.424236h6.902037c208.71334 0 377.924286 138.085158 377.924287 308.424236v5.027739z" fill="#898179" p-id="4229"></path><path d="M668.495032 792.952574c-40.985842 68.700586-43.553009 178.85781 19.33814 216.361543 62.882266 37.539265 167.434361-11.796532 208.420202-80.488235 40.985842-68.718352 56.397727-126.475167-39.662285-192.350981-81.403177-55.811454-147.101332-12.231796-188.096057 56.477673z" fill="#938B82" p-id="4230"></path><path d="M660.527043 807.813717c-37.059587 62.127217-34.918801 164.387515 27.963465 201.900132 62.891149 37.521499 162.726407-3.899607 199.785995-66.035707 37.06847-62.109451 49.637817-115.149431-46.76863-180.421205-81.714079-55.305127-143.91236-17.570437-180.98083 44.55678z" fill="#7A7169" p-id="4231"></path><path d="M355.504968 792.952574c40.976959 68.700586 43.544126 178.85781-19.347023 216.361543-62.873383 37.539265-167.425478-11.796532-208.420202-80.488235-40.976959-68.718352-56.388844-126.475167 39.662285-192.350981 81.403177-55.811454 147.110215-12.231796 188.10494 56.477673z" fill="#938B82" p-id="4232"></path><path d="M363.464074 807.813717c37.059587 62.127217 34.927683 164.387515-27.963465 201.900132-62.891149 37.521499-162.717524-3.899607-199.777112-66.035707-37.077353-62.109451-49.637817-115.149431 46.759747-180.421205 81.705197-55.305127 143.903477-17.570437 180.98083 44.55678z" fill="#7A7169" p-id="4233"></path><path d="M755.441157 94.958529m-66.62198 0a66.62198 66.62198 0 1 0 133.24396 0 66.62198 66.62198 0 1 0-133.24396 0Z" fill="#938B82" p-id="4234"></path><path d="M755.441157 94.958529m-38.409792 0a38.409792 38.409792 0 1 0 76.819584 0 38.409792 38.409792 0 1 0-76.819584 0Z" fill="#595048" p-id="4235"></path><path d="M280.204365 94.958529m-66.62198 0a66.62198 66.62198 0 1 0 133.24396 0 66.62198 66.62198 0 1 0-133.24396 0Z" fill="#938B82" p-id="4236"></path><path d="M280.204365 94.958529m-38.409792 0a38.409792 38.409792 0 1 0 76.819584 0 38.409792 38.409792 0 1 0-76.819584 0Z" fill="#595048" p-id="4237"></path><path d="M187.253378 304.053835a326.687542 304.053835 0 1 0 653.375084 0 326.687542 304.053835 0 1 0-653.375084 0Z" fill="#938B82" p-id="4238"></path><path d="M374.034762 246.074946m-36.18906 0a36.18906 36.18906 0 1 0 72.37812 0 36.18906 36.18906 0 1 0-72.37812 0Z" fill="#434849" p-id="4239"></path><path d="M375.562626 239.101845a13.661947 13.661947 0 1 1 27.323895 0 13.661947 13.661947 0 1 1-27.323895 0z" fill="#FFFFFF" p-id="4240"></path><path d="M653.864845 246.074946m-36.18906 0a36.18906 36.18906 0 1 0 72.378119 0 36.18906 36.18906 0 1 0-72.378119 0Z" fill="#434849" p-id="4241"></path><path d="M655.374943 239.101845a13.67083 13.67083 0 1 1 27.341661 0 13.661947 13.661947 0 1 1-27.341661 0z" fill="#FFFFFF" p-id="4242"></path><path d="M822.063137 469.693843c0 94.514383-88.731595 171.120777-198.187066 171.120777H421.300836c-109.446589 0-198.169301-76.606394-198.169301-171.120777 0-94.5055 88.722712-171.120777 198.169301-171.120777h202.584118c109.446589 0 198.178184 76.615277 198.178183 171.120777z" fill="#B7B1AB" p-id="4243"></path><path d="M226.027371 498.741027s301.602146 107.29692 594.596732-8.45655c0 0 3.570938 127.958617-180.003708 150.52126H387.838836c0 0.008883-143.272789-26.55108-161.811465-142.06471z" fill="#AFA7A0" p-id="4244"></path><path d="M435.77113 398.870237m-26.480016 0a26.480016 26.480016 0 1 0 52.960033 0 26.480016 26.480016 0 1 0-52.960033 0Z" fill="#595048" p-id="4245"></path><path d="M592.11071 398.870237m-26.480016 0a26.480016 26.480016 0 1 0 52.960033 0 26.480016 26.480016 0 1 0-52.960033 0Z" fill="#595048" p-id="4246"></path><path d="M624.249154 384.231167l2.718177 3.384397c0.950474 1.012654 1.669991 2.522752 2.48722 4.361519l1.314674 2.931367 0.692868 3.437694c0.683986 2.407274 0.470795 5.06327 0.470796 7.914691a33.346522 33.346522 0 0 1-1.84765 8.705272c-1.154781 2.886952-2.416157 5.862734-4.468114 8.447667-1.652225 2.869187-4.388168 4.894495-6.635549 7.328418-3.073494 1.900947-4.974441 3.784128-8.367721 5.027739-3.055728 1.581162-6.226934 2.229616-9.27378 2.78924a33.755137 33.755137 0 0 1-8.909579 0.115478c-2.780357-0.559625-5.436354-0.87941-7.665969-2.016425l-3.224504-1.359088-2.584933-1.838767c-1.616693-1.128132-2.966899-2.140786-3.81966-3.30445l-2.78924-3.331099 3.36663 2.691528c0.959357 0.968239 2.42504 1.723289 4.112797 2.540518 0.834995 0.408615 1.69664 0.852761 2.638231 1.323557l3.126791 0.923824c2.096372 0.861644 4.592475 0.87941 7.124111 1.145899 2.540518 0.017766 5.267578-0.204307 7.959106-0.728401l4.095031-1.074834c1.341323-0.408615 2.531635-1.145898 3.855192-1.661108 2.513869-0.755049 5.30311-3.295567 7.559374-4.663539 1.998659-2.158552 4.521412-3.881841 5.987095-6.431242 1.856533-2.265147 3.15344-4.796783 4.299338-7.337301 1.039303-2.540518 1.803235-5.169866 2.282914-7.665969 0.222073-2.531635 0.692869-4.983324 0.257605-7.221822l-0.284254-3.24227a189.828229 189.828229 0 0 1-0.763932-2.780357c-0.453029-1.785469-0.914942-3.39328-1.69664-4.556944l-2.016425-3.855192zM405.258263 384.231167l-1.989776 3.855192c-0.790581 1.163664-1.252493 2.771474-1.687757 4.556944-0.239839 0.87941-0.506327 1.803235-0.763932 2.780357-0.106595 1.03042-0.186542 2.114138-0.293137 3.24227-0.435264 2.238499 0.035532 4.681304 0.257605 7.221822 0.470795 2.496104 1.24361 5.125451 2.282913 7.665969 1.137015 2.540518 2.451689 5.072153 4.299339 7.337301 1.465684 2.549401 3.988436 4.263807 5.987095 6.431242 2.265147 1.367971 5.045505 3.90849 7.57714 4.663539 1.305791 0.51521 2.496104 1.252493 3.855192 1.661108l4.077265 1.074834c2.700411 0.524093 5.427471 0.746166 7.959106 0.728401 2.531635-0.266488 5.018856-0.284254 7.132993-1.145899l3.126792-0.923824 2.620465-1.323557c1.687757-0.81723 3.15344-1.572279 4.112796-2.540518l3.384397-2.691528-2.807006 3.331099c-0.834995 1.163664-2.185201 2.176318-3.81966 3.30445l-2.567167 1.838767-3.24227 1.359088c-2.220733 1.137015-4.876729 1.447918-7.665969 2.016425a33.684073 33.684073 0 0 1-8.900697-0.115478c-3.055728-0.559625-6.226934-1.216962-9.264896-2.78924-3.402162-1.252493-5.311993-3.126792-8.376604-5.027739-2.256264-2.433923-4.974441-4.459231-6.626666-7.328418-2.06084-2.584933-3.331099-5.560715-4.476997-8.447667a33.719605 33.719605 0 0 1-1.84765-8.705272c0-2.842538-0.21319-5.507417 0.479678-7.914691l0.692869-3.437694 1.314674-2.931367c0.799464-1.838767 1.527864-3.348865 2.478337-4.361519l2.691528-3.384397z" fill="#A3A3A3" p-id="4247"></path><path d="M465.449002 593.095517h-59.373509v-56.006878s23.388757 2.718177 30.797121 3.15344c12.995728 0.755049 28.576388 2.202967 28.576388 2.202967v50.650471zM576.796538 593.095517h59.373509v-56.006878s-23.388757 2.718177-30.797121 3.15344c-12.977962 0.755049-28.576388 2.202967-28.576388 2.202967v50.650471z" fill="#FFFFFF" p-id="4248"></path></svg>