<?xml version="1.0" standalone="no"?><!DOCTYPE svg PUBLIC "-//W3C//DTD SVG 1.1//EN" "http://www.w3.org/Graphics/SVG/1.1/DTD/svg11.dtd"><svg t="1628156527414" class="icon" viewBox="0 0 1024 1024" version="1.1" xmlns="http://www.w3.org/2000/svg" p-id="4857" xmlns:xlink="http://www.w3.org/1999/xlink" width="200" height="200"><path d="M821.963308 688.776509c0 171.708354 0 312.828696-310.939331 310.903513h-5.686003c-310.903514 21.338184-310.903514-139.195159-310.903514-310.903513v-5.068155c0-171.708354 139.195159-310.903514 310.903514-310.903513h5.686003c171.726263 0 310.939331 139.195159 310.939331 310.903513v5.068155z" fill="#AE8661" p-id="4858"></path><path d="M751.465818 690.209203c0 170.839784 50.547229 311.503454-230.520436 309.318596h-4.217492c-269.892653 22.949964-230.484618-138.478812-230.484619-309.318596v-5.041292c0-170.821875 103.198727-309.300687 230.484619-309.300687h4.217492c127.321709 0 230.520436 138.478812 230.520436 309.300687v5.041292z" fill="#E2D1C5" p-id="4859"></path><path d="M422.94017 820.172441c36.166565 60.611903 38.423057 157.784361-17.049056 190.870634-55.472114 33.113136-147.710733-10.404939-183.877298-71.007887-36.148656-60.620857-49.750293-111.571031 34.993547-169.684675 71.804823-49.239896 129.766243-10.789975 165.932807 49.821928z" fill="#A37C5B" p-id="4860"></path><path d="M429.969324 833.290544c32.692282 54.800539 30.802917 145.024432-24.669196 178.110705-55.481068 33.104182-143.555921-3.438465-176.257158-58.247958-32.701236-54.800539-43.795659-101.586946 41.252628-159.16333 72.100317-48.801133 126.97249-15.508911 159.673726 39.300583z" fill="#8E694D" p-id="4861"></path><path d="M609.96044 820.172441c-36.166565 60.611903-38.423057 157.784361 17.049056 190.870634 55.472114 33.113136 147.710733-10.404939 183.877298-71.007887 36.148656-60.620857 49.750293-111.571031-34.993546-169.684675-71.804823-49.239896-129.757289-10.789975-165.932808 49.821928z" fill="#A37C5B" p-id="4862"></path><path d="M602.931286 833.290544c-32.692282 54.800539-30.802917 145.024432 24.669197 178.110705 55.481068 33.104182 143.555921-3.438465 176.257157-58.247958 32.701236-54.800539 43.795659-101.586946-41.252628-159.16333-72.091362-48.801133-126.963536-15.508911-159.673726 39.300583z" fill="#8E694D" p-id="4863"></path><path d="M819.223281 118.537505m-81.547141 0a81.547141 81.547141 0 1 0 163.094283 0 81.547141 81.547141 0 1 0-163.094283 0Z" fill="#B28B6B" p-id="4864"></path><path d="M754.823694 118.537505a61.167072 57.827104 0 1 0 122.334144 0 61.167072 57.827104 0 1 0-122.334144 0Z" fill="#8E694D" p-id="4865"></path><path d="M204.776719 118.537505m-81.538187 0a81.538187 81.538187 0 1 0 163.076374 0 81.538187 81.538187 0 1 0-163.076374 0Z" fill="#B28B6B" p-id="4866"></path><path d="M140.377131 118.537505a61.167072 57.827104 0 1 0 122.334144 0 61.167072 57.827104 0 1 0-122.334144 0Z" fill="#8E694D" p-id="4867"></path><path d="M173.982756 302.853565C173.982756 135.586561 323.618671 0 508.194407 0 692.788052 0 842.423967 135.586561 842.423967 302.853565s-82.809703 302.853565-334.22956 302.853565c-268.415187 0-334.211651-135.595516-334.211651-302.853565z" fill="#B28B6B" p-id="4868"></path><path d="M419.03608 148.973294s-42.622641-65.877053-131.610836 20.621837c-82.648525 80.338306-92.981829 182.569964-66.691898 222.864478 18.087759 27.73158 151.292468 75.126882 235.910946-5.712866 84.609524-80.830795-37.608213-237.773448-37.608212-237.773449z" fill="#8E694D" p-id="4869"></path><path d="M350.95626 298.000315m-104.121023 0a104.121023 104.121023 0 1 0 208.242047 0 104.121023 104.121023 0 1 0-208.242047 0Z" fill="#7F5C44" p-id="4870"></path><path d="M430.193183 298.009269a79.245877 79.245877 0 0 0-158.491754 0 79.236923 79.236923 0 0 0 79.245877 79.227968c43.741933 0 79.245877-35.468126 79.245877-79.227968z" fill="#434849" p-id="4871"></path><path d="M356.525857 282.706308a27.686808 27.686808 0 0 1 55.364662 0 27.677854 27.677854 0 1 1-55.364662 0z" fill="#D0D1D2" p-id="4872"></path><path d="M334.507144 312.927194m-9.052834 0a9.052834 9.052834 0 1 0 18.105668 0 9.052834 9.052834 0 1 0-18.105668 0Z" fill="#D0D1D2" p-id="4873"></path><path d="M599.188373 148.973294s42.058518-65.286067 131.610836 20.621837c88.415117 84.815474 85.182602 185.551759 58.525543 221.369104-19.76222 26.558562-143.126113 76.613302-227.744591-4.217492-84.60057-80.830795 37.608213-237.773448 37.608212-237.773449z" fill="#8E694D" p-id="4874"></path><path d="M663.489463 298.000315m-104.121024 0a104.121023 104.121023 0 1 0 208.242047 0 104.121023 104.121023 0 1 0-208.242047 0Z" fill="#7F5C44" p-id="4875"></path><path d="M663.480509 298.009269m-79.245877 0a79.245877 79.245877 0 1 0 158.491754 0 79.245877 79.245877 0 1 0-158.491754 0Z" fill="#434849" p-id="4876"></path><path d="M669.050106 282.706308a27.686808 27.686808 0 0 1 55.364662 0 27.677854 27.677854 0 1 1-55.364662 0z" fill="#D0D1D2" p-id="4877"></path><path d="M647.031393 312.927194m-9.052834 0a9.052834 9.052834 0 1 0 18.105668 0 9.052834 9.052834 0 1 0-18.105668 0Z" fill="#D0D1D2" p-id="4878"></path><path d="M531.753266 390.462792c0 16.350618-10.145263 29.603036-22.636562 29.603036-12.500254 0-22.636562-13.252418-22.636563-29.603036V148.140541c0-16.350618 10.136309-29.603036 22.636563-29.603036 12.500254 0 22.636562 13.252418 22.636562 29.603036v242.322251z" fill="#E2D1C5" p-id="4879"></path><path d="M584.709211 465.571766a66.423267 66.423267 0 0 1-66.423267 66.423267h-20.183074a66.423267 66.423267 0 0 1 0-132.846534h20.183074a66.423267 66.423267 0 0 1 66.423267 66.423267z" fill="#E2D1C5" p-id="4880"></path><path d="M466.691058 456.080169c-6.393396-7.49478-3.554872-13.619546 6.285944-13.619545h68.563354c9.84977 0 12.67934 6.13372 6.285944 13.6285l-28.94937 33.936935c-6.393396 7.49478-16.852061 7.49478-23.245457 0l-28.940415-33.94589z" fill="#E49788" p-id="4881"></path></svg>