<?xml version="1.0" standalone="no"?><!DOCTYPE svg PUBLIC "-//W3C//DTD SVG 1.1//EN" "http://www.w3.org/Graphics/SVG/1.1/DTD/svg11.dtd"><svg t="1628156531359" class="icon" viewBox="0 0 1024 1024" version="1.1" xmlns="http://www.w3.org/2000/svg" p-id="5176" xmlns:xlink="http://www.w3.org/1999/xlink" width="200" height="200"><path d="M817.15193 687.986896c0 162.253557 0 295.603372-293.809581 293.784196h-5.381375c-293.784196 20.163237-293.784196-131.530639-293.784197-293.784196v-4.789086c0-162.253557 131.530639-293.784196 293.784197-293.784197h5.381375c162.262018 0 293.80958 131.530639 293.809581 293.784197v4.789086z" fill="#8C8B88" p-id="5177"></path><path d="M750.536251 689.33224c0 161.432812 66.615679 290.97505-219.79874 303.5739-287.565154 16.922565-219.79874-142.141088-219.798741-303.5739v-4.763703c0-161.41589 97.507822-292.269627 217.793417-292.269626h3.985264c120.302517 0 217.8188 130.853737 217.8188 292.269626v4.763703z" fill="#E2E2E2" p-id="5178"></path><path d="M420.563149 803.91493c39.040358 65.43956 41.485669 170.367927-18.420213 206.091462-59.89742 35.748919-159.486717-11.236583-198.527076-76.676144-39.040358-65.448022-53.720684-120.463282 37.779628-183.212154 77.539195-53.162239 140.118841-11.651186 179.167661 53.796836z" fill="#9D9D9D" p-id="5179"></path><path d="M428.16138 818.079117c35.300471 59.16975 33.261302 156.584497-26.636117 192.316494-59.905881 35.731997-155.002238-3.714503-190.302709-62.901175-35.308933-59.161289-47.281648-109.683608 44.548653-171.857113 77.826878-52.688407 137.07278-16.744878 172.390173 42.441794z" fill="#8C8B88" p-id="5180"></path><path d="M642.231833 803.91493c-39.040358 65.43956-41.485669 170.367927 18.420212 206.091462 59.89742 35.748919 159.486717-11.236583 198.527076-76.676144 39.040358-65.448022 53.720684-120.463282-37.779627-183.212154-77.539195-53.162239-140.11038-11.651186-179.167661 53.796836z" fill="#9D9D9D" p-id="5181"></path><path d="M634.642062 818.079117c-35.300471 59.16975-33.261302 156.584497 26.636118 192.316494 59.905881 35.731997 155.002238-3.714503 190.302709-62.901175 35.308933-59.161289 47.281648-109.683608-44.548653-171.857113-77.826878-52.688407-137.07278-16.744878-172.390174 42.441794z" fill="#8C8B88" p-id="5182"></path><path d="M819.140331 176.476973m-176.476973 0a176.476973 176.476973 0 1 0 352.953946 0 176.476973 176.476973 0 1 0-352.953946 0Z" fill="#9D9D9D" p-id="5183"></path><path d="M204.851208 176.476973m-176.468512 0a176.468512 176.468512 0 1 0 352.937023 0 176.468512 176.468512 0 1 0-352.937023 0Z" fill="#9D9D9D" p-id="5184"></path><path d="M80.58881 238.625094a132.368306 125.150832 0 1 0 264.736613 0 132.368306 125.150832 0 1 0-264.736613 0Z" fill="#E2E2E2" p-id="5185"></path><path d="M684.783623 238.625094a132.368306 125.150832 0 1 0 264.736613 0 132.368306 125.150832 0 1 0-264.736613 0Z" fill="#E2E2E2" p-id="5186"></path><path d="M204.851208 323.305612c0-158.056761 141.396495-286.177503 315.817376-286.177504C695.097927 37.128108 836.485961 165.248851 836.485961 323.305612s-78.241481 286.177503-315.817377 286.177503c-253.63541 0-315.817376-128.120743-315.817376-286.177503z" fill="#9D9D9D" p-id="5187"></path><path d="M359.794216 337.452876m-34.471265 0a34.471266 34.471266 0 1 0 68.942531 0 34.471266 34.471266 0 1 0-68.942531 0Z" fill="#434849" p-id="5188"></path><path d="M361.241096 330.793847a13.021914 13.021914 0 1 1 26.026905 0 13.013453 13.013453 0 1 1-26.026905 0z" fill="#FFFFFF" p-id="5189"></path><path d="M677.134624 337.452876m-34.471266 0a34.471266 34.471266 0 1 0 68.942531 0 34.471266 34.471266 0 1 0-68.942531 0Z" fill="#434849" p-id="5190"></path><path d="M678.581503 330.793847a13.030375 13.030375 0 1 1 26.035367 0 13.013453 13.013453 0 1 1-26.035367 0z" fill="#FFFFFF" p-id="5191"></path><path d="M580.430624 469.178125a47.797786 47.797786 0 0 1-47.806247 47.797786h-23.886201a47.797786 47.797786 0 0 1-47.806248-47.797786V350.787858a47.806247 47.806247 0 0 1 47.806248-47.806247h23.886201a47.806247 47.806247 0 0 1 47.806247 47.806247V469.178125z" fill="#434849" p-id="5192"></path><path d="M502.146836 490.297487m-7.894376 0a7.894377 7.894377 0 1 0 15.788753 0 7.894377 7.894377 0 1 0-15.788753 0Z" fill="" p-id="5193"></path><path d="M538.640349 490.297487m-7.902838 0a7.902838 7.902838 0 1 0 15.805676 0 7.902838 7.902838 0 1 0-15.805676 0Z" fill="" p-id="5194"></path></svg>