
<svg width="128px" height="128px" viewBox="0 0 128 128" version="1.1" xmlns="http://www.w3.org/2000/svg" xmlns:xlink="http://www.w3.org/1999/xlink">

    <g id="icons" stroke="none" stroke-width="1" fill="none" fill-rule="evenodd">
        <g id="landscape-line" fill="#000000" fill-rule="nonzero">
            <g id="形状">
                <path d="M60.1066667,65.152 L80,32 L122.666667,112 L10.6666667,112 L48,42.6666667 L60.1066667,65.152 Z M66.08,75.936 L79.9306667,101.333333 L104.890667,101.333333 L79.4506667,53.6426667 L66.08,75.936 L66.08,75.936 Z M28.5226667,101.333333 L67.4773333,101.333333 L48,65.168 L28.5226667,101.333333 Z M29.3333333,42.6666667 C21.9695367,42.6666667 16,36.69713 16,29.3333333 C16,21.9695367 21.9695367,16 29.3333333,16 C36.69713,16 42.6666667,21.9695367 42.6666667,29.3333333 C42.6666667,36.69713 36.69713,42.6666667 29.3333333,42.6666667 Z"></path>
            </g>
        </g>
    </g>
</svg>
