<?xml version="1.0" standalone="no"?><!DOCTYPE svg PUBLIC "-//W3C//DTD SVG 1.1//EN" "http://www.w3.org/Graphics/SVG/1.1/DTD/svg11.dtd"><svg t="1628156486783" class="icon" viewBox="0 0 1024 1024" version="1.1" xmlns="http://www.w3.org/2000/svg" p-id="3450" xmlns:xlink="http://www.w3.org/1999/xlink" width="200" height="200"><path d="M609.606809 942.730159h-195.241618s-1.499997 0.118 0 20.31796c2.323995 31.321939 43.707915 60.951881 97.619809 60.951881h0.226c53.665895 0 94.857815-29.629942 97.17181-60.951881 1.491997-20.201961 0.224-20.31796 0.223999-20.31796z" fill="#FFDEB7" p-id="3451"></path><path d="M708.310617 117.013771c-37.105928 40.71592-32.663936 104.227796 9.389981 139.811727l99.319806 84.037836c12.061976-178.847651-5.20799-289.641434-20.14196-307.593399-14.209972 6.263988-49.185904 40.531921-88.567827 83.743836zM227.119556 33.269935c-14.937971 17.951965-32.207937 128.745749-20.14196 307.593399l99.319806-84.037836c42.053918-35.581931 46.493909-99.093806 9.389981-139.811727-39.379923-43.211916-74.357855-77.479849-88.567827-83.743836z" fill="#C3B9B1" p-id="3452"></path><path d="M690.794651 910.222222c35.555931-80.253843 146.285714-65.015873 146.285714-65.015873v-48.761905l97.52381 65.015873v-113.777777l48.761904 16.253968c0-71.52386-32.233937-285.037443-153.5397-441.449138-160.239687-206.613596-475.413071-206.613596-635.652758 0-121.305763 156.409695-153.5397 369.923277-153.5397 441.449138l48.761904-16.253968v113.777777l97.52381-65.015873v48.761905s110.729784-15.23797 146.285714 65.015873l65.015873-16.253968h195.047619l97.52581 16.253968z" fill="#FFEBD2" p-id="3453"></path><path d="M334.899346 680.540671l144.593717 197.173615V455.111111H115.547774C58.133886 582.058863 40.635921 711.358611 40.635921 763.936508l48.761904-16.253968v113.777777c46.779909-102.911799 109.709786-162.743682 154.703698-194.993619 29.167943-20.907959 69.573864-14.865971 90.797823 14.073973zM689.100654 680.540671l-144.593717 197.173615V455.111111h363.945289c57.411888 126.947752 74.911854 256.2475 74.911853 308.825397l-48.761904-16.253968v113.777777c-46.777909-102.911799-109.709786-162.743682-154.703698-194.993619-29.169943-20.907959-69.575864-14.865971-90.797823 14.073973z" fill="#C3B9B1" p-id="3454"></path><path d="M593.270841 617.650794h-162.539682c-17.269966 93.283818-65.015873 162.207683-65.015873 267.411477 0 64.371874 48.761905 89.171826 81.269841 89.171826s65.015873-15.24997 65.015873-15.24997 32.507937 15.24997 65.015873 15.24997 81.269841-24.799952 81.269841-89.171826c0-105.203795-47.747907-174.12766-65.015873-267.411477z" fill="#FFEBD2" p-id="3455"></path><path d="M849.014342 348.791319c10.03398-145.905715 3.433993-303.017408-29.369943-338.679339C811.958414 1.753997 803.80243 0 798.324441 0c-32.397937 0-120.445765 99.221806-178.135652 168.699671l-0.995998-0.338c-69.325865-23.439954-145.061717-23.439954-214.387582 0l-0.995998 0.338C346.119324 99.221806 258.071496 0 225.673559 0c-5.475989 0-13.635973 1.753997-21.317958 10.11198-32.803936 35.66393-39.405923 192.771623-29.369943 338.679339-105.539794 153.177701-134.351738 347.555321-134.351737 415.145189 86.94983-198.743612 211.869586-264.589483 265.94548-284.593444 15.23797-5.635989 31.315939-8.277984 47.587907-7.951985 25.67795 0.513999 46.685909 20.851959 49.895903 46.33191l42.919916 340.483335h130.031746l42.917916-340.483335c3.211994-25.47995 24.219953-45.819911 49.897903-46.33191 16.271968-0.325999 32.349937 2.313995 47.587907 7.951985 54.071894 20.001961 178.99565 85.847832 265.94548 284.593444 0.002-67.589868-28.813944-261.967488-134.349737-415.145189zM227.119556 33.269935c14.209972 6.263988 49.185904 40.531921 88.567827 83.743836 15.093971 16.561968 23.277955 36.893928 24.867952 57.587888 0.971998 12.627975-5.445989 24.497952-16.319968 30.991939-46.599909 27.821946-85.999832 63.449876-119.129768 103.489798-8.097984-160.147687 7.983984-258.949494 22.013957-275.813461z m481.193061 83.743836c39.379923-43.215916 74.357855-77.479849 88.567827-83.743836 14.029973 16.863967 30.109941 115.665774 22.011957 275.813461-33.129935-40.041922-72.531858-75.665852-119.129768-103.489798-10.873979-6.493987-17.289966-18.363964-16.319968-30.991939 1.591997-20.68996 9.773981-41.02392 24.869952-57.587888z" fill="#878791" p-id="3456"></path><path d="M349.461317 536.380952m-32.507936 0a32.507937 32.507937 0 1 0 65.015873 0 32.507937 32.507937 0 1 0-65.015873 0Z" fill="#464655" p-id="3457"></path><path d="M674.540683 536.380952m-32.507937 0a32.507937 32.507937 0 1 0 65.015873 0 32.507937 32.507937 0 1 0-65.015873 0Z" fill="#464655" p-id="3458"></path><path d="M577.016873 858.210324c0 31.419939-29.107943 68.265867-65.015873 68.265866s-65.015873-36.847928-65.015873-68.265866c0-31.419939 29.107943-45.511911 65.015873-45.511911 35.90593 0 65.015873 14.091972 65.015873 45.511911z" fill="#464655" p-id="3459"></path></svg>