<?xml version="1.0" standalone="no"?><!DOCTYPE svg PUBLIC "-//W3C//DTD SVG 1.1//EN" "http://www.w3.org/Graphics/SVG/1.1/DTD/svg11.dtd"><svg t="1628156544844" class="icon" viewBox="0 0 1024 1024" version="1.1" xmlns="http://www.w3.org/2000/svg" p-id="6111" xmlns:xlink="http://www.w3.org/1999/xlink" width="200" height="200"><path d="M977.087512 974.235022a40.461473 40.461473 0 0 1-40.461473 40.461472H494.358447a40.461473 40.461473 0 0 1-40.461473-40.461472 40.461473 40.461473 0 0 1 40.461473-40.637011h442.530899A40.461473 40.461473 0 0 1 977.087512 974.235022z" fill="#C7631B" p-id="6112"></path><path d="M936.889346 933.598011A40.461473 40.461473 0 0 1 977.087512 974.235022a40.461473 40.461473 0 0 1-40.461473 40.461472M850.436959 933.598011h29.227051v80.835177h-29.227051zM780.221822 933.598011h29.227051v80.835177h-29.227051zM710.006686 933.598011h29.22705v80.835177h-29.22705z" fill="#333333" p-id="6113"></path><path d="M713.780749 695.129853c0 180.54067 0 328.870147-326.851461 326.851462h-5.968287C54.021771 1044.450159 54.021771 875.670524 54.021771 695.129853v-5.266135a326.851461 326.851461 0 0 1 326.763692-326.851461h5.968287A326.851461 326.851461 0 0 1 713.780749 689.863718z" fill="#C56A27" p-id="6114"></path><path d="M599.593383 103.742864m-103.742864 0a103.742864 103.742864 0 1 0 207.485729 0 103.742864 103.742864 0 1 0-207.485729 0Z" fill="#E38032" p-id="6115"></path><path d="M599.593383 103.742864m-59.770635 0a59.770635 59.770635 0 1 0 119.54127 0 59.770635 59.770635 0 1 0-119.54127 0Z" fill="#754C24" p-id="6116"></path><path d="M150.479815 103.742864m-103.742865 0a103.742864 103.742864 0 1 0 207.485729 0 103.742864 103.742864 0 1 0-207.485729 0Z" fill="#E38032" p-id="6117"></path><path d="M150.479815 103.742864m-59.770635 0a59.770635 59.770635 0 1 0 119.54127 0 59.770635 59.770635 0 1 0-119.54127 0Z" fill="#754C24" p-id="6118"></path><path d="M56.215994 317.460187c0-163.952344 146.661867-296.83449 327.641382-296.834491s327.553613 132.882146 327.553612 296.834491S630.224736 614.382446 383.857376 614.382446C120.726151 614.382446 56.215994 481.412531 56.215994 317.460187z" fill="#E38032" p-id="6119"></path><path d="M257.996743 247.771664m-35.721951 0a35.721951 35.721951 0 1 0 71.443902 0 35.721951 35.721951 0 1 0-71.443902 0Z" fill="#333333" p-id="6120"></path><path d="M259.488815 240.925688A13.516414 13.516414 0 1 1 273.005228 254.529871a13.516414 13.516414 0 0 1-13.516413-13.604183z" fill="#FFFFFF" p-id="6121"></path><path d="M523.497729 247.771664m-35.721951 0a35.721951 35.721951 0 1 0 71.443901 0 35.721951 35.721951 0 1 0-71.443901 0Z" fill="#333333" p-id="6122"></path><path d="M524.9898 240.925688A13.516414 13.516414 0 1 1 538.242907 254.529871a13.516414 13.516414 0 0 1-13.253107-13.604183z" fill="#FFFFFF" p-id="6123"></path><path d="M65.256193 247.771664l102.689637 54.767806L57.269221 351.602297s-5.441673-73.19928 7.986972-103.830633zM59.81452 379.951659l162.372503-8.776893L102.119139 504.671295s-33.088883-42.655696-42.304619-124.719636zM702.28302 247.771664L599.681152 302.627239l110.764378 48.975058s5.266135-73.19928-8.16251-103.830633zM707.724694 379.951659l-162.372504-8.776893L661.821548 500.282849s36.687409-38.26725 45.903146-120.33119z" fill="#333333" p-id="6124"></path><path d="M339.709608 212.049713H450.473986l58.190795 231.622182H286.521642l53.187966-231.622182z" fill="#F3AB32" p-id="6125"></path><path d="M508.664781 443.759664c0 50.028285-49.764978 90.577526-111.115454 90.577526s-111.027685-40.63701-111.027685-90.577526" fill="#333333" p-id="6126"></path><path d="M328.387418 601.480415A165.268878 165.268878 0 0 1 292.489929 596.828662a4.388446 4.388446 0 1 1 1.930916-8.776892c35.107568 7.811434 60.648324 4.563984 76.358961-9.479044 20.099083-17.553784 17.027171-48.448444 16.939402-48.79952a4.388446 4.388446 0 0 1 3.861833-4.82729 4.300677 4.300677 0 0 1 4.82729 3.861832c0 1.404303 3.686295 35.107568-19.748007 56.17211a70.215137 70.215137 0 0 1-48.272906 16.500557z" fill="#333333" p-id="6127"></path><path d="M456.793349 598.408503a70.215137 70.215137 0 0 1-48.623982-15.886175c-23.434302-21.064541-19.923545-54.767807-19.748008-56.172109a4.300677 4.300677 0 0 1 4.827291-3.861833 4.388446 4.388446 0 0 1 3.861833 4.827291s-3.159681 30.806891 16.939401 48.79952c15.710637 14.130796 41.426931 17.553784 76.358961 9.479043a4.388446 4.388446 0 1 1 1.930917 8.776892 166.234336 166.234336 0 0 1-35.546413 4.037371z" fill="#333333" p-id="6128"></path></svg>