
<svg width="128px" height="128px" viewBox="0 0 128 128" version="1.1" xmlns="http://www.w3.org/2000/svg" xmlns:xlink="http://www.w3.org/1999/xlink">

    <g id="icons" stroke="none" stroke-width="1" fill="none" fill-rule="evenodd">
        <g id="lock-password-line" fill="#000000" fill-rule="nonzero">
            <g id="形状">
                <path d="M96,42.6666667 L106.666667,42.6666667 C109.612185,42.6666667 112,45.0544813 112,48 L112,112 C112,114.945519 109.612185,117.333333 106.666667,117.333333 L21.3333333,117.333333 C18.3878147,117.333333 16,114.945519 16,112 L16,48 C16,45.0544813 18.3878147,42.6666667 21.3333333,42.6666667 L32,42.6666667 L32,37.3333333 C32,19.6602213 46.326888,5.33333333 64,5.33333333 C81.673112,5.33333333 96,19.6602213 96,37.3333333 L96,42.6666667 Z M26.6666667,53.3333333 L26.6666667,106.666667 L101.333333,106.666667 L101.333333,53.3333333 L26.6666667,53.3333333 Z M58.6666667,74.6666667 L69.3333333,74.6666667 L69.3333333,85.3333333 L58.6666667,85.3333333 L58.6666667,74.6666667 Z M37.3333333,74.6666667 L48,74.6666667 L48,85.3333333 L37.3333333,85.3333333 L37.3333333,74.6666667 Z M80,74.6666667 L90.6666667,74.6666667 L90.6666667,85.3333333 L80,85.3333333 L80,74.6666667 Z M85.3333333,42.6666667 L85.3333333,37.3333333 C85.3333333,25.5512587 75.7820747,16 64,16 C52.2179253,16 42.6666667,25.5512587 42.6666667,37.3333333 L42.6666667,42.6666667 L85.3333333,42.6666667 L85.3333333,42.6666667 Z"></path>
            </g>
        </g>
    </g>
</svg>
