<?xml version="1.0" standalone="no"?><!DOCTYPE svg PUBLIC "-//W3C//DTD SVG 1.1//EN" "http://www.w3.org/Graphics/SVG/1.1/DTD/svg11.dtd"><svg t="1628156516932" class="icon" viewBox="0 0 1024 1024" version="1.1" xmlns="http://www.w3.org/2000/svg" p-id="4073" xmlns:xlink="http://www.w3.org/1999/xlink" width="200" height="200"><path d="M995.614655 204.493601c0.242 0 0.467999 0 0.693999-0.016 9.111982-0.371999 16.193968-8.033984 15.821969-17.145967-0.21-5.37199-6.307988-132.193742-96.579811-177.323654a16.531968 16.531968 0 0 0-22.159957 7.385986 16.511968 16.511968 0 0 0 7.385986 22.159957c72.725858 36.353929 78.307847 147.997711 78.353847 149.111709 0.371999 8.877983 7.695985 15.827969 16.483967 15.827969zM627.165375 437.687145a16.521968 16.521968 0 0 0 16.467968-15.51597c2.451995-40.531921 45.289912-79.725844 86.709831-117.62977 43.015916-39.339923 87.483829-80.033844 95.047814-128.563749 1.403997-9.015982-4.775991-17.467966-13.773973-18.871963-9.241982-1.305997-17.467966 4.775991-18.871963 13.773973-5.773989 37.079928-45.88791 73.789856-84.691835 109.289787-46.27391 42.339917-94.145816 86.129832-97.38781 139.997726-0.549999 9.111982 6.387988 16.935967 15.48397 17.483966 0.337999 0.02 0.677999 0.036 1.015998 0.036zM28.384545 204.493601c-0.242 0-0.467999 0-0.693999-0.016-9.111982-0.371999-16.193968-8.033984-15.821969-17.145967 0.21-5.36999 6.307988-132.189742 96.579811-177.321654a16.531968 16.531968 0 0 1 22.159957 7.385986 16.511968 16.511968 0 0 1-7.385986 22.159957C50.496501 75.913852 44.916512 187.559634 44.866512 188.671632c-0.367999 8.871983-7.691985 15.821969-16.481967 15.821969zM396.835825 437.687145a16.521968 16.521968 0 0 1-16.467968-15.51597c-2.451995-40.531921-45.289912-79.725844-86.709831-117.62977-43.015916-39.339923-87.483829-80.033844-95.047814-128.563749-1.403997-9.015982 4.773991-17.467966 13.773973-18.871963 9.241982-1.305997 17.467966 4.775991 18.871963 13.773973 5.773989 37.079928 45.88791 73.789856 84.691835 109.289787 46.27391 42.339917 94.145816 86.129832 97.38781 139.997726 0.549999 9.111982-6.387988 16.935967-15.48397 17.483966a17.239966 17.239966 0 0 1-1.015998 0.036zM297.728018 604.474819c-33.031935-49.547903-56.973889-33.031935-115.367774-33.031935-82.579839 0-170.667667-151.397704-165.161678-181.677645 3.549993-19.529962 297.04342 99.095806 297.04342 99.095806l-16.513968 115.613774z" fill="#CFB396" p-id="4074"></path><path d="M297.728018 620.990787a16.531968 16.531968 0 0 1-13.741973-7.355986c-20.40396-30.59594-32.047937-29.741942-66.693869-27.257946-10.25798 0.741999-21.901957 1.581997-35.417931 1.581997-47.531907 0-90.533823-39.563923-118.225769-72.757858C29.486542 474.233074-4.399391 413.491192 0.470599 386.799245c0.983998-5.451989 4.403991-10.16198 9.369982-12.903975 7.385986-4.095992 26.951947-14.789971 310.579393 99.645805a16.547968 16.547968 0 0 1 10.17798 17.661966l-16.515967 115.611774a16.521968 16.521968 0 0 1-12.691976 13.773973 16.793967 16.793967 0 0 1-3.661993 0.401999z m-59.403883-68.691866c16.999967 0 32.595936 2.871994 48.063906 14.805971l9.677981-67.757867c-105.047795-42.081918-218.563573-83.597837-260.111492-93.193818 7.579985 21.613958 29.177943 62.209878 62.241878 98.403808 29.659942 32.483937 59.387884 50.369902 83.675837 50.369901 12.339976 0 23.339954-0.789998 33.065935-1.483997 8.127984-0.597999 15.901969-1.143998 23.385955-1.143998z" fill="#877364" p-id="4075"></path><path d="M726.271182 604.474819c33.031935-49.547903 56.973889-33.031935 115.367774-33.031935 82.579839 0 170.667667-151.397704 165.161678-181.677645-3.549993-19.529962-297.04342 99.095806-297.04342 99.095806l16.513968 115.613774z" fill="#CFB396" p-id="4076"></path><path d="M722.611189 620.588788a16.519968 16.519968 0 0 1-12.691976-13.773973l-16.515967-115.611774a16.545968 16.545968 0 0 1 10.17798-17.661966c283.629446-114.435776 303.191408-103.741797 310.579393-99.645805 4.96799 2.741995 8.387984 7.449985 9.369982 12.903975 4.86999 26.693948-29.015943 87.435829-63.177877 128.401749-27.693946 33.193935-70.693862 72.757858-118.225769 72.757858-13.515974 0-25.161951-0.837998-35.417931-1.581997-34.643932-2.483995-46.28991-3.337993-66.693869 27.257946a16.531968 16.531968 0 0 1-13.741974 7.355986 16.753967 16.753967 0 0 1-3.661992-0.401999z m86.451831-67.145869c9.725981 0.693999 20.72596 1.483997 33.065935 1.483997 24.291953 0 54.015895-17.885965 83.675837-50.369901 33.065935-36.193929 54.661893-76.78985 62.241878-98.403808-41.547919 9.595981-155.063697 51.1139-260.111492 93.193818l9.677981 67.757867c15.46797-11.933977 31.063939-14.805971 48.063906-14.805971 7.481985 0 15.25597 0.545999 23.385955 1.143998z" fill="#877364" p-id="4077"></path><path d="M1023.7766 24.397952c-0.21-9.111982-7.273986-15.885969-16.903967-16.127968-9.111982 0.21-16.337968 7.773985-16.129968 16.903967 1.145998 49.531903-2.419995 120.917764-13.919973 172.387663a16.467968 16.467968 0 0 0-1.869996 4.081992c-20.967959 68.627866-129.903746 90.951822-209.433591 107.257791-23.467954 4.821991-43.757915 8.967982-60.241882 13.853973-56.23389 16.663967-79.769844 48.233906-88.803827 65.555872-56.909889 1.719997-73.383857 16.345968-104.473796 16.345968-31.089939 0-47.561907-14.627971-104.471796-16.345968-9.031982-17.321966-32.569936-48.889905-88.805827-65.555872-16.483968-4.88599-36.775928-9.031982-60.239882-13.853973-79.531845-16.305968-188.467632-38.629925-209.433591-107.257791a16.573968 16.573968 0 0 0-1.869996-4.081992c-11.499978-51.467899-15.063971-122.85576-13.917973-172.387663 0.21-9.129982-7.015986-16.693967-16.129968-16.903967C7.502585 8.511983 0.436599 15.28597 0.2266 24.397952-0.627399 61.18788-1.919396 246.751518 57.372488 286.269441c40.83792 27.223947 89.467825 41.11192 136.483733 54.531893 53.065896 15.15197 103.995797 29.707942 145.899715 61.51988-48.863905 23.721954-92.00782 74.773854-92.00782 134.461738 0 68.097867 49.547903 346.837323 99.095807 396.387225C396.387826 982.718081 511.9996 982.718081 511.9996 982.718081s115.611774 0 165.161677-49.547904c49.547903-49.547903 99.095806-328.289359 99.095807-396.387225 0-59.689883-43.143916-110.739784-92.00982-134.463738 41.905918-31.811938 92.835819-46.369909 145.899715-61.51988 47.015908-13.419974 95.643813-27.307947 136.483733-54.531893 59.289884-39.513923 57.999887-225.07956 57.145888-261.869489z" fill="#9F8976" p-id="4078"></path><path d="M396.387826 916.65421c10.32198 139.565727 82.579839 90.839823 115.367774 90.839822 32.925936 0 105.491794 48.723905 115.857774-90.839822H396.387826z" fill="#FFDEB7" p-id="4079"></path><path d="M643.883342 900.138242c0 50.169902-68.277867 49.547903-132.129742 49.547903s-132.129742 0.621999-132.129741-49.547903c0-81.203841 68.277867-147.267712 132.129741-147.267712s132.129742 66.063871 132.129742 147.267712z" fill="#FFEBD2" p-id="4080"></path><path d="M594.335439 876.770288c0 39.091924-55.215892 57.987887-82.579839 57.987886s-82.579839-18.895963-82.579838-57.987886 36.973928-41.10792 82.579838-41.10792 82.579839 2.015996 82.579839 41.10792z" fill="#464655" p-id="4081"></path><path d="M306.582958 681.507757a84.745834 59.185884 49.758 1 0 90.355856-76.470223 84.745834 59.185884 49.758 1 0-90.355856 76.470223Z" fill="#CFB396" p-id="4082"></path><path d="M627.091721 605.036972a59.185884 84.745834 40.242 1 0 90.355856 76.470223 59.185884 84.745834 40.242 1 0-90.355856-76.470223Z" fill="#CFB396" p-id="4083"></path><path d="M330.323955 619.35679m-33.031936 0a33.031935 33.031935 0 1 0 66.063871 0 33.031935 33.031935 0 1 0-66.063871 0Z" fill="#464655" p-id="4084"></path><path d="M693.677245 619.35679m-33.031935 0a33.031935 33.031935 0 1 0 66.063871 0 33.031935 33.031935 0 1 0-66.063871 0Z" fill="#464655" p-id="4085"></path></svg>