<?xml version="1.0" standalone="no"?><!DOCTYPE svg PUBLIC "-//W3C//DTD SVG 1.1//EN" "http://www.w3.org/Graphics/SVG/1.1/DTD/svg11.dtd"><svg t="1628156512416" class="icon" viewBox="0 0 1024 1024" version="1.1" xmlns="http://www.w3.org/2000/svg" p-id="3767" xmlns:xlink="http://www.w3.org/1999/xlink" width="200" height="200"><path d="M66.214549 644.271258a446.392872 330.660646 0 1 0 892.785744 0 446.392872 330.660646 0 1 0-892.785744 0Z" fill="#FFCC9C" p-id="3768"></path><path d="M615.485622 528.537032H409.74122L49.688517 677.335323c51.4361 181.864355 222.890435 181.864355 274.326536 181.864355s137.162268 82.666161 188.598368 82.666162 137.162268-82.666161 188.598369-82.666162c51.4361 0 222.890435 0 274.326535-181.864355l-360.052703-148.798291z" fill="#FFEBD2" p-id="3769"></path><path d="M314.219034 561.603097v181.864355c98.776193-32.926064 153.8383 50.720099 179.696351 120.350235 6.372012 17.158034 31.028061 17.158034 37.400073 0 25.858051-69.630136 80.920158-153.276299 179.696351-120.350235v-181.864355H314.219034z" fill="#CFBAA4" p-id="3770"></path><path d="M16.616452 545.073065a264.528517 198.396387 90 1 0 396.792775 0 264.528517 198.396387 90 1 0-396.792775 0Z" fill="#DC9B5A" p-id="3771"></path><path d="M222.388854 769.923504c-106.834209-24.340048-167.130326-159.548312-134.674263-301.99259 18.976037-83.284163 65.532128-150.360294 122.220239-187.046365-107.198209 3.632007-193.310378 120.382235-193.310378 264.186516 0 146.094285 88.824173 264.528517 198.396388 264.528516 47.044092 0 90.196176-21.938043 124.204243-58.420114-36.852072 20.22404-77.252151 27.764054-116.836229 18.744037z" fill="#9F8976" p-id="3772"></path><path d="M611.805615 545.073065a264.528517 198.396387 90 1 0 396.792775 0 264.528517 198.396387 90 1 0-396.792775 0Z" fill="#DC9B5A" p-id="3773"></path><path d="M802.841988 769.923504c106.834209-24.340048 167.130326-159.548312 134.674263-301.99259-18.976037-83.284163-65.532128-150.360294-122.220239-187.046365 107.198209 3.632007 193.310378 120.382235 193.310378 264.186516 0 146.094285-88.824173 264.528517-198.396388 264.528516-47.044092 0-90.196176-21.938043-124.204242-58.420114 36.850072 20.22404 77.250151 27.764054 116.836228 18.744037z" fill="#9F8976" p-id="3774"></path><path d="M760.603906 594.671161m-99.198194 0a99.198194 99.198194 0 1 0 198.396387 0 99.198194 99.198194 0 1 0-198.396387 0Z" fill="#FFCE56" p-id="3775"></path><path d="M760.603906 594.671161m-49.600097 0a49.600097 49.600097 0 1 0 99.200193 0 49.600097 49.600097 0 1 0-99.200193 0Z" fill="#464655" p-id="3776"></path><path d="M264.610937 594.671161m-99.198194 0a99.198194 99.198194 0 1 0 198.396388 0 99.198194 99.198194 0 1 0-198.396388 0Z" fill="#FFCE56" p-id="3777"></path><path d="M562.213518 743.467452c0-27.394054-22.206043-49.600097-49.600097-49.600097-27.394054 0-49.600097 22.206043-49.600097 49.600097 0 0 28.932057 165.330323 49.600097 165.330323 20.66604 0 49.600097-165.330323 49.600097-165.330323z" fill="#464655" p-id="3778"></path><path d="M264.610937 594.671161m-49.600097 0a49.600097 49.600097 0 1 0 99.200194 0 49.600097 49.600097 0 1 0-99.200194 0Z" fill="#464655" p-id="3779"></path><path d="M512.613421 183.628359c-101.704199 0-216.180422 11.052022-332.198649 47.380092 14.408028 25.36805 26.140051 56.814111 34.606068 99.134194C248.086905 495.472968 446.483292 660.801291 512.615421 660.801291s264.528517-165.328323 297.594581-330.658646c8.464017-42.320083 20.196039-73.764144 34.606068-99.134194-116.022227-36.328071-230.49645-47.380093-332.202649-47.380092z" fill="#9F8976" p-id="3780"></path><path d="M0.09042 49.080096c-1.794004-2.094004 22.636044 289.250565 115.732226 363.72671 46.486091 37.188073 108.660212 58.692115 180.636353 82.154161-38.722076-50.372098-69.992137-107.58821-81.438159-164.820322C181.954775 164.810322 99.288614 164.810322 0.09042 49.080096zM1023.91042 49.080096c-73.706144 85.990168-137.210268 108.432212-179.09835 181.928355-14.408028 25.36805-26.140051 56.814111-34.606068 99.134194-11.404022 57.020111-42.478083 114.038223-81.004158 164.276321 71.268139-23.250045 132.850259-44.710087 178.97435-81.61216 93.100182-74.478145 117.52823-365.820714 115.734226-363.72671z" fill="#726765" p-id="3781"></path></svg>