
<svg width="128px" height="128px" viewBox="0 0 128 128" version="1.1" xmlns="http://www.w3.org/2000/svg" xmlns:xlink="http://www.w3.org/1999/xlink">

    <g id="icons" stroke="none" stroke-width="1" fill="none" fill-rule="evenodd">
        <g id="nested" fill="#000000" fill-rule="nonzero">
            <g id="file-list-fill">
                <path d="M106.666667,117.333333 L21.3333333,117.333333 C18.3878147,117.333333 16,114.945519 16,112 L16,16 C16,13.0544813 18.3878147,10.6666667 21.3333333,10.6666667 L106.666667,10.6666667 C109.612185,10.6666667 112,13.0544813 112,16 L112,112 C112,114.945519 109.612185,117.333333 106.666667,117.333333 Z M42.6666667,37.3333333 L42.6666667,48 L85.3333333,48 L85.3333333,37.3333333 L42.6666667,37.3333333 Z M42.6666667,58.6666667 L42.6666667,69.3333333 L85.3333333,69.3333333 L85.3333333,58.6666667 L42.6666667,58.6666667 Z M42.6666667,80 L42.6666667,90.6666667 L85.3333333,90.6666667 L85.3333333,80 L42.6666667,80 Z" id="形状"></path>
            </g>
        </g>
    </g>
</svg>
