<?xml version="1.0" standalone="no"?><!DOCTYPE svg PUBLIC "-//W3C//DTD SVG 1.1//EN" "http://www.w3.org/Graphics/SVG/1.1/DTD/svg11.dtd"><svg t="1628156546927" class="icon" viewBox="0 0 1024 1024" version="1.1" xmlns="http://www.w3.org/2000/svg" p-id="6271" xmlns:xlink="http://www.w3.org/1999/xlink" width="200" height="200"><path d="M790.619458 701.121531c0 177.199362 0 322.878469-320.837002 320.837002H463.984689c-320.837002 22.047847-320.837002-143.63764-320.837002-320.837002v-5.226156A320.837002 320.837002 0 0 1 463.984689 375.058373h5.879426A320.837002 320.837002 0 0 1 790.619458 695.895375z" fill="#775236" p-id="6272"></path><path d="M922.906539 643.14386a111.300797 111.300797 0 0 0-23.436045 97.99043 231.175758 231.175758 0 0 0 15.841787 46.953748 147.802233 147.802233 0 0 0 29.070494 40.012759 216.803828 216.803828 0 0 0 21.721212-28.662201 66.061882 66.061882 0 0 0 10.207337-35.358213 93.825837 93.825837 0 0 0-10.452313-37.644657c-4.736204-10.61563-43.197448-55.446252-42.952472-83.291866z" fill="#5E3B28" p-id="6273"></path><path d="M956.223285 820.588198a117.915152 117.915152 0 0 0 3.103031-18.944817 23.925997 23.925997 0 1 0-47.688676-4.001276c-6.532695 77.984051-141.024561 75.53429-142.41276 75.534291a23.925997 23.925997 0 0 0-1.143221 47.851993c6.940989 0.244976 162.582456 2.694737 188.141626-100.440191z" fill="#775236" p-id="6274"></path><path d="M529.311643 133.920255S631.87496 83.291866 654.576077 0c0 0 41.319298 122.97799-16.331739 203.166826-0.244976 0-40.257735-57.487719-108.932695-69.246571zM396.697927 133.920255S294.461244 83.291866 271.760128 0c0 0-41.319298 122.97799 16.331738 203.166826 0.244976 0 40.257735-57.487719 108.606061-69.246571z" fill="#333333" p-id="6275"></path><path d="M190.509729 403.557257c0-165.685486 139.22807-285.805423 274.209888-285.805423 129.510686 0 262.451037 112.607337 280.007656 277.639554s-45.157257 348.927592-278.129506 348.927591c-268.820415 0-276.088038-175.076236-276.088038-340.761722z" fill="#856040" p-id="6276"></path><path d="M516.327911 405.027113C511.918341 250.773844 635.467943 194.674322 644.613716 188.876555c37.971292 32.173525 45.320574 42.299203 68.511643 82.556938 5.552791 9.717384 16.331738 55.772887 16.331738 57.161084s9.880702-15.841786 15.433493 31.438597c5.307815 44.993939 9.064115 83.536842 0 135.961722-2.368102 0.489952-223.744817 69.981499-228.562679-90.967783z" fill="#775236" p-id="6277"></path><path d="M699.570016 613.17512c0 72.43126-126.979266 136.941627-206.596491 136.941626H423.155343c-79.698884 0-193.367783-64.592026-193.367783-136.941626C229.869219 540.825518 294.461244 481.786284 374.160128 481.786284h181.118979c79.617225 0 144.20925 58.7126 144.20925 131.062201z" fill="#5E3B28" p-id="6278"></path><path d="M644.613716 188.876555s176.954386-20.496332 202.431898 75.452632l34.051675 128.204146s-182.017225 1.22488-207.576396-94.724083z" fill="#856040" p-id="6279"></path><path d="M686.504625 224.969697s114.322169-13.228708 130.653908 48.995215L839.614673 356.440191s-117.506858 0.816587-134.001914-61.16236z" fill="#E49788" p-id="6280"></path><path d="M284.335566 193.449442S107.136204 172.95311 81.577033 268.902073L47.525359 397.024561s182.017225 1.22488 207.576395-94.724083z" fill="#856040" p-id="6281"></path><path d="M242.118022 229.460925s-114.322169-13.228708-130.653907 48.995215l-22.047847 82.475279s117.506858 0.816587 134.001914-61.16236z" fill="#E49788" p-id="6282"></path><path d="M335.94386 398.902711m-32.990112 0a32.990112 32.990112 0 1 0 65.980223 0 32.990112 32.990112 0 1 0-65.980223 0Z" fill="#1A1A1A" p-id="6283"></path><path d="M335.94386 392.533333a12.49378 12.49378 0 1 1 12.49378 12.49378 12.49378 12.49378 0 0 1-12.49378-12.49378z" fill="#FFFFFF" p-id="6284"></path><path d="M586.799362 392.778309m-32.990112 0a32.990112 32.990112 0 1 0 65.980224 0 32.990112 32.990112 0 1 0-65.980224 0Z" fill="#1A1A1A" p-id="6285"></path><path d="M586.472727 386.408931a12.49378 12.49378 0 1 1 12.49378 12.49378A12.49378 12.49378 0 0 1 586.472727 386.408931z" fill="#FFFFFF" p-id="6286"></path><path d="M401.924083 542.458692m-19.679745 0a19.679745 19.679745 0 1 0 39.35949 0 19.679745 19.679745 0 1 0-39.35949 0Z" fill="#1A1A1A" p-id="6287"></path><path d="M527.515152 542.458692m-19.679745 0a19.679745 19.679745 0 1 0 39.359489 0 19.679745 19.679745 0 1 0-39.359489 0Z" fill="#1A1A1A" p-id="6288"></path><path d="M464.719617 611.378628a69.001595 69.001595 0 0 1-68.919936-68.919936 6.124402 6.124402 0 0 1 12.248804 0 56.671132 56.671132 0 0 0 113.342265 0 6.124402 6.124402 0 0 1 12.248803 0 69.001595 69.001595 0 0 1-68.919936 68.919936z" fill="#BDBCBC" p-id="6289"></path></svg>