
<svg width="128px" height="128px" viewBox="0 0 128 128" version="1.1" xmlns="http://www.w3.org/2000/svg" xmlns:xlink="http://www.w3.org/1999/xlink">

    <g id="icons" stroke="none" stroke-width="1" fill="none" fill-rule="evenodd">
        <g id="notification-2-line" fill="#000000" fill-rule="nonzero">
            <g id="形状">
                <path d="M117.333333,106.666667 L10.6666667,106.666667 L10.6666667,96 L16,96 L16,58.832 C16,32.2293333 37.4933333,10.6666667 64,10.6666667 C90.5066667,10.6666667 112,32.2293333 112,58.832 L112,96 L117.333333,96 L117.333333,106.666667 Z M26.6666667,96 L101.333333,96 L101.333333,58.832 C101.333333,38.1226667 84.6186667,21.3333333 64,21.3333333 C43.3813333,21.3333333 26.6666667,38.1226667 26.6666667,58.832 L26.6666667,96 Z M50.6666667,112 L77.3333333,112 C77.3333333,119.363797 71.3637967,125.333333 64,125.333333 C56.6362033,125.333333 50.6666667,119.363797 50.6666667,112 L50.6666667,112 Z"></path>
            </g>
        </g>
    </g>
</svg>
