<?xml version="1.0" standalone="no"?><!DOCTYPE svg PUBLIC "-//W3C//DTD SVG 1.1//EN" "http://www.w3.org/Graphics/SVG/1.1/DTD/svg11.dtd"><svg t="1628156533285" class="icon" viewBox="0 0 1024 1024" version="1.1" xmlns="http://www.w3.org/2000/svg" p-id="5337" xmlns:xlink="http://www.w3.org/1999/xlink" width="200" height="200"><path d="M801.790258 588.435503c20.668592-33.724416 64.768597-44.317727 98.485505-23.641626a71.623092 71.623092 0 0 1 23.649135 98.485505M757.465024 714.068713c27.936009-28.011086 73.282285-28.071147 101.285863-0.150154 28.003578 27.943517 28.063639 73.282285 0.135138 101.293371M661.344432 796.637975c35.518747-17.387744 78.417526-2.695251 95.820286 32.831005 17.395252 35.526255 2.687743 78.417526-32.823497 95.820285" fill="#CC4428" p-id="5338"></path><path d="M225.772428 588.435503c-20.668592-33.724416-64.761089-44.317727-98.485506-23.641626-33.724416 20.668592-44.302711 64.753582-23.641626 98.485505M281.75706 714.068713c-27.928501-28.011086-73.282285-28.071147-101.285863-0.150154-28.003578 27.943517-28.063639 73.282285-0.135138 101.293371M377.870144 796.637975c-35.518747-17.387744-78.417526-2.695251-95.820285 32.831005-17.387744 35.526255-2.687743 78.417526 32.831004 95.820285" fill="#CC4428" p-id="5339"></path><path d="M867.046853 362.815256L778.321308 493.884012c-11.997243 18.23611-27.845917 8.783964-43.169054-1.321348-15.330645-10.097805 17.808173-77.396484 29.820432-95.625086l46.547502-70.677127" fill="#CC4428" p-id="5340"></path><path d="M996.809277 196.145168c39.602915 44.715633 35.466194 113.072892-9.234424 152.668299-44.72314 39.602915-113.072892 35.451178-152.675807-9.249439" fill="#E4552C" p-id="5341"></path><path d="M968.813206 117.494904c-62.321099-37.40317-143.156092-17.222576-180.574277 45.106032-37.40317 62.313592-17.200053 143.141077 45.113539 180.559262" fill="#E4552C" p-id="5342"></path><path d="M156.957201 362.815256l88.71053 131.068756c12.012259 18.23611 27.845917 8.783964 43.176562-1.321348 15.330645-10.097805-17.815681-77.396484-29.812924-95.625086l-46.55501-70.677127" fill="#CC4428" p-id="5343"></path><path d="M27.202285 196.145168c-39.610423 44.715633-35.473701 113.072892 9.219409 152.668299 44.72314 39.602915 113.065384 35.451178 152.675806-9.249439" fill="#E4552C" p-id="5344"></path><path d="M55.190848 117.494904c62.328607-37.40317 143.1636-17.222576 180.566769 45.106032 37.410678 62.313592 17.200053 143.141077-45.106031 180.559262" fill="#E4552C" p-id="5345"></path><path d="M753.388364 363.993959a305.576844 305.576844 0 0 1 65.234072 189.20058c0 169.470446-137.3827 306.868161-306.860654 306.868162S204.893621 722.664985 204.893621 553.194539c0-74.400927 26.472015-142.623048 70.519465-195.739754" fill="#E4552C" p-id="5346"></path><path d="M434.140068 423.747438a34.114814 34.114814 0 0 1-34.107306 34.107306h-9.970175a34.107307 34.107307 0 0 1-34.092292-34.107306V291.147118a34.084784 34.084784 0 0 1 34.092292-34.092292h9.970175a34.092291 34.092291 0 0 1 34.107306 34.092292v132.60032zM674.460317 423.747438a34.099799 34.099799 0 0 1-34.092291 34.107306h-9.970175a34.107307 34.107307 0 0 1-34.092292-34.107306V291.147118a34.084784 34.084784 0 0 1 34.092292-34.092292h9.970175a34.084784 34.084784 0 0 1 34.092291 34.092292v132.60032z" fill="#E4552C" p-id="5347"></path><path d="M635.390446 299.953605m-26.381923 0a26.381923 26.381923 0 1 0 52.763846 0 26.381923 26.381923 0 1 0-52.763846 0Z" fill="#434849" p-id="5348"></path><path d="M635.390446 294.870918a9.962667 9.962667 0 1 1 19.925334 0 9.955159 9.955159 0 1 1-19.925334 0z" fill="#FFFFFF" p-id="5349"></path><path d="M395.055182 299.953605m-26.381923 0a26.381923 26.381923 0 1 0 52.763846 0 26.381923 26.381923 0 1 0-52.763846 0Z" fill="#434849" p-id="5350"></path><path d="M395.055182 294.870918a9.970175 9.970175 0 1 1 19.925334 0 9.970175 9.970175 0 1 1-19.925334 0z" fill="#FFFFFF" p-id="5351"></path></svg>