<?xml version="1.0" encoding="UTF-8"?>
<svg width="98px" height="116px" viewBox="0 0 98 116" version="1.1" xmlns="http://www.w3.org/2000/svg" xmlns:xlink="http://www.w3.org/1999/xlink">
    <title>Tencent_QQ-Logo.wine</title>
    <g id="icons" stroke="none" stroke-width="1" fill="none" fill-rule="evenodd">
        <g id="Tencent_QQ-Logo.wine" transform="translate(0.000000, 0.000000)" fill-rule="nonzero">
            <path d="M48.7760903,114.667769 C38.6723118,114.667769 29.3972801,111.285869 23.4259494,106.235189 C20.3931229,107.141329 16.5138137,108.598891 14.0662695,110.407139 C11.9702171,111.953381 12.2322236,113.530257 12.6095131,114.166329 C14.2670068,116.963752 41.045688,115.95281 48.7760903,115.082142 L48.7760903,114.667769 Z M48.7760903,114.667769 C58.8814812,114.667769 68.1557067,111.285869 74.1278435,106.235189 C77.1590577,107.141329 81.0391731,108.598891 83.4875235,110.407139 C85.5819635,111.953381 85.3207631,113.530257 84.9426675,114.166329 C83.2851738,116.963752 56.5072988,115.95281 48.7760903,115.082142 L48.7760903,114.667769 Z" id="形状" fill="#FAAB07"></path>
            <path d="M48.834941,54.1095916 C65.5211301,53.9967272 78.8939441,50.7663881 83.4254481,49.5281048 C84.5057212,49.232239 85.0829418,48.7025827 85.0829418,48.7025827 C85.0869727,48.5502158 85.1514666,45.9857763 85.1514666,44.663651 C85.1514666,22.3858392 74.6357331,0.000806173983 48.7736718,0 C22.9116104,0.000806173983 12.3950708,22.3866453 12.3950708,44.6628448 C12.3950708,45.9865825 12.4595647,48.5502158 12.4644018,48.7017765 C12.4644018,48.7017765 12.9344012,49.1975735 13.7945888,49.4378133 C17.9786318,50.6019286 31.6029721,53.9926963 48.7115964,54.1095916 L48.834941,54.1095916 Z M94.1781967,72.6677166 C93.1438754,69.3390243 91.7322648,65.4572965 90.3021122,61.729548 C90.3021122,61.729548 89.4798147,61.6279701 89.0630227,61.7480901 C76.2343762,65.4750324 60.6840862,67.8508271 48.834941,67.7073281 L48.7115964,67.7073281 C36.9285574,67.8484086 21.4838763,65.5008299 8.69795691,61.8101654 C8.20941547,61.669085 7.24523139,61.729548 7.24523139,61.729548 C5.81507874,65.4572965 4.4034681,69.3398304 3.36914688,72.6677166 C-1.56383172,88.5412824 0.0348112846,95.109988 1.25132782,95.2567117 C3.86252536,95.5727319 11.4139571,83.3084071 11.4139571,83.3084071 C11.4139571,95.7710507 22.6657273,114.906396 48.431854,115.082142 L49.1154895,115.082142 C74.88081,114.906396 86.1325803,95.7710507 86.1325803,83.3084071 C86.1325803,83.3084071 93.6848182,95.5727319 96.2960157,95.2575178 C97.5117261,95.109988 99.1103691,88.5404762 94.1781967,72.6677166" id="形状" fill="#000000"></path>
            <path d="M39.5711958,32.9112467 C36.0627266,33.070063 33.0653717,29.0738585 32.876727,23.9925439 C32.6864699,18.9096169 35.374254,14.6602739 38.8827232,14.5014576 C42.3871615,14.3442537 45.3837102,18.3388458 45.5739672,23.4217727 C45.7658366,28.5055059 43.0772464,32.7548489 39.5711958,32.9112467 M64.6698104,23.9925439 C64.4819718,29.0730523 61.484617,33.070063 57.9761478,32.9112467 C54.469291,32.7540428 51.7815069,28.5055059 51.9733763,23.4225789 C52.1636334,18.3396519 55.1593759,14.3450599 58.6646204,14.5014576 C62.1730895,14.6602739 64.8608736,18.9096169 64.6698104,23.9925439" id="形状" fill="#FFFFFF"></path>
            <path d="M70.90476,40.0870013 C69.9679858,38.0111033 60.5252699,35.697384 48.8365533,35.697384 L48.7107902,35.697384 C37.0212674,35.697384 27.5793578,38.0111033 26.6417774,40.0878075 C26.8739378,40.2433959 26.9904631,40.5228025 26.9376433,40.7972406 C27.7276938,41.9476509 38.2119864,47.6392392 48.946193,47.6392392 L49.0719561,47.6392392 C59.8053566,47.6392392 70.2896492,41.9492632 71.0796997,40.7972406 C71.0741618,40.5101651 71.2435713,40.2485098 71.5077718,40.1360771 C71.7719723,40.0236444 72.0779825,40.0829811 72.2810133,40.2860119 C72.4840441,40.4890427 72.5433808,40.7950529 72.4309481,41.0592534 C72.3185155,41.3234539 72.0568601,41.4928634 71.7697846,41.4873255" id="路径" fill="#FAAB07"></path>
            <path d="M43.8834204,24.0675181 C44.043849,26.0748913 42.9426154,27.8581482 41.4278144,28.0524361 C39.9097888,28.2475302 38.5513857,26.7786812 38.3901509,24.771308 C38.2313346,22.7623224 39.3309559,20.9790656 40.8433383,20.7855838 C42.3637824,20.5888774 43.7246041,22.0593387 43.8834204,24.0667119 M53.5220365,24.7382548 C53.8324135,24.182801 55.9437832,21.2620326 60.3156647,22.3253761 C61.4644626,22.6051185 61.9957313,23.0162672 62.1077895,23.177502 C62.2730551,23.4161295 62.319007,23.7563349 62.1505167,24.2142418 C61.818373,25.1219937 61.1323189,25.0970023 60.752611,24.919644 C60.5067279,24.8051673 57.4618088,22.7752212 54.6563233,25.8040168 C54.4628416,26.0112036 54.1177991,26.082953 53.7912986,25.8362638 C53.4631858,25.5879622 53.3285548,25.086522 53.5220365,24.7382548" id="形状" fill="#000000"></path>
            <path d="M48.834941,66.9769345 L48.7115964,66.9769345 C40.6530812,67.0736754 30.8822526,66.006301 21.4193824,64.1408144 C20.6099837,68.8311347 20.1214422,74.7274912 20.5406527,81.7581345 C21.6015777,99.5286276 32.1552013,110.69978 48.445559,110.861015 L49.1066216,110.861015 C65.3977855,110.69978 75.9506029,99.5286276 77.0131402,81.7581345 C77.4323507,74.7258788 76.9430031,68.8311347 76.1327982,64.1400083 C66.6691218,66.006301 56.8958747,67.0744816 48.8357472,66.9761283" id="路径" fill="#FFFFFF"></path>
            <path d="M25.879943,65.4895435 L25.879943,82.9778757 C25.879943,82.9778757 33.8908939,84.5934484 41.917162,83.4744789 L41.917162,67.3437437 C36.8326227,67.0559396 31.3490273,66.4150312 25.879943,65.4895435" id="路径" fill="#EB1923"></path>
            <path d="M85.0829418,48.7025827 C85.0829418,48.7025827 69.4995987,53.6218563 48.834941,53.7613244 L48.7115964,53.7613244 C28.080798,53.6226625 12.5176092,48.7187061 12.4644018,48.7025827 L7.24523139,61.7287419 C20.2996067,65.6644833 36.4779062,68.2007066 48.7115964,68.0531768 L48.834941,68.0531768 C61.0686312,68.2007066 77.2461245,65.6644833 90.3021122,61.7287419 L85.0829418,48.7025827 Z" id="路径" fill="#EB1923"></path>
        </g>
    </g>
</svg>