
<svg width="128px" height="128px" viewBox="0 0 128 128" version="1.1" xmlns="http://www.w3.org/2000/svg" xmlns:xlink="http://www.w3.org/1999/xlink">

    <g id="icons" stroke="none" stroke-width="1" fill="none" fill-rule="evenodd">
        <g id="settings-5-fill" fill="#000000" fill-rule="nonzero">
            <g id="-">
                <path d="M11.3706667,72.6933333 C10.4140075,66.9372562 10.4140075,61.0627438 11.3706667,55.3066667 C17.248,55.4453333 22.528,52.6293333 24.5813333,47.6746667 C26.6346667,42.7146667 24.8906667,36.9866667 20.6346667,32.9386667 C24.0288697,28.188203 28.1843417,24.030929 32.9333333,20.6346667 C36.9866667,24.8906667 42.7146667,26.6346667 47.6746667,24.5813333 C52.6346667,22.528 55.4453333,17.2426667 55.3013333,11.3706667 C61.0608927,10.4128253 66.9391073,10.4128253 72.6986667,11.3706667 C72.5546667,17.248 75.3706667,22.528 80.3253333,24.5813333 C85.2853333,26.6346667 91.0133333,24.8906667 95.0613333,20.6346667 C99.811797,24.0288697 103.969071,28.1843417 107.365333,32.9333333 C103.109333,36.9866667 101.365333,42.7146667 103.418667,47.6746667 C105.472,52.6346667 110.757333,55.4453333 116.629333,55.3013333 C117.587175,61.0608927 117.587175,66.9391073 116.629333,72.6986667 C110.752,72.5546667 105.472,75.3706667 103.418667,80.3253333 C101.365333,85.2853333 103.109333,91.0133333 107.365333,95.0613333 C103.97113,99.811797 99.8156583,103.969071 95.0666667,107.365333 C91.0133333,103.109333 85.2853333,101.365333 80.3253333,103.418667 C75.3653333,105.472 72.5546667,110.757333 72.6986667,116.629333 C66.9391073,117.587175 61.0608927,117.587175 55.3013333,116.629333 C55.4453333,110.752 52.6293333,105.472 47.6746667,103.418667 C42.7146667,101.365333 36.9866667,103.109333 32.9386667,107.365333 C28.188203,103.97113 24.030929,99.8156583 20.6346667,95.0666667 C24.8906667,91.0133333 26.6346667,85.2853333 24.5813333,80.3253333 C22.528,75.3653333 17.2426667,72.5546667 11.3706667,72.6986667 L11.3706667,72.6933333 Z M64,80 C72.836556,80 80,72.836556 80,64 C80,55.163444 72.836556,48 64,48 C55.163444,48 48,55.163444 48,64 C48,72.836556 55.163444,80 64,80 Z" id="形状"></path>
            </g>
        </g>
    </g>
</svg>
