<?xml version="1.0" standalone="no"?><!DOCTYPE svg PUBLIC "-//W3C//DTD SVG 1.1//EN" "http://www.w3.org/Graphics/SVG/1.1/DTD/svg11.dtd"><svg t="1628156537464" class="icon" viewBox="0 0 1024 1024" version="1.1" xmlns="http://www.w3.org/2000/svg" p-id="5652" xmlns:xlink="http://www.w3.org/1999/xlink" width="200" height="200"><path d="M830.06 399.356l94.844 13.548c0-94.968-82.58-214.71-82.58-214.71h66.064c-49.548-66.064-148.646-82.58-148.646-82.58l49.548-33.032c-76.388-41.29-198.194-16.516-198.194-16.516S628.99 0 627.612 0C575.312 0 512 53.678 512 82.58 512 53.678 448.688 0 396.388 0c-1.378 0 16.516 66.064 16.516 66.064s-121.806-24.774-198.194 16.516l49.548 33.032s-99.096 16.516-148.646 82.58h66.064s-82.58 119.742-82.58 214.71l94.844-13.55c-74.23 78.63-111.36 184.87-111.36 310.84l49.548-16.518c7.764 107.432 36.498 213.954 66.064 247.744 0 0 32.26-50.688 33.032-49.548 55.054 81.204 132.13 115.612 132.13 115.612s15.086-50.87 16.516-49.548C433.548 1007.484 512 1024 512 1024s78.452-16.516 132.13-66.064c1.43-1.322 16.516 49.548 16.516 49.548s77.074-34.41 132.13-115.612c0.772-1.14 33.032 49.548 33.032 49.548 29.566-33.79 58.3-140.312 66.064-247.744l49.548 16.518c0-125.972-37.13-232.212-111.36-310.838z" fill="#AA6941" p-id="5653"></path><path d="M396.388 809.29c0 61.11 54.068 99.096 115.612 99.096s115.612-39.638 115.612-99.096H396.388zM594.142 212.61l0.014 0.018c-21.94-7.896-37.9-6.06-50.064 2.128-19.046 12.818-45.136 12.818-64.182 0-12.166-8.188-28.126-10.026-50.064-2.128l-1.418 0.528c-77.066 29.758-131.138 103.382-131.138 216.262 0 99.096 66.064 271.944 66.064 330.322h297.29c0-54.192 66.064-233.29 66.064-330.322 0.002-113.578-54.742-187.414-132.566-216.808z" fill="#FFB94B" p-id="5654"></path><path d="M512 512c-66.184 0-122.146 48.996-130.892 114.6l-17.752 133.142h297.29l-17.752-133.142C634.146 560.996 578.184 512 512 512z" fill="#FFAB4B" p-id="5655"></path><path d="M578.064 677.162h-132.13c-45.608 0-82.58 36.974-82.58 82.58 0 45.608 36.974 82.58 82.58 82.58 27.14 0 51.01-13.27 66.064-33.486 15.054 20.216 38.922 33.486 66.064 33.486 45.608 0 82.58-36.974 82.58-82.58 0.004-45.608-36.97-82.58-82.578-82.58z" fill="#FFE187" p-id="5656"></path><path d="M561.548 660.646h-99.096c-9.13 0-16.516 7.396-16.516 16.516s7.386 16.516 16.516 16.516c18.21 0 33.032 14.816 33.032 33.032v16.516a16.51 16.51 0 0 0 16.516 16.516 16.512 16.512 0 0 0 16.516-16.516v-16.516c0-18.218 14.824-33.032 33.032-33.032 9.13 0 16.516-7.396 16.516-16.516s-7.386-16.516-16.516-16.516z" fill="#464655" p-id="5657"></path><path d="M644.13 429.42m-24.774 0a24.774 24.774 0 1 0 49.548 0 24.774 24.774 0 1 0-49.548 0Z" fill="#464655" p-id="5658"></path><path d="M379.87 429.42m-24.774 0a24.774 24.774 0 1 0 49.548 0 24.774 24.774 0 1 0-49.548 0Z" fill="#464655" p-id="5659"></path><path d="M211.708 381.716c27.898-25.944 60.316-48.452 97.256-67.184-64.93-44.426-143.802-32.218-143.802-32.218s-1.05 53.628 46.546 99.402zM812.29 381.716c47.596-45.772 46.546-99.402 46.546-99.402s-78.872-12.208-143.802 32.218c36.94 18.732 69.358 41.238 97.256 67.184z" fill="#FFAB4B" p-id="5660"></path></svg>