
<svg width="128px" height="128px" viewBox="0 0 128 128" version="1.1" xmlns="http://www.w3.org/2000/svg" xmlns:xlink="http://www.w3.org/1999/xlink">

    <g id="icons" stroke="none" stroke-width="1" fill="none" fill-rule="evenodd">
        <g id="sun-fill" fill="#000000" fill-rule="nonzero">
            <g>
                <path d="M64.5,92.75 C48.4125,92.75 35.25,79.5875 35.25,63.5 C35.25,47.4125 48.4125,34.25 64.5,34.25 C80.5875,34.25 93.75,47.4125 93.75,63.5 C93.75,79.5875 80.5875,92.75 64.5,92.75 Z M64.5,44 C53.775,44 45,52.775 45,63.5 C45,74.225 53.775,83 64.5,83 C75.225,83 84,74.225 84,63.5 C84,52.775 75.225,44 64.5,44 Z" id="形状"></path>
                <path d="M64.5,24.5 C61.575,24.5 59.625,22.55 59.625,19.625 L59.625,9.875 C59.625,6.95 61.575,5 64.5,5 C67.425,5 69.375,6.95 69.375,9.875 L69.375,19.625 C69.375,22.55 67.425,24.5 64.5,24.5 Z" id="路径"></path>
                <path d="M64.5,122 C61.575,122 59.625,120.05 59.625,117.125 L59.625,107.375 C59.625,104.45 61.575,102.5 64.5,102.5 C67.425,102.5 69.375,104.45 69.375,107.375 L69.375,117.125 C69.375,120.05 67.425,122 64.5,122 Z" id="路径"></path>
                <path d="M33.3,37.175 C31.8375,37.175 30.8625,36.6875 29.8875,35.7125 L23.0625,28.8875 C21.1125,26.9375 21.1125,24.0125 23.0625,22.0625 C25.0125,20.1125 27.9375,20.1125 29.8875,22.0625 L36.7125,28.8875 C38.6625,30.8375 38.6625,33.7625 36.7125,35.7125 C36.225,36.6875 34.7625,37.175 33.3,37.175 Z" id="路径"></path>
                <path d="M102.525,106.4 C101.0625,106.4 100.0875,105.9125 99.1125,104.9375 L92.2875,98.1125 C90.3375,96.1625 90.3375,93.2375 92.2875,91.2875 C94.2375,89.3375 97.1625,89.3375 99.1125,91.2875 L105.9375,98.1125 C107.8875,100.0625 107.8875,102.9875 105.9375,104.9375 C104.9625,105.9125 103.5,106.4 102.525,106.4 Z" id="路径"></path>
                <path d="M20.625,68.375 L10.875,68.375 C7.95,68.375 6,66.425 6,63.5 C6,60.575 7.95,58.625 10.875,58.625 L20.625,58.625 C23.55,58.625 25.5,60.575 25.5,63.5 C25.5,66.425 23.55,68.375 20.625,68.375 Z" id="路径"></path>
                <path d="M118.125,68.375 L108.375,68.375 C105.45,68.375 103.5,66.425 103.5,63.5 C103.5,60.575 105.45,58.625 108.375,58.625 L118.125,58.625 C121.05,58.625 123,60.575 123,63.5 C123,66.425 121.05,68.375 118.125,68.375 Z" id="路径"></path>
                <path d="M26.475,106.4 C25.0125,106.4 24.0375,105.9125 23.0625,104.9375 C21.1125,102.9875 21.1125,100.0625 23.0625,98.1125 L29.8875,91.2875 C31.8375,89.3375 34.7625,89.3375 36.7125,91.2875 C38.6625,93.2375 38.6625,96.1625 36.7125,98.1125 L29.8875,104.9375 C28.9125,105.9125 27.9375,106.4 26.475,106.4 Z" id="路径"></path>
                <path d="M95.7,37.175 C94.2375,37.175 93.2625,36.6875 92.2875,35.7125 C90.3375,33.7625 90.3375,30.8375 92.2875,28.8875 L99.1125,22.0625 C101.0625,20.1125 103.9875,20.1125 105.9375,22.0625 C107.8875,24.0125 107.8875,26.9375 105.9375,28.8875 L99.1125,35.7125 C98.1375,36.6875 96.675,37.175 95.7,37.175 Z" id="路径"></path>
            </g>
        </g>
    </g>
</svg>
