
<svg width="128px" height="128px" viewBox="0 0 128 128" version="1.1" xmlns="http://www.w3.org/2000/svg" xmlns:xlink="http://www.w3.org/1999/xlink">

    <g id="icons" stroke="none" stroke-width="1" fill="none" fill-rule="evenodd">
        <g id="table-fill" fill="#000000" fill-rule="nonzero">
            <g id="形状">
                <path d="M80,112 L48,112 L48,53.3333333 L80,53.3333333 L80,112 Z M90.6666667,112 L90.6666667,53.3333333 L117.333333,53.3333333 L117.333333,106.666667 C117.333333,109.612185 114.945519,112 112,112 L90.6666667,112 Z M37.3333333,112 L16,112 C13.0544813,112 10.6666667,109.612185 10.6666667,106.666667 L10.6666667,53.3333333 L37.3333333,53.3333333 L37.3333333,112 Z M117.333333,42.6666667 L10.6666667,42.6666667 L10.6666667,21.3333333 C10.6666667,18.3878147 13.0544813,16 16,16 L112,16 C114.945519,16 117.333333,18.3878147 117.333333,21.3333333 L117.333333,42.6666667 Z"></path>
            </g>
        </g>
    </g>
</svg>
