
<svg width="128px" height="128px" viewBox="0 0 128 128" version="1.1" xmlns="http://www.w3.org/2000/svg" xmlns:xlink="http://www.w3.org/1999/xlink">

    <g id="icons" stroke="none" stroke-width="1" fill="none" fill-rule="evenodd">
        <g id="team-fill" fill="#000000" fill-rule="nonzero">
            <g id="形状">
                <path d="M64,58.6666667 C78.7275933,58.6666667 90.6666667,70.60574 90.6666667,85.3333333 L90.6666667,117.333333 L37.3333333,117.333333 L37.3333333,85.3333333 C37.3333333,70.60574 49.2724067,58.6666667 64,58.6666667 L64,58.6666667 Z M28.2026667,74.6986667 C27.3539074,77.5615271 26.8525297,80.5160743 26.7093333,83.4986667 L26.6666662,85.3333333 L26.6666662,117.333333 L10.6666662,117.333333 L10.6666662,93.3333333 C10.6644922,83.8088227 17.8334228,75.8101441 27.3013333,74.7733333 L28.208,74.6986667 L28.2026667,74.6986667 Z M99.7973333,74.6986667 C109.649089,75.2991574 117.331883,83.4632938 117.333333,93.3333333 L117.333333,117.333333 L101.333333,117.333333 L101.333333,85.3333333 C101.333333,81.6373333 100.8,78.0693333 99.7973333,74.6986667 L99.7973333,74.6986667 Z M29.3333333,42.6666667 C36.69713,42.6666667 42.6666667,48.6362033 42.6666667,56 C42.6666667,63.3637967 36.69713,69.3333333 29.3333333,69.3333333 C21.9695367,69.3333333 16,63.3637967 16,56 C16,48.6362033 21.9695367,42.6666667 29.3333333,42.6666667 Z M98.6666667,42.6666667 C106.030463,42.6666667 112,48.6362033 112,56 C112,63.3637967 106.030463,69.3333333 98.6666667,69.3333333 C91.30287,69.3333333 85.3333333,63.3637967 85.3333333,56 C85.3333333,48.6362033 91.30287,42.6666667 98.6666667,42.6666667 Z M64,10.6666667 C75.7820747,10.6666667 85.3333333,20.2179253 85.3333333,32 C85.3333333,43.7820747 75.7820747,53.3333333 64,53.3333333 C52.2179253,53.3333333 42.6666667,43.7820747 42.6666667,32 C42.6666667,20.2179253 52.2179253,10.6666667 64,10.6666667 Z"></path>
            </g>
        </g>
    </g>
</svg>
