
<svg width="128px" height="128px" viewBox="0 0 128 128" version="1.1" xmlns="http://www.w3.org/2000/svg" xmlns:xlink="http://www.w3.org/1999/xlink">

    <g id="icons" stroke="none" stroke-width="1" fill="none" fill-rule="evenodd">
        <g id="tools-line" fill="#000000" fill-rule="nonzero">
            <g id="形状">
                <path d="M28.4266667,17.4453333 C35.7094578,14.8466425 43.8405255,17.0071873 48.8727986,22.8781726 C53.9050717,28.7491579 54.7966233,37.1150023 51.1146667,43.9146667 L108.229333,101.034667 L100.688,108.576 L43.568,51.456 C36.7672233,55.1232133 28.4104461,54.2243352 22.5451243,49.1947212 C16.6798024,44.1651072 14.5169079,36.0431867 17.104,28.7626667 L29.0346667,40.6933333 C31.0432624,42.772986 34.0176898,43.6070341 36.8147253,42.8749106 C39.6117607,42.1427871 41.7961204,39.9584274 42.5282439,37.1613919 C43.2603674,34.3643565 42.4263193,31.3899291 40.3466667,29.3813333 L28.4213333,17.44 L28.4266667,17.4453333 Z M83.7173333,27.4933333 L100.688,18.064 L108.229333,25.6053333 L98.8,42.576 L89.3706667,44.464 L78.064,55.776 L70.5173333,48.2346667 L81.8293333,36.9226667 L83.7173333,27.4933333 Z M47.888,70.864 L55.4293333,78.4053333 L27.1466667,106.688 C25.1502311,108.690072 21.9383432,108.786255 19.8256841,106.907235 C17.7130249,105.028214 17.4338428,101.827038 19.1893333,99.6106667 L19.6053333,99.1466667 L47.888,70.864 Z"></path>
            </g>
        </g>
    </g>
</svg>
