
<svg width="128px" height="128px" viewBox="0 0 128 128" version="1.1" xmlns="http://www.w3.org/2000/svg" xmlns:xlink="http://www.w3.org/1999/xlink">

    <g id="icons" stroke="none" stroke-width="1" fill="none" fill-rule="evenodd">
        <g id="user-settings-line" fill="#000000" fill-rule="nonzero">
            <g id="形状">
                <path d="M64,74.6666667 L64,85.3333333 C46.326888,85.3333333 32,99.6602213 32,117.333333 L21.3333333,117.333333 C21.3333333,93.769184 40.4358507,74.6666667 64,74.6666667 L64,74.6666667 Z M64,69.3333333 C46.32,69.3333333 32,55.0133333 32,37.3333333 C32,19.6533333 46.32,5.33333333 64,5.33333333 C81.68,5.33333333 96,19.6533333 96,37.3333333 C96,55.0133333 81.68,69.3333333 64,69.3333333 Z M64,58.6666667 C75.7866667,58.6666667 85.3333333,49.12 85.3333333,37.3333333 C85.3333333,25.5466667 75.7866667,16 64,16 C52.2133333,16 42.6666667,25.5466667 42.6666667,37.3333333 C42.6666667,49.12 52.2133333,58.6666667 64,58.6666667 Z M77.84,100.330667 C77.1637601,97.4849562 77.1637601,94.5203772 77.84,91.6746667 L72.5493333,88.6186667 L77.8826667,79.3813333 L83.1733333,82.4373333 C85.2968669,80.4260283 87.8637917,78.9425103 90.6666667,78.1066667 L90.6666667,72 L101.333333,72 L101.333333,78.1066667 C104.170667,78.9493333 106.730667,80.4533333 108.826667,82.4373333 L114.117333,79.3813333 L119.450667,88.6186667 L114.16,91.6746667 C114.835395,94.5186739 114.835395,97.4813261 114.16,100.325333 L119.450667,103.381333 L114.117333,112.618667 L108.826667,109.562667 C106.703133,111.573972 104.136208,113.05749 101.333333,113.893333 L101.333333,120 L90.6666667,120 L90.6666667,113.893333 C87.8637917,113.05749 85.2968669,111.573972 83.1733333,109.562667 L77.8826667,112.618667 L72.5493333,103.381333 L77.84,100.330667 L77.84,100.330667 Z M96,104 C100.418278,104 104,100.418278 104,96 C104,91.581722 100.418278,88 96,88 C91.581722,88 88,91.581722 88,96 C88,100.418278 91.581722,104 96,104 Z"></path>
            </g>
        </g>
    </g>
</svg>
