
<svg width="128px" height="128px" viewBox="0 0 128 128" version="1.1" xmlns="http://www.w3.org/2000/svg" xmlns:xlink="http://www.w3.org/1999/xlink">

    <g id="icons" stroke="none" stroke-width="1" fill="none" fill-rule="evenodd">
        <g id="watermark-icon" fill="#000000" fill-rule="nonzero">
            <g transform="translate(11.000000, 11.000000)" id="形状">
                <path d="M7.10542736e-15,60.0736549 L102.378377,1.79339744 C100.824113,0.62736188 98.9330317,-0.0020375732 96.99,4.95563556e-06 L73.9624275,4.95563556e-06 L7.10542736e-15,42.1038724 L7.10542736e-15,60.0736549 Z M9.01,106.00001 L21.0233775,106.00001 L105.999603,57.6263799 L105.999603,39.6572599 L0.4344675,99.7509124 C1.63720639,103.471863 5.09949782,105.994878 9.01,106.00001 Z M0,89.0207974 L106,28.6791049 L106,10.7094549 L0,71.0510149 L0,89.0207974 Z M54.6783775,9.93542649e-06 L9.01,9.93542649e-06 C4.03624518,0.00563243674 0.00562250131,4.03625512 7.10542736e-15,9.01000994 L7.10542736e-15,31.1265124 L54.6783775,9.93542649e-06 Z M40.307295,106.00001 L96.99,106.00001 C101.963755,105.994387 105.994377,101.963765 106,96.9900099 L106,68.6037399 L40.307295,106.00001 Z"></path>
            </g>
        </g>
    </g>
</svg>
