<?xml version="1.0" standalone="no"?><!DOCTYPE svg PUBLIC "-//W3C//DTD SVG 1.1//EN" "http://www.w3.org/Graphics/SVG/1.1/DTD/svg11.dtd"><svg t="1628156535385" class="icon" viewBox="0 0 1024 1024" version="1.1" xmlns="http://www.w3.org/2000/svg" p-id="5494" xmlns:xlink="http://www.w3.org/1999/xlink" width="200" height="200"><path d="M621.911743 1010.869069a13.139792 13.139792 0 0 1-26.270723 0v-81.70948a13.139792 13.139792 0 0 1 26.270723 0v81.70948z" fill="#E7831E" p-id="5495"></path><path d="M677.713772 974.931783a13.130931 13.130931 0 1 1-17.818019 19.297684l-60.02838-55.429896a13.130931 13.130931 0 1 1 17.818018-19.297685l60.028381 55.429897z" fill="#E7831E" p-id="5496"></path><path d="M539.821272 974.931783a13.130931 13.130931 0 1 0 17.826878 19.297684l60.028381-55.429896a13.130931 13.130931 0 1 0-17.818019-19.297685l-60.03724 55.429897z" fill="#E7831E" p-id="5497"></path><path d="M430.228498 1010.869069a13.139792 13.139792 0 0 1-26.270723 0v-81.70948a13.130931 13.130931 0 1 1 26.270723 0v81.70948z" fill="#E7831E" p-id="5498"></path><path d="M486.039387 974.931783a13.130931 13.130931 0 1 1-17.826879 19.297684l-60.02838-55.429896a13.130931 13.130931 0 1 1 17.818018-19.297685l60.037241 55.429897z" fill="#E7831E" p-id="5499"></path><path d="M348.138027 974.931783a13.130931 13.130931 0 1 0 17.826878 19.297684l60.028381-55.429896a13.130931 13.130931 0 1 0-17.818019-19.297685l-60.03724 55.429897z" fill="#E7831E" p-id="5500"></path><path d="M800.818468 652.45312c0 156.596546-126.941197 283.528882-283.528882 283.528883H506.719275c-156.587686 0-283.528882-126.932337-283.528883-283.528883v-321.185062c0-156.596546 126.941197-283.528882 283.528883-283.528882h10.570311c156.587686 0 283.528882 126.932337 283.528882 283.528882v321.185062z" fill="#FDBD2C" p-id="5501"></path><path d="M506.719275 47.739176S635.326204 48.235351 657.503478 0c0 0 17.064895 19.669816 0 47.739176 0 0 1.497387 10.322223 28.08708 0 0 0 14.778943 5.387049-41.350915 30.01862" fill="#FDBD2C" p-id="5502"></path><path d="M687.938532 760.043471c0 97.161804-78.767868 175.929672-175.929672 175.929671-97.170664 0-175.929672-78.776728-175.929671-175.929671v-57.379158c0-97.170664 78.767868-175.938532 175.929671-175.938532 97.170664 0 175.929672 78.776728 175.929672 175.938532v57.379158z" fill="#F4C778" p-id="5503"></path><path d="M727.012356 540.627557l36.185374 131.725747a56.705776 56.705776 0 0 0 69.721524 39.667462 56.705776 56.705776 0 0 0 39.658602-69.712664s-8.789395-41.005365-14.708061-53.569238c-14.840965-31.533728-41.581283-59.213235-130.857439-48.111307zM296.987644 540.627557l-36.176513 131.725747a56.705776 56.705776 0 0 1-69.712664 39.667462 56.714637 56.714637 0 0 1-39.676323-69.712664s8.807116-41.005365 14.716921-53.569238c14.840965-31.533728 41.581283-59.213235 130.848579-48.111307z" fill="#F2B02A" p-id="5504"></path><path d="M383.596857 355.217388m-35.131 0a35.131001 35.131001 0 1 0 70.262001 0 35.131001 35.131001 0 1 0-70.262001 0Z" fill="#1A1A1A" p-id="5505"></path><path d="M383.596857 348.448136a13.263836 13.263836 0 1 1 26.527671 0 13.254975 13.254975 0 1 1-26.527671 0z" fill="#FFFFFF" p-id="5506"></path><path d="M640.403143 355.217388m-35.122141 0a35.12214 35.12214 0 1 0 70.244281 0 35.12214 35.12214 0 1 0-70.244281 0Z" fill="#1A1A1A" p-id="5507"></path><path d="M640.412003 348.448136a13.263836 13.263836 0 1 1 26.518811 0 13.263836 13.263836 0 0 1-26.518811 0z" fill="#FFFFFF" p-id="5508"></path><path d="M512 508.455889l-33.50071-58.025958-33.500709-58.025958h134.011698l-33.500709 58.025958z" fill="#E7831E" p-id="5509"></path></svg>