<?xml version="1.0" standalone="no"?><!DOCTYPE svg PUBLIC "-//W3C//DTD SVG 1.1//EN" "http://www.w3.org/Graphics/SVG/1.1/DTD/svg11.dtd"><svg t="1628156541492" class="icon" viewBox="0 0 1024 1024" version="1.1" xmlns="http://www.w3.org/2000/svg" p-id="5954" xmlns:xlink="http://www.w3.org/1999/xlink" width="200" height="200"><path d="M752.62688 679.637774c0 189.045396 0 344.270323-342.248447 342.248447h-6.249435C61.880552 1045.3216 61.880552 868.40746 61.880552 679.637774v-5.60611a342.248447 342.248447 0 0 1 342.248446-342.156544h6.249435a342.248447 342.248447 0 0 1 342.156543 342.248447v5.60611z" fill="#F68084" p-id="5955"></path><path d="M692.522023 853.24339c41.448456 35.015214 110.28414 41.724166 158.992968 19.207821 28.857683-13.326 99.163822-72.052305 35.750442-90.157284-34.463794-9.833669-67.181422 12.866483-63.41338 48.433118 5.3304 50.08738 56.888235 74.441794 101.920926 72.419919 15.9912-0.827131 51.465932-26.37629 19.391628-24.722028-39.15087 2.021876-78.026029-31.9824-73.52276-73.52276 0-1.470455 0.735228-2.94091 1.102841-4.411366q-33.544759 0-7.536083 15.807394c5.698014 13.509807-22.332538 32.441918-29.960524 37.404704-27.571035 18.38069-75.177022 0-97.877174-18.38069-11.947448-10.109379-56.244911 8.363214-44.848884 18.38069z" fill="#F68084" p-id="5956"></path><path d="M533.712862 170.95218A241.154652 241.154652 0 0 1 666.697154 10.02924s60.47247 101.093795 26.560097 216.156913" fill="#F6A3A5" p-id="5957"></path><path d="M545.844118 194.38756A186.931617 186.931617 0 0 1 648.867885 69.582675s46.870759 78.209836 20.586373 167.539989" fill="#F68084" p-id="5958"></path><path d="M284.01119 165.437973A241.154652 241.154652 0 0 0 151.118801 4.515033S90.646331 105.608827 124.558704 220.671946" fill="#F6A3A5" p-id="5959"></path><path d="M271.879934 188.873353A186.931617 186.931617 0 0 0 168.856167 64.068468S121.985408 142.370207 148.269794 231.70036" fill="#F68084" p-id="5960"></path><path d="M64.178138 394.001852C64.178138 222.326208 218.116416 83.184386 407.253716 83.184386S750.23739 222.326208 750.23739 394.001852 665.226699 704.819319 407.253716 704.819319C131.727173 704.819319 64.178138 565.677496 64.178138 394.001852z" fill="#F6A3A5" p-id="5961"></path><path d="M241.276085 357.240473m-35.199021 0a35.199021 35.199021 0 1 0 70.398043 0 35.199021 35.199021 0 1 0-70.398043 0Z" fill="#434849" p-id="5962"></path><path d="M254.602086 350.531521m-13.326001 0a13.326 13.326 0 1 0 26.652001 0 13.326 13.326 0 1 0-26.652001 0Z" fill="#FFFFFF" p-id="5963"></path><path d="M568.911884 350.715328m-35.199022 0a35.199021 35.199021 0 1 0 70.398043 0 35.199021 35.199021 0 1 0-70.398043 0Z" fill="#434849" p-id="5964"></path><path d="M582.237884 344.006376m-13.326 0a13.326 13.326 0 1 0 26.652 0 13.326 13.326 0 1 0-26.652 0Z" fill="#FFFFFF" p-id="5965"></path><path d="M407.253716 479.931578m-119.842099 0a119.842098 119.842098 0 1 0 239.684197 0 119.842098 119.842098 0 1 0-239.684197 0Z" fill="#F68084" p-id="5966"></path><path d="M354.409232 479.931578m-15.255973 0a15.255973 15.255973 0 1 0 30.511946 0 15.255973 15.255973 0 1 0-30.511946 0Z" fill="#DB6971" p-id="5967"></path><path d="M460.098199 479.931578m-15.255972 0a15.255973 15.255973 0 1 0 30.511945 0 15.255973 15.255973 0 1 0-30.511945 0Z" fill="#DB6971" p-id="5968"></path></svg>