<?xml version="1.0" encoding="UTF-8"?>
<svg width="128px" height="128px" viewBox="0 0 128 128" version="1.1" xmlns="http://www.w3.org/2000/svg" xmlns:xlink="http://www.w3.org/1999/xlink">
    <title>404</title>
    <g id="icons" stroke="none" stroke-width="1" fill="none" fill-rule="evenodd">
        <g id="404" fill="#000000" fill-rule="nonzero">
            <g id="形状">
                <path d="M121.695,73.268 L121.695,83.218 C125.65,75.636 127.891,67.174 127.891,58.232 C127.891,26.094 99.26,0.026 63.958,0.026 C28.658,0.026 0.026,26.094 0.026,58.232 C0.026,58.635 0.054,59.038 0.054,59.442 L23.014,33.499 L36.35,33.499 L16.597,60.675 L23.015,60.675 L23.015,53.775 L36.737,34.305 L36.737,83.646 L23.015,83.646 L23.015,73.268 L2.183,73.268 C8.132,93.544 25.781,109.462 48.163,114.651 C46.723,117.949 42.547,125.909 35.603,127.319 C26.999,129.083 58.951,127.747 81.747,114.147 C99.259,109.537 113.672,98.304 121.501,83.647 L108,83.647 L108,73.267 L85.01,73.267 L85.01,59.466 L108,33.499 L121.002,33.499 L101.581,60.675 L108,60.675 L108,53.245 L121.722,33.851 L121.722,73.268 L121.695,73.268 Z M43.486,76.09 C42.8205176,74.6720443 42.4802296,73.1233237 42.4897954,71.557 L42.4897954,44.557 C42.4897954,42.944 42.823,41.434 43.486,40.024 C44.1383275,38.6306949 45.0600475,37.3803233 46.198,36.345 C47.332,35.314 48.688,34.482 50.237,33.878 C51.786,33.273 53.445,32.971 55.217,32.971 L66.504,32.971 C68.274,32.971 69.934,33.273 71.483,33.878 C73.004,34.482 74.332,35.288 75.467,36.295 L63.212,52.591 L63.212,49.694 C63.2241499,49.1168054 62.9812131,48.5636119 62.548,48.182 C62.105,47.78 61.552,47.579 60.888,47.579 C60.224,47.579 59.671,47.779 59.228,48.182 C58.7947869,48.5636119 58.5518501,49.1168054 58.564,49.694 L58.564,58.761 L44.372,77.601 C44.0352532,77.1224386 43.7388981,76.6166949 43.486,76.089 L43.486,76.09 Z M79.202,71.557 C79.202,73.169 78.87,74.68 78.205,76.09 C77.5532637,77.4831321 76.6322328,78.733491 75.495,79.769 C74.361,80.8 73.005,81.632 71.456,82.237 C69.906,82.84 68.247,83.143 66.476,83.143 L55.189,83.143 C53.419,83.143 51.759,82.84 50.209,82.237 C48.66,81.632 47.305,80.8 46.17,79.767 C45.668,79.303 45.206,78.797 44.787,78.257 L58.508,60.047 L58.508,66.419 C58.508,67.024 58.73,67.528 59.173,67.93 C59.615,68.333 60.169,68.534 60.833,68.534 C61.496,68.534 62.05,68.334 62.492,67.93 C62.924943,67.5486154 63.1678534,66.9958478 63.156,66.419 L63.156,53.874 L75.966,36.849 C76.8780293,37.7738736 77.6260377,38.8471912 78.178,40.023 C78.842,41.433 79.174,42.943 79.174,44.556 L79.174,71.556 L79.202,71.556 L79.202,71.557 Z"></path>
            </g>
        </g>
    </g>
</svg>