<?xml version="1.0" encoding="UTF-8"?>
<svg width="128px" height="128px" viewBox="0 0 128 128" version="1.1" xmlns="http://www.w3.org/2000/svg" xmlns:xlink="http://www.w3.org/1999/xlink">
    <title>bug</title>
    <g id="icons" stroke="none" stroke-width="1" fill="none" fill-rule="evenodd">
        <g id="bug" fill="#000000" fill-rule="nonzero">
            <g id="bug-fill" transform="translate(0.000000, 0.000000)">
                <path d="M26.4280494,40.6123457 C26.8310389,39.9695829 27.2504694,39.3372757 27.6859259,38.7160494 L100.314074,38.7160494 C100.750222,39.3355062 101.167407,39.9739259 101.571951,40.6123457 L114.340346,33.2420741 L120.661333,44.1900247 L106.672988,52.2682469 C107.696988,55.9976296 108.246914,59.9356049 108.246914,64 L108.246914,70.3209877 L127.209877,70.3209877 L127.209877,82.962963 L108.246914,82.962963 C108.246914,88.9868642 107.045926,94.732642 104.858864,99.9664198 L120.661333,109.093926 L114.340346,120.041877 L98.3735309,110.825877 C91.3647672,119.482759 81.3457633,125.174041 70.3209877,126.761086 L70.3209877,76.6419753 L57.6790123,76.6419753 L57.6790123,126.767407 C46.6533008,125.178738 36.634158,119.485119 29.6264691,110.825877 L13.6596543,120.041877 L7.33866667,109.093926 L23.1411358,99.9727407 C20.8973381,94.5828708 19.7457352,88.8012223 19.7530864,82.962963 L0.790123457,82.962963 L0.790123457,70.3209877 L19.7530864,70.3209877 L19.7530864,64 C19.7530864,59.9356049 20.3030123,56.0039506 21.3270123,52.2682469 L7.33866667,44.1900247 L13.6596543,33.2420741 L26.4280494,40.6123457 Z M38.7160494,26.0740741 C38.7160494,12.1101337 50.0360597,0.790123457 64,0.790123457 C77.9639403,0.790123457 89.2839506,12.1101337 89.2839506,26.0740741 L38.7160494,26.0740741 L38.7160494,26.0740741 Z" id="形状"></path>
            </g>
        </g>
    </g>
</svg>