<?xml version="1.0" encoding="UTF-8"?><svg width="128px" height="128px" viewBox="0 0 128 128" version="1.1" xmlns="http://www.w3.org/2000/svg" xmlns:xlink="http://www.w3.org/1999/xlink"><title>calendar-todo-fill</title><g id="icons" stroke="none" stroke-width="1" fill-rule="evenodd"><g id="calendar-todo-fill" fill-rule="nonzero"><g id="形状"><path d="M90.6666667,16 L112,16 C114.945519,16 117.333333,18.3878147 117.333333,21.3333333 L117.333333,106.666667 C117.333333,109.612185 114.945519,112 112,112 L16,112 C13.0544813,112 10.6666667,109.612185 10.6666667,106.666667 L10.6666667,21.3333333 C10.6666667,18.3878147 13.0544813,16 16,16 L37.3333333,16 L37.3333333,5.33333333 L48,5.33333333 L48,16 L80,16 L80,5.33333333 L90.6666667,5.33333333 L90.6666667,16 Z M21.3333333,48 L21.3333333,101.333333 L106.666667,101.333333 L106.666667,48 L21.3333333,48 Z M32,58.6666667 L42.6666667,58.6666667 L42.6666667,69.3333333 L32,69.3333333 L32,58.6666667 Z M32,80 L42.6666667,80 L42.6666667,90.6666667 L32,90.6666667 L32,80 Z M53.3333333,58.6666667 L96,58.6666667 L96,69.3333333 L53.3333333,69.3333333 L53.3333333,58.6666667 Z M53.3333333,80 L80,80 L80,90.6666667 L53.3333333,90.6666667 L53.3333333,80 Z"/></g></g></g></svg>