<?xml version="1.0" encoding="UTF-8"?>
<svg width="128px" height="128px" viewBox="0 0 128 128" version="1.1" xmlns="http://www.w3.org/2000/svg" xmlns:xlink="http://www.w3.org/1999/xlink">
    <title>clipboard</title>
    <g id="icons" stroke="none" stroke-width="1" fill="none" fill-rule="evenodd">
        <g id="clipboard" fill="#000000" fill-rule="nonzero">
            <g transform="translate(6.000000, 0.000000)" id="形状">
                <path d="M25.6,25.6 L25.6,6.4 C25.6,2.8653776 28.4653776,0 32,0 L108.8,0 C112.334622,0 115.2,2.8653776 115.2,6.4 L115.2,96 C115.2,99.5346224 112.334622,102.4 108.8,102.4 L89.6,102.4 L89.6,121.6 C89.6,125.1328 86.72,128.000115 83.1552,128.000115 L6.4448,128.000115 C4.74018214,128.010218 3.10178044,127.340653 1.89221522,126.139496 C0.682650001,124.938339 0.00167231795,123.304648 0,121.6 L0.0192,32 C0.0192,28.4672 2.8992,25.6 6.464,25.6 L25.6,25.6 Z M38.4,25.6 L89.6,25.6 L89.6,89.6 L102.4,89.6 L102.4,12.8 L38.4,12.8 L38.4,25.6 Z M25.6,57.6 L25.6,70.4 L64,70.4 L64,57.6 L25.6,57.6 Z M25.6,83.2 L25.6,96 L64,96 L64,83.2 L25.6,83.2 Z"></path>
            </g>
        </g>
    </g>
</svg>