<?xml version="1.0" encoding="UTF-8"?><svg width="128px" height="128px" viewBox="0 0 128 128" version="1.1" xmlns="http://www.w3.org/2000/svg" xmlns:xlink="http://www.w3.org/1999/xlink"><title>draft-fill</title><g id="icons" stroke="none" stroke-width="1" fill-rule="evenodd"><g id="draft-fill" fill-rule="nonzero"><g id="形状"><path d="M106.666667,10.6666667 C109.610667,10.6666667 112,13.056 112,16 L112,36.0373333 L64.0053333,84.0373333 L63.9733333,106.64 L86.6186667,106.672 L112,81.2906667 L112,112 C112,114.944 109.610667,117.333333 106.666667,117.333333 L21.3333333,117.333333 C18.3893333,117.333333 16,114.944 16,112 L16,16 C16,13.056 18.3893333,10.6666667 21.3333333,10.6666667 L106.666667,10.6666667 Z M116.149333,46.976 L123.690667,54.5173333 L82.208,96 L74.656,95.9893333 L74.6666667,88.4586667 L116.149333,46.976 L116.149333,46.976 Z M64,64 L37.3333333,64 L37.3333333,74.6666667 L64,74.6666667 L64,64 Z M80,42.6666667 L37.3333333,42.6666667 L37.3333333,53.3333333 L80,53.3333333 L80,42.6666667 Z"/></g></g></g></svg>