<?xml version="1.0" encoding="UTF-8"?>
<svg width="128px" height="128px" viewBox="0 0 128 128" version="1.1" xmlns="http://www.w3.org/2000/svg" xmlns:xlink="http://www.w3.org/1999/xlink">
    <title>excel</title>
    <g id="icons" stroke="none" stroke-width="1" fill="none" fill-rule="evenodd">
        <g id="excel" fill="#000000" fill-rule="nonzero">
            <g transform="translate(5.000000, 0.000000)" id="形状">
                <path d="M4.99781818,10.9207273 L78.1323636,0.477090909 C78.9674991,0.357287652 79.8135104,0.605948831 80.4510001,1.15858881 C81.0884899,1.71122879 81.4545455,2.51340606 81.4545455,3.35709091 L81.4545455,124.642909 C81.4545455,125.485424 81.089033,126.286503 80.4529067,126.838928 C79.8167803,127.391354 78.9723988,127.640861 78.1381818,127.522909 L4.992,117.079273 C2.12459596,116.670889 -0.00581818182,114.215612 -0.00581818182,111.319273 L-0.00581818182,16.6807273 C-0.00581818182,13.7843876 2.12459596,11.3291112 4.992,10.9207273 L4.99781818,10.9207273 Z M87.2727273,11.6363636 L110.545455,11.6363636 C113.758748,11.6363636 116.363636,14.2412524 116.363636,17.4545455 L116.363636,110.545455 C116.363636,113.758748 113.758748,116.363636 110.545455,116.363636 L87.2727273,116.363636 L87.2727273,11.6363636 Z M47.7090909,64 L64,40.7272727 L50.0363636,40.7272727 L40.7272727,54.0276364 L31.4181818,40.7272727 L17.4545455,40.7272727 L33.7454545,64 L17.4545455,87.2727273 L31.4181818,87.2727273 L40.7272727,73.9723636 L50.0363636,87.2727273 L64,87.2727273 L47.7090909,64 Z"></path>
            </g>
        </g>
    </g>
</svg>