<?xml version="1.0" encoding="UTF-8"?>
<svg width="128px" height="128px" viewBox="0 0 128 128" version="1.1" xmlns="http://www.w3.org/2000/svg" xmlns:xlink="http://www.w3.org/1999/xlink">
    <title>exit-fullscreen</title>
    <g id="icons" stroke="none" stroke-width="1" fill="none" fill-rule="evenodd">
        <g id="exit-fullscreen" fill="#000000" fill-rule="nonzero">
            <g id="形状">
                <path d="M43.056,16.997 C42.916,15.851 41.51,15.365 40.694,16.181 L33.108,23.767 L9.896,0.573 C9.35270333,0.0348551157 8.47729667,0.0348551157 7.934,0.573 L0.573,7.917 C0.0355151275,8.4601784 0.0355151275,9.3348216 0.573,9.878 L23.785,33.09 L16.163,40.712 C15.347,41.528 15.833,42.934 16.979,43.072 L44.792,46.354 C45.2150603,46.4037336 45.6376038,46.2570213 45.9388125,45.9558125 C46.2400213,45.6546038 46.3867336,45.2320603 46.337,44.809 L43.056,16.997 L43.056,16.997 Z M44.809,81.788 L16.979,85.069 C15.833,85.209 15.347,86.615 16.163,87.431 L23.785,95.052 L0.573,118.23 C0.0348551157,118.773297 0.0348551157,119.648703 0.573,120.192 L7.934,127.536 C8.47729667,128.074145 9.35270333,128.074145 9.896,127.536 L33.108,104.341 L40.694,111.928 C41.51,112.744 42.917,112.258 43.056,111.112 L46.336,83.317 C46.386206,82.8985421 46.2415854,82.4801905 45.9436665,82.1820764 C45.6457476,81.8839624 45.2274907,81.7390679 44.809,81.789 L44.809,81.788 Z M83.316,46.337 L111.146,43.056 C112.292,42.916 112.778,41.51 111.962,40.694 L104.34,33.09 L127.552,9.896 C128.090145,9.35270333 128.090145,8.47729667 127.552,7.934 L120.191,0.59 C119.647703,0.0518551157 118.772297,0.0518551157 118.229,0.59 L95.017,23.767 L87.431,16.181 C86.615,15.365 85.208,15.851 85.069,16.997 L81.789,44.792 C81.7355096,45.2126582 81.8783851,45.6345534 82.1764685,45.9361505 C82.4745519,46.2377477 82.8947439,46.3855573 83.316,46.337 L83.316,46.337 Z M104.34,95.035 L111.962,87.413 C112.778,86.597 112.292,85.191 111.146,85.053 L83.333,81.77 C82.9099397,81.7202664 82.4873962,81.8669787 82.1861875,82.1681875 C81.8849787,82.4693962 81.7382664,82.8919397 81.788,83.315 L85.069,111.127 C85.209,112.273 86.615,112.759 87.431,111.943 L95.017,104.357 L118.229,127.551 C118.772297,128.089145 119.647703,128.089145 120.191,127.551 L127.552,120.207 C128.089485,119.663822 128.089485,118.789178 127.552,118.246 L104.34,95.035 Z"></path>
            </g>
        </g>
    </g>
</svg>