<?xml version="1.0" encoding="UTF-8"?>
<svg width="128px" height="128px" viewBox="0 0 128 128" version="1.1" xmlns="http://www.w3.org/2000/svg" xmlns:xlink="http://www.w3.org/1999/xlink">
    <title>fullscreen</title>
    <g id="icons" stroke="none" stroke-width="1" fill="none" fill-rule="evenodd">
        <g id="fullscreen" fill="#000000" fill-rule="nonzero">
            <g id="形状">
                <path d="M23.55,14.022 L31.504,6.069 C32.355,5.217 31.848,3.75 30.652,3.605 L1.63,0.181 C1.18865195,0.12936408 0.747939248,0.282521595 0.433730421,0.596730421 C0.119521595,0.910939248 -0.03363592,1.35165195 0.018,1.793 L3.442,30.815 C3.587,32.011 5.054,32.518 5.906,31.667 L13.822,23.75 L38.043,47.953 C38.6098639,48.5153334 39.5241361,48.5153334 40.091,47.953 L47.771,40.29 C48.3326724,39.7232538 48.3326724,38.8097462 47.771,38.243 L23.551,14.022 L23.55,14.022 Z M87.446,47.952 C88.0127462,48.5136724 88.9262538,48.5136724 89.493,47.952 L113.713,23.75 L121.63,31.667 C122.482,32.518 123.95,32.011 124.094,30.815 L127.518,1.812 C127.569969,1.37048959 127.41696,0.929482917 127.102707,0.615035126 C126.788454,0.300587336 126.347543,0.14730442 125.906,0.199 L96.884,3.623 C95.688,3.768 95.181,5.236 96.033,6.087 L103.986,14.04 L79.764,38.225 C79.2023276,38.7917462 79.2023276,39.7052538 79.764,40.272 L87.446,47.952 L87.446,47.952 Z M124.094,97.083 C123.949,95.888 122.482,95.38 121.63,96.232 L113.714,104.149 L89.493,79.946 C88.9262538,79.3843276 88.0127462,79.3843276 87.446,79.946 L79.764,87.609 C79.2023276,88.1757462 79.2023276,89.0892538 79.764,89.656 L103.986,113.876 L96.033,121.83 C95.181,122.681 95.688,124.149 96.884,124.293 L125.906,127.717 C126.347348,127.768636 126.788061,127.615478 127.10227,127.30127 C127.416478,126.987061 127.569636,126.546348 127.518,126.105 L124.094,97.083 L124.094,97.083 Z M40.091,79.946 C39.5241361,79.3836666 38.6098639,79.3836666 38.043,79.946 L13.823,104.149 L5.906,96.232 C5.054,95.38 3.587,95.888 3.442,97.083 L0.018,126.087 C-0.03363592,126.528348 0.119521595,126.969061 0.433730421,127.28327 C0.747939248,127.597478 1.18865195,127.750636 1.63,127.699 L30.652,124.275 C31.848,124.13 32.355,122.663 31.504,121.812 L23.551,113.877 L47.771,89.674 C48.3326724,89.1072538 48.3326724,88.1937462 47.771,87.627 L40.091,79.946 Z"></path>
            </g>
        </g>
    </g>
</svg>