<?xml version="1.0" encoding="UTF-8"?>
<svg width="128px" height="128px" viewBox="0 0 128 128" version="1.1" xmlns="http://www.w3.org/2000/svg" xmlns:xlink="http://www.w3.org/1999/xlink">
    <title>github</title>
    <g id="icons" stroke="none" stroke-width="1" fill="none" fill-rule="evenodd">
        <g id="github" fill="#000000" fill-rule="nonzero">
            <g id="路径">
                <path d="M63.943,0.0439942371 C28.614,0.029 0,29.298 0,65.424 C0,93.991 17.9,118.274 42.829,127.193 C46.186,128.056 45.671,125.614 45.671,123.947 L45.671,112.617 C26.286,114.942 25.5,101.813 24.2,99.62 C21.571,95.03 15.357,93.86 17.214,91.667 C21.629,89.342 26.129,92.251 31.343,100.132 C35.114,105.848 42.471,104.883 46.2,103.932 C46.9914464,100.565153 48.7083998,97.4866216 51.157,95.0439942 C31.071,91.36 22.7,78.816 22.7,63.904 C22.7,56.667 25.029,50.014 29.6,44.649 C26.686,35.804 29.871,28.231 30.3,27.105 C38.6,26.345 47.229,33.187 47.9,33.728 C52.614,32.427 58,31.74 64.029,31.74 C70.086,31.74 75.486,32.456 80.243,33.772 C81.857,32.515 89.857,26.637 97.571,27.354 C97.986,28.48 101.1,35.877 98.357,44.605 C102.986,49.985 105.343,56.695 105.343,63.947 C105.343,78.889 96.914,91.447 76.771,95.073 C80.2704243,98.6152731 82.2270322,103.397693 82.214,108.377 L82.214,124.825 C82.329,126.14 82.214,127.442 84.357,127.442 C109.657,118.713 127.871,94.254 127.871,65.439 C127.871,29.299 99.243,0.0439942371 63.943,0.0439942371 L63.943,0.0439942371 Z"></path>
            </g>
        </g>
    </g>
</svg>