<?xml version="1.0" encoding="UTF-8"?>
<svg width="128px" height="128px" viewBox="0 0 128 128" version="1.1" xmlns="http://www.w3.org/2000/svg" xmlns:xlink="http://www.w3.org/1999/xlink">
    <title>guide</title>
    <g id="icons" stroke="none" stroke-width="1" fill="none" fill-rule="evenodd">
        <g id="guide" fill="#000000" fill-rule="nonzero">
            <g id="direction-fill">
                <path d="M46.8864809,52.7126388 C43.6687828,52.7126388 41.0603231,55.3210985 41.0603231,58.5387966 L41.0603231,81.8434278 L52.7126388,81.8434278 L52.7126388,64.3649544 L70.1911122,64.3649544 L70.1911122,78.9303489 L90.5826645,58.5387966 L70.1911122,38.1472442 L70.1911122,52.7126388 L46.8864809,52.7126388 Z M68.4840479,2.56689849 L126.16301,60.2458608 C128.437437,62.5209746 128.437437,66.2089342 126.16301,68.4840479 L68.4840479,126.16301 C66.2089342,128.437437 62.5209746,128.437437 60.2458608,126.16301 L2.56689849,68.4840479 C0.29247171,66.2089342 0.29247171,62.5209746 2.56689849,60.2458608 L60.2458608,2.56689849 C62.5209746,0.29247171 66.2089342,0.29247171 68.4840479,2.56689849 Z" id="形状"></path>
            </g>
        </g>
    </g>
</svg>