<?xml version="1.0" encoding="UTF-8"?>
<svg width="128px" height="128px" viewBox="0 0 128 128" version="1.1" xmlns="http://www.w3.org/2000/svg" xmlns:xlink="http://www.w3.org/1999/xlink">
    <title>icon</title>
    <g id="icons" stroke="none" stroke-width="1" fill="none" fill-rule="evenodd">
        <g id="icon" fill="#000000" fill-rule="nonzero">
            <g transform="translate(0.000000, 6.000000)" id="形状">
                <path d="M110.545455,69.8181818 L110.545455,87.2727273 L128,87.2727273 L128,98.9090909 L110.545455,98.9090909 L110.545455,116.363636 L98.9090909,116.363636 L98.9090909,98.9090909 L81.4545455,98.9090909 L81.4545455,87.2727273 L98.9090909,87.2727273 L98.9090909,69.8181818 L110.545455,69.8181818 Z M110.592,0 C113.780364,0 116.363636,2.58909091 116.363636,5.77745455 L116.363636,60.1716364 C112.626226,58.8514666 108.690993,58.1785418 104.727273,58.1818182 L104.727273,11.6363636 L11.6363636,11.6363636 L11.6421818,93.0909091 L65.7047273,39.0225455 C67.7749011,36.9456011 71.0679803,36.7360416 73.3847273,38.5338182 L73.9258182,39.0283636 L94.5570909,59.6829091 C85.4412666,62.4606767 77.8563137,68.8426526 73.5607205,77.3492456 C69.2651273,85.8558385 68.6319558,95.748271 71.808,104.733091 L5.77163636,104.727273 C2.5831087,104.724062 0,102.138347 0,98.9498182 L0,5.77745455 C0.0221546072,2.59814135 2.5923471,0.0253579334 5.77163636,0 L110.592,0 Z M34.9090909,23.2727273 C41.3356771,23.2727273 46.5454545,28.4825047 46.5454545,34.9090909 C46.5454545,41.3356771 41.3356771,46.5454545 34.9090909,46.5454545 C28.4825047,46.5454545 23.2727273,41.3356771 23.2727273,34.9090909 C23.2727273,28.4825047 28.4825047,23.2727273 34.9090909,23.2727273 Z"></path>
            </g>
        </g>
    </g>
</svg>