<?xml version="1.0" encoding="UTF-8"?><svg width="128px" height="128px" viewBox="0 0 128 128" version="1.1" xmlns="http://www.w3.org/2000/svg" xmlns:xlink="http://www.w3.org/1999/xlink"><title>live-line</title><g id="icons" stroke="none" stroke-width="1" fill-rule="evenodd"><g id="live-line" fill-rule="nonzero"><g id="形状"><path d="M85.3333333,21.3333333 C88.278852,21.3333333 90.6666667,23.721148 90.6666667,26.6666667 L90.6666667,49.0666667 L118.469333,29.6 C119.284256,29.0287554 120.349465,28.9588286 121.232073,29.4186369 C122.114681,29.8784453 122.666668,30.7914688 122.666668,31.7866667 L122.666668,96.2133333 C122.666668,97.2085312 122.114681,98.1215547 121.232073,98.5813631 C120.349465,99.0411714 119.284256,98.9712446 118.469333,98.4 L90.6666667,78.9333333 L90.6666667,101.333333 C90.6666667,104.278852 88.278852,106.666667 85.3333333,106.666667 L10.6666667,106.666667 C7.721148,106.666667 5.33333333,104.278852 5.33333333,101.333333 L5.33333333,26.6666667 C5.33333333,23.721148 7.721148,21.3333333 10.6666667,21.3333333 L85.3333333,21.3333333 Z M80,32 L16,32 L16,96 L80,96 L80,32 Z M39.4666667,47.0879921 C39.8725628,47.0868928 40.2703513,47.2016039 40.6133333,47.4186667 L63.84,62.2026667 C64.4531301,62.5947034 64.8241145,63.2722491 64.8241145,64 C64.8241145,64.7277509 64.4531301,65.4052966 63.84,65.7973333 L40.6133333,80.5866667 C39.9543332,81.0067413 39.1183886,81.0328611 38.4344484,80.6547478 C37.7505082,80.2766345 37.3280576,79.5548165 37.3332845,78.7733333 L37.3332845,49.2266667 C37.3332845,48.048 38.2933333,47.0933333 39.4666667,47.0933333 L39.4666667,47.0879921 Z M112,47.1466667 L90.6666667,62.08 L90.6666667,65.9093333 L112,80.8426667 L112,47.1466667 Z"/></g></g></g></svg>