<?xml version="1.0" encoding="UTF-8"?><svg width="128px" height="128px" viewBox="0 0 128 128" version="1.1" xmlns="http://www.w3.org/2000/svg" xmlns:xlink="http://www.w3.org/1999/xlink"><title>message-2-fill</title><g id="icons" stroke="none" stroke-width="1" fill-rule="evenodd"><g id="message-2-fill" fill-rule="nonzero"><g id="形状"><path d="M34.4266667,101.333333 L10.6666667,120 L10.6666667,21.3333333 C10.6666667,18.3878147 13.0544813,16 16,16 L112,16 C114.945519,16 117.333333,18.3878147 117.333333,21.3333333 L117.333333,96 C117.333333,98.9455187 114.945519,101.333333 112,101.333333 L34.4266667,101.333333 Z M37.3333333,53.3333333 L37.3333333,64 L48,64 L48,53.3333333 L37.3333333,53.3333333 Z M58.6666667,53.3333333 L58.6666667,64 L69.3333333,64 L69.3333333,53.3333333 L58.6666667,53.3333333 Z M80,53.3333333 L80,64 L90.6666667,64 L90.6666667,53.3333333 L80,53.3333333 Z"/></g></g></g></svg>