<?xml version="1.0" encoding="UTF-8"?>
<svg width="128px" height="128px" viewBox="0 0 128 128" version="1.1" xmlns="http://www.w3.org/2000/svg" xmlns:xlink="http://www.w3.org/1999/xlink">
    <title>nested</title>
    <g id="icons" stroke="none" stroke-width="1" fill="none" fill-rule="evenodd">
        <g id="nested" fill="#000000" fill-rule="nonzero">
            <g id="stack-fill-(1)" transform="translate(6.000000, 0.000000)">
                <path d="M106.601723,56.6371681 L113.863363,60.992944 C114.774648,61.5384933 115.332456,62.5225568 115.332456,63.5846608 C115.332456,64.6467647 114.774648,65.6308282 113.863363,66.1763776 L57.7699115,99.8324484 L1.67646018,66.1763776 C0.765174991,65.6308282 0.207366603,64.6467647 0.207366603,63.5846608 C0.207366603,62.5225568 0.765174991,61.5384933 1.67646018,60.992944 L8.93810029,56.6371681 L57.7699115,85.9374631 L106.601723,56.6371681 Z M106.601723,85.0312684 L113.863363,89.3870442 C114.774648,89.9325936 115.332456,90.9166571 115.332456,91.9787611 C115.332456,93.040865 114.774648,94.0249285 113.863363,94.5704779 L60.8811799,126.359788 C58.9664963,127.51013 56.5733267,127.51013 54.6586431,126.359788 L1.67646018,94.5704779 C0.765174991,94.0249285 0.207366603,93.040865 0.207366603,91.9787611 C0.207366603,90.9166571 0.765174991,89.9325936 1.67646018,89.3870442 L8.93810029,85.0312684 L57.7699115,114.331563 L106.601723,85.0312684 L106.601723,85.0312684 Z M60.8751386,1.11159882 L113.863363,32.9009086 C114.774648,33.4464579 115.332456,34.4305214 115.332456,35.4926254 C115.332456,36.5547293 114.774648,37.5387928 113.863363,38.0843422 L57.7699115,71.740413 L1.67646018,38.0843422 C0.765174991,37.5387928 0.207366603,36.5547293 0.207366603,35.4926254 C0.207366603,34.4305214 0.765174991,33.4464579 1.67646018,32.9009086 L54.6586431,1.11159882 C56.5733267,-0.0387434295 58.9664963,-0.0387434295 60.8811799,1.11159882 L60.8751386,1.11159882 Z" id="形状"></path>
            </g>
        </g>
    </g>
</svg>