<?xml version="1.0" encoding="UTF-8"?><svg width="128px" height="128px" viewBox="0 0 128 128" version="1.1" xmlns="http://www.w3.org/2000/svg" xmlns:xlink="http://www.w3.org/1999/xlink"><title>page</title><g id="icons" stroke="none" stroke-width="1" fill-rule="evenodd"><g id="page" fill-rule="nonzero"><g id="pages-fill"><path d="M106.666667,117.333333 L21.3333333,117.333333 C18.3878147,117.333333 16,114.945519 16,112 L16,42.6666667 L112,42.6666667 L112,112 C112,114.945519 109.612185,117.333333 106.666667,117.333333 Z M112,32 L16,32 L16,16 C16,13.0544813 18.3878147,10.6666667 21.3333333,10.6666667 L106.666667,10.6666667 C109.612185,10.6666667 112,13.0544813 112,16 L112,32 Z M37.3333333,58.6666667 L37.3333333,80 L58.6666667,80 L58.6666667,58.6666667 L37.3333333,58.6666667 Z M37.3333333,90.6666667 L37.3333333,101.333333 L90.6666667,101.333333 L90.6666667,90.6666667 L37.3333333,90.6666667 Z M69.3333333,64 L69.3333333,74.6666667 L90.6666667,74.6666667 L90.6666667,64 L69.3333333,64 Z" id="形状"/></g></g></g></svg>