<?xml version="1.0" encoding="UTF-8"?>
<svg width="128px" height="128px" viewBox="0 0 128 128" version="1.1" xmlns="http://www.w3.org/2000/svg" xmlns:xlink="http://www.w3.org/1999/xlink">
    <title>pdf</title>
    <g id="icons" stroke="none" stroke-width="1" fill="none" fill-rule="evenodd">
        <g id="pdf" fill="#000000" fill-rule="nonzero">
            <g transform="translate(6.000000, 0.000000)" id="形状">
                <path d="M83.2,0 L115.2,32 L115.2,121.6512 C115.196468,125.15858 112.352182,128 108.8448,128 L6.3552,128 C2.85795548,127.97563 0.0278937267,125.148418 0,121.6512 L0,6.3488 C0,2.8416 2.848,0 6.3552,0 L83.2,0 Z M57.6,89.6 C71.7384896,89.6 83.2,78.1384896 83.2,64 C83.2,49.8615104 71.7384896,38.4 57.6,38.4 L32,38.4 L32,89.6 L57.6,89.6 Z M44.8,51.2 L57.6,51.2 C64.6692448,51.2 70.4,56.9307552 70.4,64 C70.4,71.0692448 64.6692448,76.8 57.6,76.8 L44.8,76.8 L44.8,51.2 Z"></path>
            </g>
        </g>
    </g>
</svg>