<?xml version="1.0" encoding="UTF-8"?>
<svg width="128px" height="128px" viewBox="0 0 128 128" version="1.1" xmlns="http://www.w3.org/2000/svg" xmlns:xlink="http://www.w3.org/1999/xlink">
    <title>permission</title>
    <g id="icons" stroke="none" stroke-width="1" fill="none" fill-rule="evenodd">
        <g id="permission" fill="#000000" fill-rule="nonzero">
            <g transform="translate(6.000000, 0.000000)" id="形状">
                <path d="M102.4,51.2 L108.8,51.2 C112.334622,51.2 115.2,54.0653776 115.2,57.6 L115.2,121.6 C115.2,125.134622 112.334622,127.999999 108.8,127.999999 L6.4,127.999999 C2.8653776,127.999999 0,125.134622 0,121.6 L0,57.6 C0,54.0653776 2.8653776,51.2 6.4,51.2 L12.8,51.2 L12.8,44.8 C12.7999998,28.7945014 21.3388315,14.0048107 35.1999998,6.00206135 C49.0611681,-2.00068801 66.1388319,-2.00068801 80,6.00206135 C93.8611685,14.0048107 102.4,28.7945014 102.4,44.8 L102.4,51.2 Z M89.6,51.2 L89.6,44.8 C89.6,27.126888 75.273112,12.8 57.6,12.8 C39.926888,12.8 25.6,27.126888 25.6,44.8 L25.6,51.2 L89.6,51.2 Z M51.2,76.8 L51.2,102.4 L64,102.4 L64,76.8 L51.2,76.8 Z"></path>
            </g>
        </g>
    </g>
</svg>