<?xml version="1.0" encoding="UTF-8"?>
<svg width="128px" height="128px" viewBox="0 0 128 128" version="1.1" xmlns="http://www.w3.org/2000/svg" xmlns:xlink="http://www.w3.org/1999/xlink">
    <title>table</title>
    <g id="icons" stroke="none" stroke-width="1" fill="none" fill-rule="evenodd">
        <g id="table" fill="#000000" fill-rule="nonzero">
            <g transform="translate(0.000000, 6.000000)" id="形状">
                <path d="M83.2,115.2 L44.8,115.2 L44.8,44.8 L83.2,44.8 L83.2,115.2 Z M96,115.2 L96,44.8 L128,44.8 L128,108.8 C128,112.334622 125.134622,115.2 121.6,115.2 L96,115.2 Z M32,115.2 L6.4,115.2 C2.8653776,115.2 0,112.334622 0,108.8 L0,44.8 L32,44.8 L32,115.2 Z M128,32 L0,32 L0,6.4 C0,2.8653776 2.8653776,0 6.4,0 L121.6,0 C125.134622,0 128,2.8653776 128,6.4 L128,32 Z"></path>
            </g>
        </g>
    </g>
</svg>