<?xml version="1.0" encoding="UTF-8"?>
<svg width="128px" height="128px" viewBox="0 0 128 128" version="1.1" xmlns="http://www.w3.org/2000/svg" xmlns:xlink="http://www.w3.org/1999/xlink">
    <title>theme</title>
    <g id="icons" stroke="none" stroke-width="1" fill="none" fill-rule="evenodd">
        <g id="theme" fill="#000000" fill-rule="nonzero">
            <g transform="translate(0.000000, 7.000000)" id="路径">
                <path d="M78.3714286,17.1428571 L93.2628571,2.24571429 C94.3346758,1.17270261 95.78909,0.569790535 97.3057143,0.569790535 C98.8223386,0.569790535 100.276753,1.17270261 101.348571,2.24571429 L125.588571,26.4914286 C127.819325,28.7228563 127.819325,32.3400008 125.588571,34.5714286 L104,56.16 L104,108.571429 C104,111.727341 101.441627,114.285714 98.2857143,114.285714 L29.7142857,114.285714 C26.5583729,114.285714 24,111.727341 24,108.571429 L24,56.16 L2.41142857,34.5714286 C0.180674638,32.3400008 0.180674638,28.7228563 2.41142857,26.4914286 L26.6514286,2.24571429 C27.7232472,1.17270261 29.1776614,0.569790535 30.6942857,0.569790535 C32.21091,0.569790535 33.6653242,1.17270261 34.7371429,2.24571429 L49.6285714,17.1428571 L78.3714286,17.1428571 Z"></path>
            </g>
        </g>
    </g>
</svg>