<?xml version="1.0" encoding="UTF-8"?><svg width="128px" height="128px" viewBox="0 0 128 128" version="1.1" xmlns="http://www.w3.org/2000/svg" xmlns:xlink="http://www.w3.org/1999/xlink"><title>user-settings-fill</title><g id="icons" stroke="none" stroke-width="1" fill-rule="evenodd"><g id="user-settings-fill" fill-rule="nonzero"><g id="形状"><path d="M64,74.6666667 L64,117.333333 L21.3333333,117.333333 C21.3333333,93.769184 40.4358507,74.6666667 64,74.6666667 L64,74.6666667 Z M64,69.3333333 C46.32,69.3333333 32,55.0133333 32,37.3333333 C32,19.6533333 46.32,5.33333333 64,5.33333333 C81.68,5.33333333 96,19.6533333 96,37.3333333 C96,55.0133333 81.68,69.3333333 64,69.3333333 Z M77.84,100.330667 C77.1637601,97.4849562 77.1637601,94.5203772 77.84,91.6746667 L72.5493333,88.6186667 L77.8826667,79.3813333 L83.1733333,82.4373333 C85.2968669,80.4260283 87.8637917,78.9425103 90.6666667,78.1066667 L90.6666667,72 L101.333333,72 L101.333333,78.1066667 C104.170667,78.9493333 106.730667,80.4533333 108.826667,82.4373333 L114.117333,79.3813333 L119.450667,88.6186667 L114.16,91.6746667 C114.835395,94.5186739 114.835395,97.4813261 114.16,100.325333 L119.450667,103.381333 L114.117333,112.618667 L108.826667,109.562667 C106.703133,111.573972 104.136208,113.05749 101.333333,113.893333 L101.333333,120 L90.6666667,120 L90.6666667,113.893333 C87.8637917,113.05749 85.2968669,111.573972 83.1733333,109.562667 L77.8826667,112.618667 L72.5493333,103.381333 L77.84,100.330667 L77.84,100.330667 Z M96,90.6666667 C93.0544813,90.6666667 90.6666667,93.0544813 90.6666667,96 C90.6666667,98.9455187 93.0544813,101.333333 96,101.333333 C98.9455187,101.333333 101.333333,98.9455187 101.333333,96 C101.333333,93.0544813 98.9455187,90.6666667 96,90.6666667 Z"/></g></g></g></svg>