<?xml version="1.0" encoding="UTF-8"?>
<svg width="128px" height="128px" viewBox="0 0 128 128" version="1.1" xmlns="http://www.w3.org/2000/svg" xmlns:xlink="http://www.w3.org/1999/xlink">
    <title>zip</title>
    <g id="icons" stroke="none" stroke-width="1" fill="none" fill-rule="evenodd">
        <g id="zip" fill="#000000" fill-rule="nonzero">
            <g transform="translate(0.000000, 6.000000)" id="形状">
                <path d="M121.6,12.8 C125.134622,12.8 128,15.6653776 128,19.2 L128,108.8 C128,112.334622 125.134622,115.2 121.6,115.2 L6.4,115.2 C2.8653776,115.2 0,112.334622 0,108.8 L0,6.4 C0,2.8653776 2.8653776,0 6.4,0 L53.8496,0 L66.6496,12.8 L89.6,12.8 L89.6,25.6 L102.4,25.6 L102.4,12.8 L121.6,12.8 Z M102.4,64 L89.6,64 L89.6,76.8 L76.8,76.8 L76.8,96 L102.4,96 L102.4,64 Z M89.6,51.2 L76.8,51.2 L76.8,64 L89.6,64 L89.6,51.2 Z M102.4,38.4 L89.6,38.4 L89.6,51.2 L102.4,51.2 L102.4,38.4 Z M89.6,25.6 L76.8,25.6 L76.8,38.4 L89.6,38.4 L89.6,25.6 Z"></path>
            </g>
        </g>
    </g>
</svg>